M48
; DRILL file {KiCad 5.1.7} date 12/02/21 00:59:10
; FORMAT={-:-/ absolute / metric / decimal}
; #@! TF.CreationDate,2021-12-02T00:59:10+07:00
; #@! TF.GenerationSoftware,Kicad,Pcbnew,5.1.7
; #@! TF.FileFunction,Plated,1,2,PTH
FMAT,2
METRIC
T1C0.400
T2C0.450
T3C0.600
T4C0.700
T5C0.710
T6C0.737
T7C0.800
T8C0.900
T9C1.000
T10C1.100
T11C1.499
%
G90
G05
T1
X18.288Y-59.69
X24.051Y-90.249
X27.861Y-71.914
X28.575Y-73.819
X30.48Y-75.009
X40.719Y-67.627
X47.625Y-83.344
X66.437Y-88.106
X66.675Y-103.108
X122.039Y-89.297
X130.374Y-102.394
X158.353Y-80.963
X182.761Y-144.066
X25.128Y-59.51
X25.128Y-60.86
X25.978Y-59.51
X25.978Y-60.86
X26.828Y-59.51
X26.828Y-60.86
X27.678Y-59.51
X27.678Y-60.86
X28.528Y-59.51
X28.528Y-60.86
X29.378Y-59.51
X29.378Y-60.86
X30.228Y-59.51
X30.228Y-60.86
X31.078Y-59.51
X31.078Y-60.86
T3
X145.542Y-127.992
X147.042Y-127.992
T4
X26.5Y-63.61
X27.3Y-61.86
X28.1Y-63.61
X28.9Y-61.86
X29.7Y-63.61
X154.781Y-106.561
X162.401Y-106.561
X154.781Y-108.942
X162.401Y-108.942
X154.781Y-58.341
X162.401Y-58.341
X24.765Y-75.009
X32.385Y-75.009
X154.781Y-113.705
X162.401Y-113.705
X154.781Y-111.324
X162.401Y-111.324
X142.399Y-58.341
X150.019Y-58.341
X24.765Y-72.628
X32.385Y-72.628
T5
X140.494Y-113.546
X140.494Y-118.626
T6
X66.675Y-69.557
X66.675Y-71.057
X66.675Y-72.557
X66.675Y-74.057
T7
X144.661Y-134.541
X144.661Y-142.161
X128.707Y-118.467
X136.327Y-118.467
X168.474Y-118.467
X176.094Y-118.467
X126.325Y-67.866
X133.945Y-67.866
X170.855Y-73.819
X178.475Y-73.819
X155.735Y-129.778
X160.735Y-129.778
X144.066Y-94.059
X144.066Y-96.559
X144.066Y-88.702
X144.066Y-91.202
X155.735Y-126.802
X160.735Y-126.802
X126.325Y-103.584
X133.945Y-103.584
X168.474Y-88.702
X176.094Y-88.702
X148.828Y-89.892
X148.828Y-94.772
X168.474Y-76.795
X176.094Y-76.795
X168.474Y-70.842
X176.094Y-70.842
X126.325Y-85.725
X133.945Y-85.725
X126.325Y-79.772
X133.945Y-79.772
X154.9Y-121.444
X162.52Y-121.444
X128.707Y-76.795
X136.327Y-76.795
X128.707Y-70.842
X136.327Y-70.842
X128.707Y-64.889
X136.327Y-64.889
X128.707Y-82.749
X136.327Y-82.749
X154.781Y-69.056
X154.781Y-71.596
X154.781Y-74.136
X154.781Y-76.676
X154.781Y-79.216
X154.781Y-81.756
X154.781Y-84.296
X154.781Y-86.836
X154.781Y-89.376
X154.781Y-91.916
X154.781Y-94.456
X154.781Y-96.996
X154.781Y-99.536
X154.781Y-102.076
X162.401Y-69.056
X162.401Y-71.596
X162.401Y-74.136
X162.401Y-76.676
X162.401Y-79.216
X162.401Y-81.756
X162.401Y-84.296
X162.401Y-86.836
X162.401Y-89.376
X162.401Y-91.916
X162.401Y-94.456
X162.401Y-96.996
X162.401Y-99.536
X162.401Y-102.076
X128.707Y-88.702
X136.327Y-88.702
X168.474Y-82.749
X176.094Y-82.749
X126.325Y-73.819
X133.945Y-73.819
X170.855Y-85.725
X178.475Y-85.725
X170.855Y-91.678
X178.475Y-91.678
X126.325Y-100.608
X133.945Y-100.608
X154.9Y-118.467
X162.52Y-118.467
X126.325Y-91.678
X133.945Y-91.678
X170.855Y-67.866
X178.475Y-67.866
X128.707Y-106.561
X136.327Y-106.561
X128.707Y-112.514
X136.327Y-112.514
X168.474Y-130.374
X176.094Y-130.374
X170.855Y-103.584
X178.475Y-103.584
X168.474Y-106.561
X176.094Y-106.561
X126.325Y-115.491
X133.945Y-115.491
X170.855Y-109.538
X178.475Y-109.538
X168.474Y-94.655
X176.094Y-94.655
X168.474Y-112.514
X176.094Y-112.514
X150.614Y-134.541
X150.614Y-142.161
X128.707Y-124.42
X136.327Y-124.42
X154.186Y-134.541
X154.186Y-142.161
X170.855Y-127.397
X178.475Y-127.397
X128.707Y-94.655
X136.327Y-94.655
X126.325Y-121.444
X133.945Y-121.444
X168.474Y-100.608
X176.094Y-100.608
X170.855Y-121.444
X178.475Y-121.444
X128.707Y-130.374
X136.327Y-130.374
X126.325Y-97.631
X133.945Y-97.631
X126.325Y-109.538
X133.945Y-109.538
X168.474Y-124.42
X176.094Y-124.42
X126.325Y-127.397
X133.945Y-127.397
X170.855Y-97.631
X178.475Y-97.631
X166.092Y-134.541
X166.092Y-142.161
X170.855Y-115.491
X178.475Y-115.491
X170.855Y-133.35
X178.475Y-133.35
X141.684Y-136.922
X141.684Y-144.542
X126.325Y-133.35
X133.945Y-133.35
X168.474Y-64.889
X176.094Y-64.889
X147.638Y-136.922
X147.638Y-144.542
X160.139Y-134.541
X160.139Y-142.161
X135.731Y-136.922
X135.731Y-144.542
X138.708Y-134.541
X138.708Y-142.161
X157.163Y-136.922
X157.163Y-144.542
X163.116Y-136.922
X163.116Y-144.542
X169.069Y-136.922
X169.069Y-144.542
X170.855Y-79.772
X178.475Y-79.772
T8
X157.004Y-63.698
X159.544Y-63.698
X145.256Y-63.698
X147.796Y-63.698
T9
X144.066Y-80.209
X144.066Y-82.749
X146.606Y-80.209
X146.606Y-82.749
X149.146Y-80.209
X149.146Y-82.749
T10
X144.066Y-100.656
X144.066Y-107.156
X148.566Y-100.656
X148.566Y-107.156
X144.066Y-69.105
X144.066Y-75.605
X148.566Y-69.105
X148.566Y-75.605
T11
X34.29Y-80.804
X35.56Y-88.424
X40.64Y-78.264
X41.91Y-85.884
X281.94Y-80.804
X288.29Y-78.264
X110.49Y-99.854
X116.84Y-97.314
X34.29Y-61.754
X40.64Y-59.214
X224.79Y-137.954
X231.14Y-135.414
X243.84Y-80.804
X250.19Y-78.264
X281.94Y-118.904
X288.29Y-116.364
X205.74Y-118.904
X212.09Y-116.364
X243.84Y-99.854
X250.19Y-97.314
X224.79Y-99.854
X231.14Y-97.314
X205.74Y-99.854
X212.09Y-97.314
X243.84Y-118.904
X250.19Y-116.364
X243.84Y-137.954
X250.19Y-135.414
X205.74Y-137.954
X212.09Y-135.414
X224.79Y-118.904
X231.14Y-116.364
X262.89Y-80.804
X269.24Y-78.264
X281.94Y-99.854
X288.29Y-97.314
X243.84Y-61.754
X250.19Y-59.214
X262.89Y-99.854
X269.24Y-97.314
X110.49Y-61.754
X116.84Y-59.214
X262.89Y-118.904
X269.24Y-116.364
X262.89Y-137.954
X269.24Y-135.414
X281.94Y-137.954
X288.29Y-135.414
X91.44Y-61.754
X97.79Y-59.214
X91.44Y-137.954
X97.79Y-135.414
X15.24Y-61.754
X21.59Y-59.214
X72.39Y-61.754
X78.74Y-59.214
X224.79Y-61.754
X231.14Y-59.214
X53.34Y-80.804
X59.69Y-78.264
X224.79Y-80.804
X231.14Y-78.264
X110.49Y-80.804
X116.84Y-78.264
X15.24Y-80.804
X21.59Y-78.264
X34.29Y-99.854
X40.64Y-97.314
X262.89Y-61.754
X269.24Y-59.214
X53.34Y-137.954
X59.69Y-135.414
X53.34Y-61.754
X59.69Y-59.214
X15.24Y-99.854
X21.59Y-97.314
X281.94Y-61.754
X288.29Y-59.214
X72.39Y-80.804
X78.74Y-78.264
X91.44Y-80.804
X97.79Y-78.264
X34.29Y-137.954
X40.64Y-135.414
X15.24Y-137.954
X21.59Y-135.414
X72.39Y-118.904
X78.74Y-116.364
X34.29Y-118.904
X40.64Y-116.364
X205.74Y-80.804
X212.09Y-78.264
X91.44Y-99.854
X97.79Y-97.314
X53.34Y-99.854
X59.69Y-97.314
X72.39Y-137.954
X78.74Y-135.414
X15.24Y-118.904
X21.59Y-116.364
X72.39Y-99.854
X78.74Y-97.314
X53.34Y-118.904
X59.69Y-116.364
X91.44Y-118.904
X97.79Y-116.364
X186.69Y-99.854
X193.04Y-97.314
X110.49Y-137.954
X116.84Y-135.414
X110.49Y-118.904
X116.84Y-116.364
X205.74Y-61.754
X212.09Y-59.214
X186.69Y-61.754
X193.04Y-59.214
X186.69Y-80.804
X193.04Y-78.264
X186.69Y-118.904
X193.04Y-116.364
X100.965Y-137.954
X107.315Y-135.414
X186.69Y-137.954
X193.04Y-135.414
X196.215Y-137.954
X202.565Y-135.414
T2
X24.2Y-57.525G85X24.2Y-56.375
G05
X24.2Y-62.225G85X24.2Y-61.075
G05
X32.0Y-57.525G85X32.0Y-56.375
G05
X32.0Y-62.225G85X32.0Y-61.075
G05
T3
X23.778Y-56.31G85X23.778Y-57.11
G05
X23.778Y-59.34G85X23.778Y-60.84
G05
X32.428Y-56.31G85X32.428Y-57.11
G05
X32.428Y-59.34G85X32.428Y-60.84
G05
T0
M30
