M48
; DRILL file {KiCad (5.1.10)-1} date 12/08/21 21:59:11
; FORMAT={-:-/ absolute / metric / decimal}
; #@! TF.CreationDate,2021-12-08T21:59:11+07:00
; #@! TF.GenerationSoftware,Kicad,Pcbnew,(5.1.10)-1
; #@! TF.FileFunction,Plated,1,2,PTH
FMAT,2
METRIC
T1C0.400
T2C0.600
T3C0.700
T4C0.710
T5C0.737
T6C0.800
T7C0.900
T8C1.000
T9C1.100
%
G90
G05
T1
X18.288Y-59.69
X24.051Y-90.249
X24.892Y-78.264
X24.9Y-59.2
X24.9Y-97.2
X31.0Y-100.0
X31.0Y-119.0
X31.015Y-80.804
X31.1Y-61.8
X40.719Y-67.627
X44.0Y-97.2
X47.625Y-83.344
X50.065Y-80.804
X50.096Y-118.904
X50.1Y-61.8
X50.25Y-138.0
X63.1Y-97.3
X66.437Y-88.106
X66.675Y-103.108
X69.1Y-61.8
X69.146Y-99.854
X69.2Y-80.9
X69.25Y-119.0
X69.25Y-138.0
X82.1Y-97.2
X88.2Y-61.8
X88.2Y-80.8
X88.25Y-99.75
X88.25Y-118.75
X88.5Y-137.75
X101.1Y-97.3
X107.2Y-61.8
X107.2Y-80.8
X107.215Y-137.954
X107.25Y-99.75
X107.25Y-118.75
X110.2Y-145.2
X120.1Y-59.2
X120.1Y-97.3
X122.039Y-89.297
X130.15Y-80.15
X130.374Y-102.394
X158.353Y-80.963
X182.3Y-88.3
X182.761Y-144.066
X183.415Y-61.754
X183.5Y-80.8
X183.5Y-138.1
X183.6Y-118.7
X183.8Y-100.2
X196.0Y-71.725
X196.342Y-59.214
X196.4Y-97.3
X196.7Y-88.0
X202.465Y-80.804
X202.6Y-100.0
X202.6Y-118.9
X202.6Y-138.0
X215.4Y-97.3
X221.3Y-62.0
X221.4Y-80.1
X221.4Y-99.9
X221.6Y-118.8
X221.9Y-137.5
X234.4Y-97.3
X240.565Y-80.804
X240.565Y-118.904
X240.6Y-61.9
X240.7Y-138.0
X253.7Y-97.3
X259.6Y-118.9
X259.7Y-61.8
X259.7Y-80.9
X272.6Y-97.4
X278.665Y-80.835
X278.7Y-118.9
X278.8Y-61.8
X278.8Y-137.9
X291.7Y-97.3
T2
X145.542Y-127.992
X147.042Y-127.992
T3
X142.399Y-58.341
X150.019Y-58.341
X154.781Y-58.341
X154.781Y-106.561
X154.781Y-108.942
X154.781Y-111.324
X154.781Y-113.705
X162.401Y-58.341
X162.401Y-106.561
X162.401Y-108.942
X162.401Y-111.324
X162.401Y-113.705
T4
X140.494Y-113.546
X140.494Y-118.626
T5
X66.675Y-69.557
X66.675Y-71.057
X66.675Y-72.557
X66.675Y-74.057
T6
X126.325Y-67.866
X126.325Y-73.819
X126.325Y-79.772
X126.325Y-85.725
X126.325Y-91.678
X126.325Y-97.631
X126.325Y-100.608
X126.325Y-103.584
X126.325Y-109.538
X126.325Y-115.491
X126.325Y-121.444
X126.325Y-127.397
X126.325Y-133.35
X128.707Y-64.889
X128.707Y-70.842
X128.707Y-76.795
X128.707Y-82.749
X128.707Y-88.702
X128.707Y-94.655
X128.707Y-106.561
X128.707Y-112.514
X128.707Y-118.467
X128.707Y-124.42
X128.707Y-130.374
X133.945Y-67.866
X133.945Y-73.819
X133.945Y-79.772
X133.945Y-85.725
X133.945Y-91.678
X133.945Y-97.631
X133.945Y-100.608
X133.945Y-103.584
X133.945Y-109.538
X133.945Y-115.491
X133.945Y-121.444
X133.945Y-127.397
X133.945Y-133.35
X135.731Y-136.922
X135.731Y-144.542
X136.327Y-64.889
X136.327Y-70.842
X136.327Y-76.795
X136.327Y-82.749
X136.327Y-88.702
X136.327Y-94.655
X136.327Y-106.561
X136.327Y-112.514
X136.327Y-118.467
X136.327Y-124.42
X136.327Y-130.374
X138.708Y-134.541
X138.708Y-142.161
X141.684Y-136.922
X141.684Y-144.542
X144.066Y-88.702
X144.066Y-91.202
X144.066Y-94.059
X144.066Y-96.559
X144.661Y-134.541
X144.661Y-142.161
X147.638Y-136.922
X147.638Y-144.542
X148.828Y-89.892
X148.828Y-94.772
X150.614Y-134.541
X150.614Y-142.161
X154.186Y-134.541
X154.186Y-142.161
X154.781Y-69.056
X154.781Y-71.596
X154.781Y-74.136
X154.781Y-76.676
X154.781Y-79.216
X154.781Y-81.756
X154.781Y-84.296
X154.781Y-86.836
X154.781Y-89.376
X154.781Y-91.916
X154.781Y-94.456
X154.781Y-96.996
X154.781Y-99.536
X154.781Y-102.076
X154.9Y-118.467
X154.9Y-121.444
X155.735Y-126.802
X155.735Y-129.778
X157.163Y-136.922
X157.163Y-144.542
X160.139Y-134.541
X160.139Y-142.161
X160.735Y-126.802
X160.735Y-129.778
X162.401Y-69.056
X162.401Y-71.596
X162.401Y-74.136
X162.401Y-76.676
X162.401Y-79.216
X162.401Y-81.756
X162.401Y-84.296
X162.401Y-86.836
X162.401Y-89.376
X162.401Y-91.916
X162.401Y-94.456
X162.401Y-96.996
X162.401Y-99.536
X162.401Y-102.076
X162.52Y-118.467
X162.52Y-121.444
X163.116Y-136.922
X163.116Y-144.542
X166.092Y-134.541
X166.092Y-142.161
X168.474Y-64.889
X168.474Y-70.842
X168.474Y-76.795
X168.474Y-82.749
X168.474Y-88.702
X168.474Y-94.655
X168.474Y-100.608
X168.474Y-106.561
X168.474Y-112.514
X168.474Y-118.467
X168.474Y-124.42
X168.474Y-130.374
X169.069Y-136.922
X169.069Y-144.542
X170.855Y-67.866
X170.855Y-73.819
X170.855Y-79.772
X170.855Y-85.725
X170.855Y-91.678
X170.855Y-97.631
X170.855Y-103.584
X170.855Y-109.538
X170.855Y-115.491
X170.855Y-121.444
X170.855Y-127.397
X170.855Y-133.35
X176.094Y-64.889
X176.094Y-70.842
X176.094Y-76.795
X176.094Y-82.749
X176.094Y-88.702
X176.094Y-94.655
X176.094Y-100.608
X176.094Y-106.561
X176.094Y-112.514
X176.094Y-118.467
X176.094Y-124.42
X176.094Y-130.374
X178.475Y-67.866
X178.475Y-73.819
X178.475Y-79.772
X178.475Y-85.725
X178.475Y-91.678
X178.475Y-97.631
X178.475Y-103.584
X178.475Y-109.538
X178.475Y-115.491
X178.475Y-121.444
X178.475Y-127.397
X178.475Y-133.35
T7
X145.256Y-63.698
X147.796Y-63.698
X157.004Y-63.698
X159.544Y-63.698
T8
X144.066Y-80.209
X144.066Y-82.749
X146.606Y-80.209
X146.606Y-82.749
X149.146Y-80.209
X149.146Y-82.749
T9
X144.066Y-69.105
X144.066Y-75.605
X144.066Y-100.656
X144.066Y-107.156
X148.566Y-69.105
X148.566Y-75.605
X148.566Y-100.656
X148.566Y-107.156
T0
M30
