%FSLAX45Y45*%
G04 Gerber Fmt 4.5, Leading zero omitted, Abs format (unit mm)*
G04 Created by KiCad (PCBNEW (5.1.10)-1) date 2021-12-08 21:59:14*
%MOMM*%
%LPD*%
G01*
G04 APERTURE LIST*
%TA.AperFunction,Profile*%
%ADD10C,0.200000*%
%TD*%
%ADD11C,0.200000*%
%ADD12C,0.300000*%
G04 APERTURE END LIST*
D10*
X28260000Y-5779375D02*
X27622500Y-5779375D01*
X28539307Y-5610020D02*
G75*
G02*
X28672310Y-5529375I133003J-69355D01*
G01*
X28539307Y-5610020D02*
G75*
G02*
X28260000Y-5779375I-279307J145645D01*
G01*
X27622500Y-5779375D02*
G75*
G02*
X27343193Y-5610020I0J315000D01*
G01*
X27210189Y-5529375D02*
G75*
G02*
X27343193Y-5610020I0J-150000D01*
G01*
X25305189Y-5529375D02*
X19992311Y-5529375D01*
X19167689Y-5529375D02*
X17081061Y-5529375D01*
X13398939Y-5529375D02*
X11312311Y-5529375D01*
X10487689Y-5529375D02*
X5174811Y-5529375D01*
X19859307Y-5610020D02*
G75*
G02*
X19992311Y-5529375I133003J-69355D01*
G01*
X19859307Y-5610020D02*
G75*
G02*
X19300693Y-5610020I-279307J145645D01*
G01*
X19167689Y-5529375D02*
G75*
G02*
X19300693Y-5610020I0J-150000D01*
G01*
X11179307Y-5610020D02*
G75*
G02*
X11312311Y-5529375I133003J-69355D01*
G01*
X11179307Y-5610020D02*
G75*
G02*
X10620693Y-5610020I-279307J145645D01*
G01*
X10487689Y-5529375D02*
G75*
G02*
X10620693Y-5610020I0J-150000D01*
G01*
X6604000Y-14949375D02*
X10487690Y-14949375D01*
X11312311Y-14949375D02*
X19167690Y-14949375D01*
X19992311Y-14949375D02*
X23876439Y-14949375D01*
X24701061Y-14949375D02*
X27847689Y-14949375D01*
X28672311Y-14949375D02*
X29250000Y-14949375D01*
X27980693Y-14868730D02*
G75*
G02*
X27847689Y-14949375I-133003J69355D01*
G01*
X27980693Y-14868730D02*
G75*
G02*
X28539307Y-14868730I279307J-145645D01*
G01*
X28672311Y-14949375D02*
G75*
G02*
X28539307Y-14868730I0J150000D01*
G01*
X19300693Y-14868730D02*
G75*
G02*
X19167690Y-14949375I-133003J69355D01*
G01*
X19300693Y-14868730D02*
G75*
G02*
X19859307Y-14868730I279307J-145645D01*
G01*
X19992311Y-14949375D02*
G75*
G02*
X19859307Y-14868730I0J150000D01*
G01*
X10620693Y-14868730D02*
G75*
G02*
X10487690Y-14949375I-133003J69355D01*
G01*
X10620693Y-14868730D02*
G75*
G02*
X11179307Y-14868730I279307J-145645D01*
G01*
X11312311Y-14949375D02*
G75*
G02*
X11179307Y-14868730I0J150000D01*
G01*
X2632311Y-14949375D02*
X5778939Y-14949375D01*
X1807689Y-14949375D02*
X1230000Y-14949375D01*
X1940693Y-14868730D02*
G75*
G02*
X1807689Y-14949375I-133003J69355D01*
G01*
X1940693Y-14868730D02*
G75*
G02*
X2499307Y-14868730I279307J-145645D01*
G01*
X2632311Y-14949375D02*
G75*
G02*
X2499307Y-14868730I0J150000D01*
G01*
X2445189Y-5529375D02*
X2432311Y-5529375D01*
X2299307Y-5610020D02*
G75*
G02*
X1740693Y-5610020I-279307J145645D01*
G01*
X1607689Y-5529375D02*
G75*
G02*
X1740693Y-5610020I0J-150000D01*
G01*
X2299307Y-5610020D02*
G75*
G02*
X2432311Y-5529375I133003J-69355D01*
G01*
X1607689Y-5529375D02*
X1230000Y-5529375D01*
X29250000Y-5529375D02*
X28672310Y-5529375D01*
X4350189Y-5529375D02*
X3269811Y-5529375D01*
X4350189Y-5529375D02*
G75*
G02*
X4483193Y-5610020I0J-150000D01*
G01*
X5041807Y-5610020D02*
G75*
G02*
X4483193Y-5610020I-279307J145645D01*
G01*
X5041807Y-5610020D02*
G75*
G02*
X5174811Y-5529375I133003J-69355D01*
G01*
X25996807Y-5610020D02*
G75*
G02*
X25438193Y-5610020I-279307J145645D01*
G01*
X16948057Y-5610020D02*
G75*
G02*
X16389443Y-5610020I-279307J145645D01*
G01*
X16256439Y-5529375D02*
X14223561Y-5529375D01*
X1005000Y-14724375D02*
X1005000Y-5754375D01*
X16948057Y-5610020D02*
G75*
G02*
X17081061Y-5529375I133003J-69355D01*
G01*
X27210189Y-5529375D02*
X26129811Y-5529375D01*
X3136807Y-5610020D02*
G75*
G02*
X3269811Y-5529375I133003J-69355D01*
G01*
X25996807Y-5610020D02*
G75*
G02*
X26129811Y-5529375I133003J-69355D01*
G01*
X1230000Y-14949375D02*
G75*
G02*
X1005000Y-14724375I0J225000D01*
G01*
X13398939Y-5529375D02*
G75*
G02*
X13531943Y-5610020I0J-150000D01*
G01*
X29475000Y-14724375D02*
G75*
G02*
X29250000Y-14949375I-225000J0D01*
G01*
X14090557Y-5610020D02*
G75*
G02*
X13531943Y-5610020I-279307J145645D01*
G01*
X5911943Y-14868730D02*
G75*
G02*
X5778939Y-14949375I-133003J69355D01*
G01*
X6603561Y-14949375D02*
G75*
G02*
X6470557Y-14868730I0J150000D01*
G01*
X5911943Y-14868730D02*
G75*
G02*
X6470557Y-14868730I279307J-145645D01*
G01*
X24009443Y-14868730D02*
G75*
G02*
X24568057Y-14868730I279307J-145645D01*
G01*
X16256439Y-5529375D02*
G75*
G02*
X16389443Y-5610020I0J-150000D01*
G01*
X29250000Y-5529375D02*
G75*
G02*
X29475000Y-5754375I0J-225000D01*
G01*
X24701061Y-14949375D02*
G75*
G02*
X24568057Y-14868730I0J150000D01*
G01*
X3136807Y-5610020D02*
G75*
G02*
X2578193Y-5610020I-279307J145645D01*
G01*
X25305189Y-5529375D02*
G75*
G02*
X25438193Y-5610020I0J-150000D01*
G01*
X1005000Y-5754375D02*
G75*
G02*
X1230000Y-5529375I225000J0D01*
G01*
X2445189Y-5529375D02*
G75*
G02*
X2578193Y-5610020I0J-150000D01*
G01*
X14090557Y-5610020D02*
G75*
G02*
X14223561Y-5529375I133003J-69355D01*
G01*
X29475000Y-14724375D02*
X29475000Y-5754375D01*
X24009443Y-14868730D02*
G75*
G02*
X23876439Y-14949375I-133003J69355D01*
G01*
D11*
X1808800Y-5949000D02*
X1848800Y-5989000D01*
X1848800Y-5949000D02*
X1808800Y-5989000D01*
X2385063Y-9004938D02*
X2425063Y-9044938D01*
X2425063Y-9004938D02*
X2385063Y-9044938D01*
X2469202Y-7806382D02*
X2509202Y-7846382D01*
X2509202Y-7806382D02*
X2469202Y-7846382D01*
X2470000Y-5900000D02*
X2510000Y-5940000D01*
X2510000Y-5900000D02*
X2470000Y-5940000D01*
X2470000Y-9700000D02*
X2510000Y-9740000D01*
X2510000Y-9700000D02*
X2470000Y-9740000D01*
X3080000Y-9980000D02*
X3120000Y-10020000D01*
X3120000Y-9980000D02*
X3080000Y-10020000D01*
X3080000Y-11880000D02*
X3120000Y-11920000D01*
X3120000Y-11880000D02*
X3080000Y-11920000D01*
X3081503Y-8060382D02*
X3121503Y-8100382D01*
X3121503Y-8060382D02*
X3081503Y-8100382D01*
X3090000Y-6160000D02*
X3130000Y-6200000D01*
X3130000Y-6160000D02*
X3090000Y-6200000D01*
X4051937Y-6742750D02*
X4091937Y-6782750D01*
X4091937Y-6742750D02*
X4051937Y-6782750D01*
X4380000Y-9700000D02*
X4420000Y-9740000D01*
X4420000Y-9700000D02*
X4380000Y-9740000D01*
X4742500Y-8314375D02*
X4782500Y-8354375D01*
X4782500Y-8314375D02*
X4742500Y-8354375D01*
X4986505Y-8060382D02*
X5026505Y-8100382D01*
X5026505Y-8060382D02*
X4986505Y-8100382D01*
X4989615Y-11870385D02*
X5029615Y-11910385D01*
X5029615Y-11870385D02*
X4989615Y-11910385D01*
X4990000Y-6160000D02*
X5030000Y-6200000D01*
X5030000Y-6160000D02*
X4990000Y-6200000D01*
X5005000Y-13780000D02*
X5045000Y-13820000D01*
X5045000Y-13780000D02*
X5005000Y-13820000D01*
X6290000Y-9710000D02*
X6330000Y-9750000D01*
X6330000Y-9710000D02*
X6290000Y-9750000D01*
X6623687Y-8790625D02*
X6663687Y-8830625D01*
X6663687Y-8790625D02*
X6623687Y-8830625D01*
X6647500Y-10290813D02*
X6687500Y-10330813D01*
X6687500Y-10290813D02*
X6647500Y-10330813D01*
X6890000Y-6160000D02*
X6930000Y-6200000D01*
X6930000Y-6160000D02*
X6890000Y-6200000D01*
X6894616Y-9965384D02*
X6934616Y-10005384D01*
X6934616Y-9965384D02*
X6894616Y-10005384D01*
X6900000Y-8070000D02*
X6940000Y-8110000D01*
X6940000Y-8070000D02*
X6900000Y-8110000D01*
X6905000Y-11880000D02*
X6945000Y-11920000D01*
X6945000Y-11880000D02*
X6905000Y-11920000D01*
X6905000Y-13780000D02*
X6945000Y-13820000D01*
X6945000Y-13780000D02*
X6905000Y-13820000D01*
X8190000Y-9700000D02*
X8230000Y-9740000D01*
X8230000Y-9700000D02*
X8190000Y-9740000D01*
X8800000Y-6160000D02*
X8840000Y-6200000D01*
X8840000Y-6160000D02*
X8800000Y-6200000D01*
X8800000Y-8060000D02*
X8840000Y-8100000D01*
X8840000Y-8060000D02*
X8800000Y-8100000D01*
X8805000Y-9955000D02*
X8845000Y-9995000D01*
X8845000Y-9955000D02*
X8805000Y-9995000D01*
X8805000Y-11855000D02*
X8845000Y-11895000D01*
X8845000Y-11855000D02*
X8805000Y-11895000D01*
X8830000Y-13755000D02*
X8870000Y-13795000D01*
X8870000Y-13755000D02*
X8830000Y-13795000D01*
X10090000Y-9710000D02*
X10130000Y-9750000D01*
X10130000Y-9710000D02*
X10090000Y-9750000D01*
X10700000Y-6160000D02*
X10740000Y-6200000D01*
X10740000Y-6160000D02*
X10700000Y-6200000D01*
X10700000Y-8060000D02*
X10740000Y-8100000D01*
X10740000Y-8060000D02*
X10700000Y-8100000D01*
X10701510Y-13775387D02*
X10741510Y-13815387D01*
X10741510Y-13775387D02*
X10701510Y-13815387D01*
X10705000Y-9955000D02*
X10745000Y-9995000D01*
X10745000Y-9955000D02*
X10705000Y-9995000D01*
X10705000Y-11855000D02*
X10745000Y-11895000D01*
X10745000Y-11855000D02*
X10705000Y-11895000D01*
X11000000Y-14500000D02*
X11040000Y-14540000D01*
X11040000Y-14500000D02*
X11000000Y-14540000D01*
X11990000Y-5900000D02*
X12030000Y-5940000D01*
X12030000Y-5900000D02*
X11990000Y-5940000D01*
X11990000Y-9710000D02*
X12030000Y-9750000D01*
X12030000Y-9710000D02*
X11990000Y-9750000D01*
X12183916Y-8909695D02*
X12223916Y-8949695D01*
X12223916Y-8909695D02*
X12183916Y-8949695D01*
X12995000Y-7995000D02*
X13035000Y-8035000D01*
X13035000Y-7995000D02*
X12995000Y-8035000D01*
X13017355Y-10219384D02*
X13057355Y-10259384D01*
X13057355Y-10219384D02*
X13017355Y-10259384D01*
X15815326Y-8076257D02*
X15855326Y-8116257D01*
X15855326Y-8076257D02*
X15815326Y-8116257D01*
X18210000Y-8810000D02*
X18250000Y-8850000D01*
X18250000Y-8810000D02*
X18210000Y-8850000D01*
X18256109Y-14386575D02*
X18296109Y-14426575D01*
X18296109Y-14386575D02*
X18256109Y-14426575D01*
X18321516Y-6155380D02*
X18361516Y-6195380D01*
X18361516Y-6155380D02*
X18321516Y-6195380D01*
X18330000Y-8060000D02*
X18370000Y-8100000D01*
X18370000Y-8060000D02*
X18330000Y-8100000D01*
X18330000Y-13790000D02*
X18370000Y-13830000D01*
X18370000Y-13790000D02*
X18330000Y-13830000D01*
X18340000Y-11850000D02*
X18380000Y-11890000D01*
X18380000Y-11850000D02*
X18340000Y-11890000D01*
X18360000Y-10000000D02*
X18400000Y-10040000D01*
X18400000Y-10000000D02*
X18360000Y-10040000D01*
X19580000Y-7152501D02*
X19620000Y-7192501D01*
X19620000Y-7152501D02*
X19580000Y-7192501D01*
X19614216Y-5901380D02*
X19654216Y-5941380D01*
X19654216Y-5901380D02*
X19614216Y-5941380D01*
X19620000Y-9710000D02*
X19660000Y-9750000D01*
X19660000Y-9710000D02*
X19620000Y-9750000D01*
X19650000Y-8780000D02*
X19690000Y-8820000D01*
X19690000Y-8780000D02*
X19650000Y-8820000D01*
X20226518Y-8060382D02*
X20266518Y-8100382D01*
X20266518Y-8060382D02*
X20226518Y-8100382D01*
X20240000Y-9980000D02*
X20280000Y-10020000D01*
X20280000Y-9980000D02*
X20240000Y-10020000D01*
X20240000Y-11870000D02*
X20280000Y-11910000D01*
X20280000Y-11870000D02*
X20240000Y-11910000D01*
X20240000Y-13780000D02*
X20280000Y-13820000D01*
X20280000Y-13780000D02*
X20240000Y-13820000D01*
X21520000Y-9710000D02*
X21560000Y-9750000D01*
X21560000Y-9710000D02*
X21520000Y-9750000D01*
X22110000Y-6180000D02*
X22150000Y-6220000D01*
X22150000Y-6180000D02*
X22110000Y-6220000D01*
X22120000Y-7990000D02*
X22160000Y-8030000D01*
X22160000Y-7990000D02*
X22120000Y-8030000D01*
X22120000Y-9970000D02*
X22160000Y-10010000D01*
X22160000Y-9970000D02*
X22120000Y-10010000D01*
X22140000Y-11860000D02*
X22180000Y-11900000D01*
X22180000Y-11860000D02*
X22140000Y-11900000D01*
X22170000Y-13730000D02*
X22210000Y-13770000D01*
X22210000Y-13730000D02*
X22170000Y-13770000D01*
X23420000Y-9710000D02*
X23460000Y-9750000D01*
X23460000Y-9710000D02*
X23420000Y-9750000D01*
X24036521Y-8060382D02*
X24076521Y-8100382D01*
X24076521Y-8060382D02*
X24036521Y-8100382D01*
X24036521Y-11870385D02*
X24076521Y-11910385D01*
X24076521Y-11870385D02*
X24036521Y-11910385D01*
X24040000Y-6170000D02*
X24080000Y-6210000D01*
X24080000Y-6170000D02*
X24040000Y-6210000D01*
X24050000Y-13780000D02*
X24090000Y-13820000D01*
X24090000Y-13780000D02*
X24050000Y-13820000D01*
X25350000Y-9710000D02*
X25390000Y-9750000D01*
X25390000Y-9710000D02*
X25350000Y-9750000D01*
X25940000Y-11870000D02*
X25980000Y-11910000D01*
X25980000Y-11870000D02*
X25940000Y-11910000D01*
X25950000Y-6160000D02*
X25990000Y-6200000D01*
X25990000Y-6160000D02*
X25950000Y-6200000D01*
X25950000Y-8070000D02*
X25990000Y-8110000D01*
X25990000Y-8070000D02*
X25950000Y-8110000D01*
X27240000Y-9720000D02*
X27280000Y-9760000D01*
X27280000Y-9720000D02*
X27240000Y-9760000D01*
X27846524Y-8063476D02*
X27886524Y-8103476D01*
X27886524Y-8063476D02*
X27846524Y-8103476D01*
X27850000Y-11870000D02*
X27890000Y-11910000D01*
X27890000Y-11870000D02*
X27850000Y-11910000D01*
X27860000Y-6160000D02*
X27900000Y-6200000D01*
X27900000Y-6160000D02*
X27860000Y-6200000D01*
X27860000Y-13770000D02*
X27900000Y-13810000D01*
X27900000Y-13770000D02*
X27860000Y-13810000D01*
X29150000Y-9710000D02*
X29190000Y-9750000D01*
X29190000Y-9710000D02*
X29150000Y-9750000D01*
X14584231Y-12799229D02*
G75*
G03*
X14584231Y-12799229I-30000J0D01*
G01*
X14734231Y-12799229D02*
G75*
G03*
X14734231Y-12799229I-30000J0D01*
G01*
X14239888Y-5799067D02*
X14239888Y-5869067D01*
X14204888Y-5834067D02*
X14274888Y-5834067D01*
X15001888Y-5799067D02*
X15001888Y-5869067D01*
X14966888Y-5834067D02*
X15036888Y-5834067D01*
X15478138Y-5799067D02*
X15478138Y-5869067D01*
X15443138Y-5834067D02*
X15513138Y-5834067D01*
X15478138Y-10621103D02*
X15478138Y-10691103D01*
X15443138Y-10656103D02*
X15513138Y-10656103D01*
X15478138Y-10859228D02*
X15478138Y-10929228D01*
X15443138Y-10894228D02*
X15513138Y-10894228D01*
X15478138Y-11097353D02*
X15478138Y-11167353D01*
X15443138Y-11132353D02*
X15513138Y-11132353D01*
X15478138Y-11335478D02*
X15478138Y-11405478D01*
X15443138Y-11370478D02*
X15513138Y-11370478D01*
X16240138Y-5799067D02*
X16240138Y-5869067D01*
X16205138Y-5834067D02*
X16275138Y-5834067D01*
X16240138Y-10621103D02*
X16240138Y-10691103D01*
X16205138Y-10656103D02*
X16275138Y-10656103D01*
X16240138Y-10859228D02*
X16240138Y-10929228D01*
X16205138Y-10894228D02*
X16275138Y-10894228D01*
X16240138Y-11097353D02*
X16240138Y-11167353D01*
X16205138Y-11132353D02*
X16275138Y-11132353D01*
X16240138Y-11335478D02*
X16240138Y-11405478D01*
X16205138Y-11370478D02*
X16275138Y-11370478D01*
X14074489Y-11379706D02*
X14074489Y-11329501D01*
X14024284Y-11329501D01*
X14024284Y-11379706D01*
X14074489Y-11379706D01*
X14074489Y-11887706D02*
X14074489Y-11837501D01*
X14024284Y-11837501D01*
X14024284Y-11887706D01*
X14074489Y-11887706D01*
X6667500Y-6992517D02*
X6704330Y-6955687D01*
X6667500Y-6918857D01*
X6630670Y-6955687D01*
X6667500Y-6992517D01*
X6667500Y-7142517D02*
X6704330Y-7105687D01*
X6667500Y-7068857D01*
X6630670Y-7105687D01*
X6667500Y-7142517D01*
X6667500Y-7292518D02*
X6704330Y-7255688D01*
X6667500Y-7218858D01*
X6630670Y-7255688D01*
X6667500Y-7292518D01*
X6667500Y-7442517D02*
X6704330Y-7405687D01*
X6667500Y-7368857D01*
X6630670Y-7405687D01*
X6667500Y-7442517D01*
X12592542Y-6746568D02*
X12672542Y-6826568D01*
X12672542Y-6746568D02*
X12592542Y-6826568D01*
X12672542Y-6786568D02*
G75*
G03*
X12672542Y-6786568I-40000J0D01*
G01*
X12592542Y-7341881D02*
X12672542Y-7421881D01*
X12672542Y-7341881D02*
X12592542Y-7421881D01*
X12672542Y-7381881D02*
G75*
G03*
X12672542Y-7381881I-40000J0D01*
G01*
X12592542Y-7937194D02*
X12672542Y-8017194D01*
X12672542Y-7937194D02*
X12592542Y-8017194D01*
X12672542Y-7977194D02*
G75*
G03*
X12672542Y-7977194I-40000J0D01*
G01*
X12592542Y-8532507D02*
X12672542Y-8612507D01*
X12672542Y-8532507D02*
X12592542Y-8612507D01*
X12672542Y-8572507D02*
G75*
G03*
X12672542Y-8572507I-40000J0D01*
G01*
X12592542Y-9127820D02*
X12672542Y-9207820D01*
X12672542Y-9127820D02*
X12592542Y-9207820D01*
X12672542Y-9167820D02*
G75*
G03*
X12672542Y-9167820I-40000J0D01*
G01*
X12592542Y-9723133D02*
X12672542Y-9803133D01*
X12672542Y-9723133D02*
X12592542Y-9803133D01*
X12672542Y-9763133D02*
G75*
G03*
X12672542Y-9763133I-40000J0D01*
G01*
X12592542Y-10020790D02*
X12672542Y-10100790D01*
X12672542Y-10020790D02*
X12592542Y-10100790D01*
X12672542Y-10060790D02*
G75*
G03*
X12672542Y-10060790I-40000J0D01*
G01*
X12592542Y-10318446D02*
X12672542Y-10398446D01*
X12672542Y-10318446D02*
X12592542Y-10398446D01*
X12672542Y-10358446D02*
G75*
G03*
X12672542Y-10358446I-40000J0D01*
G01*
X12592542Y-10913759D02*
X12672542Y-10993759D01*
X12672542Y-10913759D02*
X12592542Y-10993759D01*
X12672542Y-10953759D02*
G75*
G03*
X12672542Y-10953759I-40000J0D01*
G01*
X12592542Y-11509072D02*
X12672542Y-11589072D01*
X12672542Y-11509072D02*
X12592542Y-11589072D01*
X12672542Y-11549072D02*
G75*
G03*
X12672542Y-11549072I-40000J0D01*
G01*
X12592542Y-12104385D02*
X12672542Y-12184385D01*
X12672542Y-12104385D02*
X12592542Y-12184385D01*
X12672542Y-12144385D02*
G75*
G03*
X12672542Y-12144385I-40000J0D01*
G01*
X12592542Y-12699698D02*
X12672542Y-12779698D01*
X12672542Y-12699698D02*
X12592542Y-12779698D01*
X12672542Y-12739698D02*
G75*
G03*
X12672542Y-12739698I-40000J0D01*
G01*
X12592542Y-13295011D02*
X12672542Y-13375011D01*
X12672542Y-13295011D02*
X12592542Y-13375011D01*
X12672542Y-13335011D02*
G75*
G03*
X12672542Y-13335011I-40000J0D01*
G01*
X12830668Y-6448912D02*
X12910668Y-6528912D01*
X12910668Y-6448912D02*
X12830668Y-6528912D01*
X12910668Y-6488912D02*
G75*
G03*
X12910668Y-6488912I-40000J0D01*
G01*
X12830668Y-7044225D02*
X12910668Y-7124225D01*
X12910668Y-7044225D02*
X12830668Y-7124225D01*
X12910668Y-7084225D02*
G75*
G03*
X12910668Y-7084225I-40000J0D01*
G01*
X12830668Y-7639538D02*
X12910668Y-7719538D01*
X12910668Y-7639538D02*
X12830668Y-7719538D01*
X12910668Y-7679538D02*
G75*
G03*
X12910668Y-7679538I-40000J0D01*
G01*
X12830668Y-8234851D02*
X12910668Y-8314851D01*
X12910668Y-8234851D02*
X12830668Y-8314851D01*
X12910668Y-8274851D02*
G75*
G03*
X12910668Y-8274851I-40000J0D01*
G01*
X12830668Y-8830164D02*
X12910668Y-8910164D01*
X12910668Y-8830164D02*
X12830668Y-8910164D01*
X12910668Y-8870164D02*
G75*
G03*
X12910668Y-8870164I-40000J0D01*
G01*
X12830668Y-9425477D02*
X12910668Y-9505477D01*
X12910668Y-9425477D02*
X12830668Y-9505477D01*
X12910668Y-9465477D02*
G75*
G03*
X12910668Y-9465477I-40000J0D01*
G01*
X12830668Y-10616103D02*
X12910668Y-10696103D01*
X12910668Y-10616103D02*
X12830668Y-10696103D01*
X12910668Y-10656103D02*
G75*
G03*
X12910668Y-10656103I-40000J0D01*
G01*
X12830668Y-11211416D02*
X12910668Y-11291416D01*
X12910668Y-11211416D02*
X12830668Y-11291416D01*
X12910668Y-11251416D02*
G75*
G03*
X12910668Y-11251416I-40000J0D01*
G01*
X12830668Y-11806729D02*
X12910668Y-11886729D01*
X12910668Y-11806729D02*
X12830668Y-11886729D01*
X12910668Y-11846729D02*
G75*
G03*
X12910668Y-11846729I-40000J0D01*
G01*
X12830668Y-12402042D02*
X12910668Y-12482042D01*
X12910668Y-12402042D02*
X12830668Y-12482042D01*
X12910668Y-12442042D02*
G75*
G03*
X12910668Y-12442042I-40000J0D01*
G01*
X12830668Y-12997355D02*
X12910668Y-13077355D01*
X12910668Y-12997355D02*
X12830668Y-13077355D01*
X12910668Y-13037355D02*
G75*
G03*
X12910668Y-13037355I-40000J0D01*
G01*
X13354542Y-6746568D02*
X13434542Y-6826568D01*
X13434542Y-6746568D02*
X13354542Y-6826568D01*
X13434542Y-6786568D02*
G75*
G03*
X13434542Y-6786568I-40000J0D01*
G01*
X13354542Y-7341881D02*
X13434542Y-7421881D01*
X13434542Y-7341881D02*
X13354542Y-7421881D01*
X13434542Y-7381881D02*
G75*
G03*
X13434542Y-7381881I-40000J0D01*
G01*
X13354542Y-7937194D02*
X13434542Y-8017194D01*
X13434542Y-7937194D02*
X13354542Y-8017194D01*
X13434542Y-7977194D02*
G75*
G03*
X13434542Y-7977194I-40000J0D01*
G01*
X13354542Y-8532507D02*
X13434542Y-8612507D01*
X13434542Y-8532507D02*
X13354542Y-8612507D01*
X13434542Y-8572507D02*
G75*
G03*
X13434542Y-8572507I-40000J0D01*
G01*
X13354542Y-9127820D02*
X13434542Y-9207820D01*
X13434542Y-9127820D02*
X13354542Y-9207820D01*
X13434542Y-9167820D02*
G75*
G03*
X13434542Y-9167820I-40000J0D01*
G01*
X13354542Y-9723133D02*
X13434542Y-9803133D01*
X13434542Y-9723133D02*
X13354542Y-9803133D01*
X13434542Y-9763133D02*
G75*
G03*
X13434542Y-9763133I-40000J0D01*
G01*
X13354542Y-10020790D02*
X13434542Y-10100790D01*
X13434542Y-10020790D02*
X13354542Y-10100790D01*
X13434542Y-10060790D02*
G75*
G03*
X13434542Y-10060790I-40000J0D01*
G01*
X13354542Y-10318446D02*
X13434542Y-10398446D01*
X13434542Y-10318446D02*
X13354542Y-10398446D01*
X13434542Y-10358446D02*
G75*
G03*
X13434542Y-10358446I-40000J0D01*
G01*
X13354542Y-10913759D02*
X13434542Y-10993759D01*
X13434542Y-10913759D02*
X13354542Y-10993759D01*
X13434542Y-10953759D02*
G75*
G03*
X13434542Y-10953759I-40000J0D01*
G01*
X13354542Y-11509072D02*
X13434542Y-11589072D01*
X13434542Y-11509072D02*
X13354542Y-11589072D01*
X13434542Y-11549072D02*
G75*
G03*
X13434542Y-11549072I-40000J0D01*
G01*
X13354542Y-12104385D02*
X13434542Y-12184385D01*
X13434542Y-12104385D02*
X13354542Y-12184385D01*
X13434542Y-12144385D02*
G75*
G03*
X13434542Y-12144385I-40000J0D01*
G01*
X13354542Y-12699698D02*
X13434542Y-12779698D01*
X13434542Y-12699698D02*
X13354542Y-12779698D01*
X13434542Y-12739698D02*
G75*
G03*
X13434542Y-12739698I-40000J0D01*
G01*
X13354542Y-13295011D02*
X13434542Y-13375011D01*
X13434542Y-13295011D02*
X13354542Y-13375011D01*
X13434542Y-13335011D02*
G75*
G03*
X13434542Y-13335011I-40000J0D01*
G01*
X13533136Y-13652199D02*
X13613136Y-13732199D01*
X13613136Y-13652199D02*
X13533136Y-13732199D01*
X13613136Y-13692199D02*
G75*
G03*
X13613136Y-13692199I-40000J0D01*
G01*
X13533136Y-14414199D02*
X13613136Y-14494199D01*
X13613136Y-14414199D02*
X13533136Y-14494199D01*
X13613136Y-14454199D02*
G75*
G03*
X13613136Y-14454199I-40000J0D01*
G01*
X13592668Y-6448912D02*
X13672668Y-6528912D01*
X13672668Y-6448912D02*
X13592668Y-6528912D01*
X13672668Y-6488912D02*
G75*
G03*
X13672668Y-6488912I-40000J0D01*
G01*
X13592668Y-7044225D02*
X13672668Y-7124225D01*
X13672668Y-7044225D02*
X13592668Y-7124225D01*
X13672668Y-7084225D02*
G75*
G03*
X13672668Y-7084225I-40000J0D01*
G01*
X13592668Y-7639538D02*
X13672668Y-7719538D01*
X13672668Y-7639538D02*
X13592668Y-7719538D01*
X13672668Y-7679538D02*
G75*
G03*
X13672668Y-7679538I-40000J0D01*
G01*
X13592668Y-8234851D02*
X13672668Y-8314851D01*
X13672668Y-8234851D02*
X13592668Y-8314851D01*
X13672668Y-8274851D02*
G75*
G03*
X13672668Y-8274851I-40000J0D01*
G01*
X13592668Y-8830164D02*
X13672668Y-8910164D01*
X13672668Y-8830164D02*
X13592668Y-8910164D01*
X13672668Y-8870164D02*
G75*
G03*
X13672668Y-8870164I-40000J0D01*
G01*
X13592668Y-9425477D02*
X13672668Y-9505477D01*
X13672668Y-9425477D02*
X13592668Y-9505477D01*
X13672668Y-9465477D02*
G75*
G03*
X13672668Y-9465477I-40000J0D01*
G01*
X13592668Y-10616103D02*
X13672668Y-10696103D01*
X13672668Y-10616103D02*
X13592668Y-10696103D01*
X13672668Y-10656103D02*
G75*
G03*
X13672668Y-10656103I-40000J0D01*
G01*
X13592668Y-11211416D02*
X13672668Y-11291416D01*
X13672668Y-11211416D02*
X13592668Y-11291416D01*
X13672668Y-11251416D02*
G75*
G03*
X13672668Y-11251416I-40000J0D01*
G01*
X13592668Y-11806729D02*
X13672668Y-11886729D01*
X13672668Y-11806729D02*
X13592668Y-11886729D01*
X13672668Y-11846729D02*
G75*
G03*
X13672668Y-11846729I-40000J0D01*
G01*
X13592668Y-12402042D02*
X13672668Y-12482042D01*
X13672668Y-12402042D02*
X13592668Y-12482042D01*
X13672668Y-12442042D02*
G75*
G03*
X13672668Y-12442042I-40000J0D01*
G01*
X13592668Y-12997355D02*
X13672668Y-13077355D01*
X13672668Y-12997355D02*
X13592668Y-13077355D01*
X13672668Y-13037355D02*
G75*
G03*
X13672668Y-13037355I-40000J0D01*
G01*
X13830793Y-13414074D02*
X13910793Y-13494074D01*
X13910793Y-13414074D02*
X13830793Y-13494074D01*
X13910793Y-13454074D02*
G75*
G03*
X13910793Y-13454074I-40000J0D01*
G01*
X13830793Y-14176074D02*
X13910793Y-14256074D01*
X13910793Y-14176074D02*
X13830793Y-14256074D01*
X13910793Y-14216074D02*
G75*
G03*
X13910793Y-14216074I-40000J0D01*
G01*
X14128449Y-13652199D02*
X14208449Y-13732199D01*
X14208449Y-13652199D02*
X14128449Y-13732199D01*
X14208449Y-13692199D02*
G75*
G03*
X14208449Y-13692199I-40000J0D01*
G01*
X14128449Y-14414199D02*
X14208449Y-14494199D01*
X14208449Y-14414199D02*
X14128449Y-14494199D01*
X14208449Y-14454199D02*
G75*
G03*
X14208449Y-14454199I-40000J0D01*
G01*
X14366575Y-8830164D02*
X14446575Y-8910164D01*
X14446575Y-8830164D02*
X14366575Y-8910164D01*
X14446575Y-8870164D02*
G75*
G03*
X14446575Y-8870164I-40000J0D01*
G01*
X14366575Y-9080164D02*
X14446575Y-9160164D01*
X14446575Y-9080164D02*
X14366575Y-9160164D01*
X14446575Y-9120164D02*
G75*
G03*
X14446575Y-9120164I-40000J0D01*
G01*
X14366575Y-9365945D02*
X14446575Y-9445945D01*
X14446575Y-9365945D02*
X14366575Y-9445945D01*
X14446575Y-9405945D02*
G75*
G03*
X14446575Y-9405945I-40000J0D01*
G01*
X14366575Y-9615945D02*
X14446575Y-9695945D01*
X14446575Y-9615945D02*
X14366575Y-9695945D01*
X14446575Y-9655945D02*
G75*
G03*
X14446575Y-9655945I-40000J0D01*
G01*
X14426106Y-13414074D02*
X14506106Y-13494074D01*
X14506106Y-13414074D02*
X14426106Y-13494074D01*
X14506106Y-13454074D02*
G75*
G03*
X14506106Y-13454074I-40000J0D01*
G01*
X14426106Y-14176074D02*
X14506106Y-14256074D01*
X14506106Y-14176074D02*
X14426106Y-14256074D01*
X14506106Y-14216074D02*
G75*
G03*
X14506106Y-14216074I-40000J0D01*
G01*
X14723762Y-13652199D02*
X14803762Y-13732199D01*
X14803762Y-13652199D02*
X14723762Y-13732199D01*
X14803762Y-13692199D02*
G75*
G03*
X14803762Y-13692199I-40000J0D01*
G01*
X14723762Y-14414199D02*
X14803762Y-14494199D01*
X14803762Y-14414199D02*
X14723762Y-14494199D01*
X14803762Y-14454199D02*
G75*
G03*
X14803762Y-14454199I-40000J0D01*
G01*
X14842825Y-8949226D02*
X14922825Y-9029226D01*
X14922825Y-8949226D02*
X14842825Y-9029226D01*
X14922825Y-8989226D02*
G75*
G03*
X14922825Y-8989226I-40000J0D01*
G01*
X14842825Y-9437226D02*
X14922825Y-9517226D01*
X14922825Y-9437226D02*
X14842825Y-9517226D01*
X14922825Y-9477226D02*
G75*
G03*
X14922825Y-9477226I-40000J0D01*
G01*
X15021419Y-13414074D02*
X15101419Y-13494074D01*
X15101419Y-13414074D02*
X15021419Y-13494074D01*
X15101419Y-13454074D02*
G75*
G03*
X15101419Y-13454074I-40000J0D01*
G01*
X15021419Y-14176074D02*
X15101419Y-14256074D01*
X15101419Y-14176074D02*
X15021419Y-14256074D01*
X15101419Y-14216074D02*
G75*
G03*
X15101419Y-14216074I-40000J0D01*
G01*
X15378607Y-13414074D02*
X15458607Y-13494074D01*
X15458607Y-13414074D02*
X15378607Y-13494074D01*
X15458607Y-13454074D02*
G75*
G03*
X15458607Y-13454074I-40000J0D01*
G01*
X15378607Y-14176074D02*
X15458607Y-14256074D01*
X15458607Y-14176074D02*
X15378607Y-14256074D01*
X15458607Y-14216074D02*
G75*
G03*
X15458607Y-14216074I-40000J0D01*
G01*
X15438138Y-6865631D02*
X15518138Y-6945631D01*
X15518138Y-6865631D02*
X15438138Y-6945631D01*
X15518138Y-6905631D02*
G75*
G03*
X15518138Y-6905631I-40000J0D01*
G01*
X15438138Y-7119631D02*
X15518138Y-7199631D01*
X15518138Y-7119631D02*
X15438138Y-7199631D01*
X15518138Y-7159631D02*
G75*
G03*
X15518138Y-7159631I-40000J0D01*
G01*
X15438138Y-7373631D02*
X15518138Y-7453631D01*
X15518138Y-7373631D02*
X15438138Y-7453631D01*
X15518138Y-7413631D02*
G75*
G03*
X15518138Y-7413631I-40000J0D01*
G01*
X15438138Y-7627631D02*
X15518138Y-7707631D01*
X15518138Y-7627631D02*
X15438138Y-7707631D01*
X15518138Y-7667631D02*
G75*
G03*
X15518138Y-7667631I-40000J0D01*
G01*
X15438138Y-7881631D02*
X15518138Y-7961631D01*
X15518138Y-7881631D02*
X15438138Y-7961631D01*
X15518138Y-7921631D02*
G75*
G03*
X15518138Y-7921631I-40000J0D01*
G01*
X15438138Y-8135631D02*
X15518138Y-8215631D01*
X15518138Y-8135631D02*
X15438138Y-8215631D01*
X15518138Y-8175631D02*
G75*
G03*
X15518138Y-8175631I-40000J0D01*
G01*
X15438138Y-8389631D02*
X15518138Y-8469631D01*
X15518138Y-8389631D02*
X15438138Y-8469631D01*
X15518138Y-8429631D02*
G75*
G03*
X15518138Y-8429631I-40000J0D01*
G01*
X15438138Y-8643631D02*
X15518138Y-8723631D01*
X15518138Y-8643631D02*
X15438138Y-8723631D01*
X15518138Y-8683631D02*
G75*
G03*
X15518138Y-8683631I-40000J0D01*
G01*
X15438138Y-8897631D02*
X15518138Y-8977631D01*
X15518138Y-8897631D02*
X15438138Y-8977631D01*
X15518138Y-8937631D02*
G75*
G03*
X15518138Y-8937631I-40000J0D01*
G01*
X15438138Y-9151631D02*
X15518138Y-9231631D01*
X15518138Y-9151631D02*
X15438138Y-9231631D01*
X15518138Y-9191631D02*
G75*
G03*
X15518138Y-9191631I-40000J0D01*
G01*
X15438138Y-9405631D02*
X15518138Y-9485631D01*
X15518138Y-9405631D02*
X15438138Y-9485631D01*
X15518138Y-9445631D02*
G75*
G03*
X15518138Y-9445631I-40000J0D01*
G01*
X15438138Y-9659631D02*
X15518138Y-9739631D01*
X15518138Y-9659631D02*
X15438138Y-9739631D01*
X15518138Y-9699631D02*
G75*
G03*
X15518138Y-9699631I-40000J0D01*
G01*
X15438138Y-9913631D02*
X15518138Y-9993631D01*
X15518138Y-9913631D02*
X15438138Y-9993631D01*
X15518138Y-9953631D02*
G75*
G03*
X15518138Y-9953631I-40000J0D01*
G01*
X15438138Y-10167631D02*
X15518138Y-10247631D01*
X15518138Y-10167631D02*
X15438138Y-10247631D01*
X15518138Y-10207631D02*
G75*
G03*
X15518138Y-10207631I-40000J0D01*
G01*
X15450045Y-11806729D02*
X15530045Y-11886729D01*
X15530045Y-11806729D02*
X15450045Y-11886729D01*
X15530045Y-11846729D02*
G75*
G03*
X15530045Y-11846729I-40000J0D01*
G01*
X15450045Y-12104385D02*
X15530045Y-12184385D01*
X15530045Y-12104385D02*
X15450045Y-12184385D01*
X15530045Y-12144385D02*
G75*
G03*
X15530045Y-12144385I-40000J0D01*
G01*
X15533451Y-12640167D02*
X15613451Y-12720167D01*
X15613451Y-12640167D02*
X15533451Y-12720167D01*
X15613451Y-12680167D02*
G75*
G03*
X15613451Y-12680167I-40000J0D01*
G01*
X15533451Y-12937823D02*
X15613451Y-13017823D01*
X15613451Y-12937823D02*
X15533451Y-13017823D01*
X15613451Y-12977823D02*
G75*
G03*
X15613451Y-12977823I-40000J0D01*
G01*
X15676263Y-13652199D02*
X15756263Y-13732199D01*
X15756263Y-13652199D02*
X15676263Y-13732199D01*
X15756263Y-13692199D02*
G75*
G03*
X15756263Y-13692199I-40000J0D01*
G01*
X15676263Y-14414199D02*
X15756263Y-14494199D01*
X15756263Y-14414199D02*
X15676263Y-14494199D01*
X15756263Y-14454199D02*
G75*
G03*
X15756263Y-14454199I-40000J0D01*
G01*
X15973920Y-13414074D02*
X16053920Y-13494074D01*
X16053920Y-13414074D02*
X15973920Y-13494074D01*
X16053920Y-13454074D02*
G75*
G03*
X16053920Y-13454074I-40000J0D01*
G01*
X15973920Y-14176074D02*
X16053920Y-14256074D01*
X16053920Y-14176074D02*
X15973920Y-14256074D01*
X16053920Y-14216074D02*
G75*
G03*
X16053920Y-14216074I-40000J0D01*
G01*
X16033451Y-12640167D02*
X16113451Y-12720167D01*
X16113451Y-12640167D02*
X16033451Y-12720167D01*
X16113451Y-12680167D02*
G75*
G03*
X16113451Y-12680167I-40000J0D01*
G01*
X16033451Y-12937823D02*
X16113451Y-13017823D01*
X16113451Y-12937823D02*
X16033451Y-13017823D01*
X16113451Y-12977823D02*
G75*
G03*
X16113451Y-12977823I-40000J0D01*
G01*
X16200138Y-6865631D02*
X16280138Y-6945631D01*
X16280138Y-6865631D02*
X16200138Y-6945631D01*
X16280138Y-6905631D02*
G75*
G03*
X16280138Y-6905631I-40000J0D01*
G01*
X16200138Y-7119631D02*
X16280138Y-7199631D01*
X16280138Y-7119631D02*
X16200138Y-7199631D01*
X16280138Y-7159631D02*
G75*
G03*
X16280138Y-7159631I-40000J0D01*
G01*
X16200138Y-7373631D02*
X16280138Y-7453631D01*
X16280138Y-7373631D02*
X16200138Y-7453631D01*
X16280138Y-7413631D02*
G75*
G03*
X16280138Y-7413631I-40000J0D01*
G01*
X16200138Y-7627631D02*
X16280138Y-7707631D01*
X16280138Y-7627631D02*
X16200138Y-7707631D01*
X16280138Y-7667631D02*
G75*
G03*
X16280138Y-7667631I-40000J0D01*
G01*
X16200138Y-7881631D02*
X16280138Y-7961631D01*
X16280138Y-7881631D02*
X16200138Y-7961631D01*
X16280138Y-7921631D02*
G75*
G03*
X16280138Y-7921631I-40000J0D01*
G01*
X16200138Y-8135631D02*
X16280138Y-8215631D01*
X16280138Y-8135631D02*
X16200138Y-8215631D01*
X16280138Y-8175631D02*
G75*
G03*
X16280138Y-8175631I-40000J0D01*
G01*
X16200138Y-8389631D02*
X16280138Y-8469631D01*
X16280138Y-8389631D02*
X16200138Y-8469631D01*
X16280138Y-8429631D02*
G75*
G03*
X16280138Y-8429631I-40000J0D01*
G01*
X16200138Y-8643631D02*
X16280138Y-8723631D01*
X16280138Y-8643631D02*
X16200138Y-8723631D01*
X16280138Y-8683631D02*
G75*
G03*
X16280138Y-8683631I-40000J0D01*
G01*
X16200138Y-8897631D02*
X16280138Y-8977631D01*
X16280138Y-8897631D02*
X16200138Y-8977631D01*
X16280138Y-8937631D02*
G75*
G03*
X16280138Y-8937631I-40000J0D01*
G01*
X16200138Y-9151631D02*
X16280138Y-9231631D01*
X16280138Y-9151631D02*
X16200138Y-9231631D01*
X16280138Y-9191631D02*
G75*
G03*
X16280138Y-9191631I-40000J0D01*
G01*
X16200138Y-9405631D02*
X16280138Y-9485631D01*
X16280138Y-9405631D02*
X16200138Y-9485631D01*
X16280138Y-9445631D02*
G75*
G03*
X16280138Y-9445631I-40000J0D01*
G01*
X16200138Y-9659631D02*
X16280138Y-9739631D01*
X16280138Y-9659631D02*
X16200138Y-9739631D01*
X16280138Y-9699631D02*
G75*
G03*
X16280138Y-9699631I-40000J0D01*
G01*
X16200138Y-9913631D02*
X16280138Y-9993631D01*
X16280138Y-9913631D02*
X16200138Y-9993631D01*
X16280138Y-9953631D02*
G75*
G03*
X16280138Y-9953631I-40000J0D01*
G01*
X16200138Y-10167631D02*
X16280138Y-10247631D01*
X16280138Y-10167631D02*
X16200138Y-10247631D01*
X16280138Y-10207631D02*
G75*
G03*
X16280138Y-10207631I-40000J0D01*
G01*
X16212045Y-11806729D02*
X16292045Y-11886729D01*
X16292045Y-11806729D02*
X16212045Y-11886729D01*
X16292045Y-11846729D02*
G75*
G03*
X16292045Y-11846729I-40000J0D01*
G01*
X16212045Y-12104385D02*
X16292045Y-12184385D01*
X16292045Y-12104385D02*
X16212045Y-12184385D01*
X16292045Y-12144385D02*
G75*
G03*
X16292045Y-12144385I-40000J0D01*
G01*
X16271576Y-13652199D02*
X16351576Y-13732199D01*
X16351576Y-13652199D02*
X16271576Y-13732199D01*
X16351576Y-13692199D02*
G75*
G03*
X16351576Y-13692199I-40000J0D01*
G01*
X16271576Y-14414199D02*
X16351576Y-14494199D01*
X16351576Y-14414199D02*
X16271576Y-14494199D01*
X16351576Y-14454199D02*
G75*
G03*
X16351576Y-14454199I-40000J0D01*
G01*
X16569233Y-13414074D02*
X16649233Y-13494074D01*
X16649233Y-13414074D02*
X16569233Y-13494074D01*
X16649233Y-13454074D02*
G75*
G03*
X16649233Y-13454074I-40000J0D01*
G01*
X16569233Y-14176074D02*
X16649233Y-14256074D01*
X16649233Y-14176074D02*
X16569233Y-14256074D01*
X16649233Y-14216074D02*
G75*
G03*
X16649233Y-14216074I-40000J0D01*
G01*
X16807358Y-6448912D02*
X16887358Y-6528912D01*
X16887358Y-6448912D02*
X16807358Y-6528912D01*
X16887358Y-6488912D02*
G75*
G03*
X16887358Y-6488912I-40000J0D01*
G01*
X16807358Y-7044225D02*
X16887358Y-7124225D01*
X16887358Y-7044225D02*
X16807358Y-7124225D01*
X16887358Y-7084225D02*
G75*
G03*
X16887358Y-7084225I-40000J0D01*
G01*
X16807358Y-7639538D02*
X16887358Y-7719538D01*
X16887358Y-7639538D02*
X16807358Y-7719538D01*
X16887358Y-7679538D02*
G75*
G03*
X16887358Y-7679538I-40000J0D01*
G01*
X16807358Y-8234851D02*
X16887358Y-8314851D01*
X16887358Y-8234851D02*
X16807358Y-8314851D01*
X16887358Y-8274851D02*
G75*
G03*
X16887358Y-8274851I-40000J0D01*
G01*
X16807358Y-8830164D02*
X16887358Y-8910164D01*
X16887358Y-8830164D02*
X16807358Y-8910164D01*
X16887358Y-8870164D02*
G75*
G03*
X16887358Y-8870164I-40000J0D01*
G01*
X16807358Y-9425477D02*
X16887358Y-9505477D01*
X16887358Y-9425477D02*
X16807358Y-9505477D01*
X16887358Y-9465477D02*
G75*
G03*
X16887358Y-9465477I-40000J0D01*
G01*
X16807358Y-10020790D02*
X16887358Y-10100790D01*
X16887358Y-10020790D02*
X16807358Y-10100790D01*
X16887358Y-10060790D02*
G75*
G03*
X16887358Y-10060790I-40000J0D01*
G01*
X16807358Y-10616103D02*
X16887358Y-10696103D01*
X16887358Y-10616103D02*
X16807358Y-10696103D01*
X16887358Y-10656103D02*
G75*
G03*
X16887358Y-10656103I-40000J0D01*
G01*
X16807358Y-11211416D02*
X16887358Y-11291416D01*
X16887358Y-11211416D02*
X16807358Y-11291416D01*
X16887358Y-11251416D02*
G75*
G03*
X16887358Y-11251416I-40000J0D01*
G01*
X16807358Y-11806729D02*
X16887358Y-11886729D01*
X16887358Y-11806729D02*
X16807358Y-11886729D01*
X16887358Y-11846729D02*
G75*
G03*
X16887358Y-11846729I-40000J0D01*
G01*
X16807358Y-12402042D02*
X16887358Y-12482042D01*
X16887358Y-12402042D02*
X16807358Y-12482042D01*
X16887358Y-12442042D02*
G75*
G03*
X16887358Y-12442042I-40000J0D01*
G01*
X16807358Y-12997355D02*
X16887358Y-13077355D01*
X16887358Y-12997355D02*
X16807358Y-13077355D01*
X16887358Y-13037355D02*
G75*
G03*
X16887358Y-13037355I-40000J0D01*
G01*
X16866889Y-13652199D02*
X16946889Y-13732199D01*
X16946889Y-13652199D02*
X16866889Y-13732199D01*
X16946889Y-13692199D02*
G75*
G03*
X16946889Y-13692199I-40000J0D01*
G01*
X16866889Y-14414199D02*
X16946889Y-14494199D01*
X16946889Y-14414199D02*
X16866889Y-14494199D01*
X16946889Y-14454199D02*
G75*
G03*
X16946889Y-14454199I-40000J0D01*
G01*
X17045483Y-6746568D02*
X17125483Y-6826568D01*
X17125483Y-6746568D02*
X17045483Y-6826568D01*
X17125483Y-6786568D02*
G75*
G03*
X17125483Y-6786568I-40000J0D01*
G01*
X17045483Y-7341881D02*
X17125483Y-7421881D01*
X17125483Y-7341881D02*
X17045483Y-7421881D01*
X17125483Y-7381881D02*
G75*
G03*
X17125483Y-7381881I-40000J0D01*
G01*
X17045483Y-7937194D02*
X17125483Y-8017194D01*
X17125483Y-7937194D02*
X17045483Y-8017194D01*
X17125483Y-7977194D02*
G75*
G03*
X17125483Y-7977194I-40000J0D01*
G01*
X17045483Y-8532507D02*
X17125483Y-8612507D01*
X17125483Y-8532507D02*
X17045483Y-8612507D01*
X17125483Y-8572507D02*
G75*
G03*
X17125483Y-8572507I-40000J0D01*
G01*
X17045483Y-9127820D02*
X17125483Y-9207820D01*
X17125483Y-9127820D02*
X17045483Y-9207820D01*
X17125483Y-9167820D02*
G75*
G03*
X17125483Y-9167820I-40000J0D01*
G01*
X17045483Y-9723133D02*
X17125483Y-9803133D01*
X17125483Y-9723133D02*
X17045483Y-9803133D01*
X17125483Y-9763133D02*
G75*
G03*
X17125483Y-9763133I-40000J0D01*
G01*
X17045483Y-10318446D02*
X17125483Y-10398446D01*
X17125483Y-10318446D02*
X17045483Y-10398446D01*
X17125483Y-10358446D02*
G75*
G03*
X17125483Y-10358446I-40000J0D01*
G01*
X17045483Y-10913759D02*
X17125483Y-10993759D01*
X17125483Y-10913759D02*
X17045483Y-10993759D01*
X17125483Y-10953759D02*
G75*
G03*
X17125483Y-10953759I-40000J0D01*
G01*
X17045483Y-11509072D02*
X17125483Y-11589072D01*
X17125483Y-11509072D02*
X17045483Y-11589072D01*
X17125483Y-11549072D02*
G75*
G03*
X17125483Y-11549072I-40000J0D01*
G01*
X17045483Y-12104385D02*
X17125483Y-12184385D01*
X17125483Y-12104385D02*
X17045483Y-12184385D01*
X17125483Y-12144385D02*
G75*
G03*
X17125483Y-12144385I-40000J0D01*
G01*
X17045483Y-12699698D02*
X17125483Y-12779698D01*
X17125483Y-12699698D02*
X17045483Y-12779698D01*
X17125483Y-12739698D02*
G75*
G03*
X17125483Y-12739698I-40000J0D01*
G01*
X17045483Y-13295011D02*
X17125483Y-13375011D01*
X17125483Y-13295011D02*
X17045483Y-13375011D01*
X17125483Y-13335011D02*
G75*
G03*
X17125483Y-13335011I-40000J0D01*
G01*
X17569358Y-6448912D02*
X17649358Y-6528912D01*
X17649358Y-6448912D02*
X17569358Y-6528912D01*
X17649358Y-6488912D02*
G75*
G03*
X17649358Y-6488912I-40000J0D01*
G01*
X17569358Y-7044225D02*
X17649358Y-7124225D01*
X17649358Y-7044225D02*
X17569358Y-7124225D01*
X17649358Y-7084225D02*
G75*
G03*
X17649358Y-7084225I-40000J0D01*
G01*
X17569358Y-7639538D02*
X17649358Y-7719538D01*
X17649358Y-7639538D02*
X17569358Y-7719538D01*
X17649358Y-7679538D02*
G75*
G03*
X17649358Y-7679538I-40000J0D01*
G01*
X17569358Y-8234851D02*
X17649358Y-8314851D01*
X17649358Y-8234851D02*
X17569358Y-8314851D01*
X17649358Y-8274851D02*
G75*
G03*
X17649358Y-8274851I-40000J0D01*
G01*
X17569358Y-8830164D02*
X17649358Y-8910164D01*
X17649358Y-8830164D02*
X17569358Y-8910164D01*
X17649358Y-8870164D02*
G75*
G03*
X17649358Y-8870164I-40000J0D01*
G01*
X17569358Y-9425477D02*
X17649358Y-9505477D01*
X17649358Y-9425477D02*
X17569358Y-9505477D01*
X17649358Y-9465477D02*
G75*
G03*
X17649358Y-9465477I-40000J0D01*
G01*
X17569358Y-10020790D02*
X17649358Y-10100790D01*
X17649358Y-10020790D02*
X17569358Y-10100790D01*
X17649358Y-10060790D02*
G75*
G03*
X17649358Y-10060790I-40000J0D01*
G01*
X17569358Y-10616103D02*
X17649358Y-10696103D01*
X17649358Y-10616103D02*
X17569358Y-10696103D01*
X17649358Y-10656103D02*
G75*
G03*
X17649358Y-10656103I-40000J0D01*
G01*
X17569358Y-11211416D02*
X17649358Y-11291416D01*
X17649358Y-11211416D02*
X17569358Y-11291416D01*
X17649358Y-11251416D02*
G75*
G03*
X17649358Y-11251416I-40000J0D01*
G01*
X17569358Y-11806729D02*
X17649358Y-11886729D01*
X17649358Y-11806729D02*
X17569358Y-11886729D01*
X17649358Y-11846729D02*
G75*
G03*
X17649358Y-11846729I-40000J0D01*
G01*
X17569358Y-12402042D02*
X17649358Y-12482042D01*
X17649358Y-12402042D02*
X17569358Y-12482042D01*
X17649358Y-12442042D02*
G75*
G03*
X17649358Y-12442042I-40000J0D01*
G01*
X17569358Y-12997355D02*
X17649358Y-13077355D01*
X17649358Y-12997355D02*
X17569358Y-13077355D01*
X17649358Y-13037355D02*
G75*
G03*
X17649358Y-13037355I-40000J0D01*
G01*
X17807483Y-6746568D02*
X17887483Y-6826568D01*
X17887483Y-6746568D02*
X17807483Y-6826568D01*
X17887483Y-6786568D02*
G75*
G03*
X17887483Y-6786568I-40000J0D01*
G01*
X17807483Y-7341881D02*
X17887483Y-7421881D01*
X17887483Y-7341881D02*
X17807483Y-7421881D01*
X17887483Y-7381881D02*
G75*
G03*
X17887483Y-7381881I-40000J0D01*
G01*
X17807483Y-7937194D02*
X17887483Y-8017194D01*
X17887483Y-7937194D02*
X17807483Y-8017194D01*
X17887483Y-7977194D02*
G75*
G03*
X17887483Y-7977194I-40000J0D01*
G01*
X17807483Y-8532507D02*
X17887483Y-8612507D01*
X17887483Y-8532507D02*
X17807483Y-8612507D01*
X17887483Y-8572507D02*
G75*
G03*
X17887483Y-8572507I-40000J0D01*
G01*
X17807483Y-9127820D02*
X17887483Y-9207820D01*
X17887483Y-9127820D02*
X17807483Y-9207820D01*
X17887483Y-9167820D02*
G75*
G03*
X17887483Y-9167820I-40000J0D01*
G01*
X17807483Y-9723133D02*
X17887483Y-9803133D01*
X17887483Y-9723133D02*
X17807483Y-9803133D01*
X17887483Y-9763133D02*
G75*
G03*
X17887483Y-9763133I-40000J0D01*
G01*
X17807483Y-10318446D02*
X17887483Y-10398446D01*
X17887483Y-10318446D02*
X17807483Y-10398446D01*
X17887483Y-10358446D02*
G75*
G03*
X17887483Y-10358446I-40000J0D01*
G01*
X17807483Y-10913759D02*
X17887483Y-10993759D01*
X17887483Y-10913759D02*
X17807483Y-10993759D01*
X17887483Y-10953759D02*
G75*
G03*
X17887483Y-10953759I-40000J0D01*
G01*
X17807483Y-11509072D02*
X17887483Y-11589072D01*
X17887483Y-11509072D02*
X17807483Y-11589072D01*
X17887483Y-11549072D02*
G75*
G03*
X17887483Y-11549072I-40000J0D01*
G01*
X17807483Y-12104385D02*
X17887483Y-12184385D01*
X17887483Y-12104385D02*
X17807483Y-12184385D01*
X17887483Y-12144385D02*
G75*
G03*
X17887483Y-12144385I-40000J0D01*
G01*
X17807483Y-12699698D02*
X17887483Y-12779698D01*
X17887483Y-12699698D02*
X17807483Y-12779698D01*
X17887483Y-12739698D02*
G75*
G03*
X17887483Y-12739698I-40000J0D01*
G01*
X17807483Y-13295011D02*
X17887483Y-13375011D01*
X17887483Y-13295011D02*
X17807483Y-13375011D01*
X17887483Y-13335011D02*
G75*
G03*
X17887483Y-13335011I-40000J0D01*
G01*
X14480637Y-6324849D02*
X14570637Y-6414849D01*
X14570637Y-6324849D02*
X14480637Y-6414849D01*
X14525637Y-6324849D02*
X14525637Y-6414849D01*
X14480637Y-6369849D02*
X14570637Y-6369849D01*
X14734637Y-6324849D02*
X14824637Y-6414849D01*
X14824637Y-6324849D02*
X14734637Y-6414849D01*
X14779637Y-6324849D02*
X14779637Y-6414849D01*
X14734637Y-6369849D02*
X14824637Y-6369849D01*
X15655388Y-6324849D02*
X15745388Y-6414849D01*
X15745388Y-6324849D02*
X15655388Y-6414849D01*
X15700388Y-6324849D02*
X15700388Y-6414849D01*
X15655388Y-6369849D02*
X15745388Y-6369849D01*
X15909388Y-6324849D02*
X15999388Y-6414849D01*
X15999388Y-6324849D02*
X15909388Y-6414849D01*
X15954388Y-6324849D02*
X15954388Y-6414849D01*
X15909388Y-6369849D02*
X15999388Y-6369849D01*
X14356575Y-7970851D02*
X14456575Y-8070851D01*
X14456575Y-7970851D02*
X14356575Y-8070851D01*
X14441930Y-8056206D02*
X14441930Y-7985495D01*
X14371219Y-7985495D01*
X14371219Y-8056206D01*
X14441930Y-8056206D01*
X14356575Y-8224851D02*
X14456575Y-8324851D01*
X14456575Y-8224851D02*
X14356575Y-8324851D01*
X14441930Y-8310206D02*
X14441930Y-8239495D01*
X14371219Y-8239495D01*
X14371219Y-8310206D01*
X14441930Y-8310206D01*
X14610575Y-7970851D02*
X14710575Y-8070851D01*
X14710575Y-7970851D02*
X14610575Y-8070851D01*
X14695930Y-8056206D02*
X14695930Y-7985495D01*
X14625219Y-7985495D01*
X14625219Y-8056206D01*
X14695930Y-8056206D01*
X14610575Y-8224851D02*
X14710575Y-8324851D01*
X14710575Y-8224851D02*
X14610575Y-8324851D01*
X14695930Y-8310206D02*
X14695930Y-8239495D01*
X14625219Y-8239495D01*
X14625219Y-8310206D01*
X14695930Y-8310206D01*
X14864575Y-7970851D02*
X14964575Y-8070851D01*
X14964575Y-7970851D02*
X14864575Y-8070851D01*
X14949930Y-8056206D02*
X14949930Y-7985495D01*
X14879219Y-7985495D01*
X14879219Y-8056206D01*
X14949930Y-8056206D01*
X14864575Y-8224851D02*
X14964575Y-8324851D01*
X14964575Y-8224851D02*
X14864575Y-8324851D01*
X14949930Y-8310206D02*
X14949930Y-8239495D01*
X14879219Y-8239495D01*
X14879219Y-8310206D01*
X14949930Y-8310206D01*
X14351575Y-6855475D02*
X14461575Y-6965475D01*
X14461575Y-6855475D02*
X14351575Y-6965475D01*
X14406575Y-6965475D02*
X14461575Y-6910475D01*
X14406575Y-6855475D01*
X14351575Y-6910475D01*
X14406575Y-6965475D01*
X14351575Y-7505475D02*
X14461575Y-7615475D01*
X14461575Y-7505475D02*
X14351575Y-7615475D01*
X14406575Y-7615475D02*
X14461575Y-7560475D01*
X14406575Y-7505475D01*
X14351575Y-7560475D01*
X14406575Y-7615475D01*
X14351575Y-10010634D02*
X14461575Y-10120634D01*
X14461575Y-10010634D02*
X14351575Y-10120634D01*
X14406575Y-10120634D02*
X14461575Y-10065634D01*
X14406575Y-10010634D01*
X14351575Y-10065634D01*
X14406575Y-10120634D01*
X14351575Y-10660634D02*
X14461575Y-10770634D01*
X14461575Y-10660634D02*
X14351575Y-10770634D01*
X14406575Y-10770634D02*
X14461575Y-10715634D01*
X14406575Y-10660634D01*
X14351575Y-10715634D01*
X14406575Y-10770634D01*
X14801575Y-6855475D02*
X14911575Y-6965475D01*
X14911575Y-6855475D02*
X14801575Y-6965475D01*
X14856575Y-6965475D02*
X14911575Y-6910475D01*
X14856575Y-6855475D01*
X14801575Y-6910475D01*
X14856575Y-6965475D01*
X14801575Y-7505475D02*
X14911575Y-7615475D01*
X14911575Y-7505475D02*
X14801575Y-7615475D01*
X14856575Y-7615475D02*
X14911575Y-7560475D01*
X14856575Y-7505475D01*
X14801575Y-7560475D01*
X14856575Y-7615475D01*
X14801575Y-10010634D02*
X14911575Y-10120634D01*
X14911575Y-10010634D02*
X14801575Y-10120634D01*
X14856575Y-10120634D02*
X14911575Y-10065634D01*
X14856575Y-10010634D01*
X14801575Y-10065634D01*
X14856575Y-10120634D01*
X14801575Y-10660634D02*
X14911575Y-10770634D01*
X14911575Y-10660634D02*
X14801575Y-10770634D01*
X14856575Y-10770634D02*
X14911575Y-10715634D01*
X14856575Y-10660634D01*
X14801575Y-10715634D01*
X14856575Y-10770634D01*
D12*
X1281428Y-15425089D02*
X1281428Y-15125089D01*
X1352857Y-15125089D01*
X1395714Y-15139375D01*
X1424286Y-15167946D01*
X1438571Y-15196518D01*
X1452857Y-15253661D01*
X1452857Y-15296518D01*
X1438571Y-15353661D01*
X1424286Y-15382232D01*
X1395714Y-15410804D01*
X1352857Y-15425089D01*
X1281428Y-15425089D01*
X1581428Y-15425089D02*
X1581428Y-15225089D01*
X1581428Y-15282232D02*
X1595714Y-15253661D01*
X1610000Y-15239375D01*
X1638571Y-15225089D01*
X1667143Y-15225089D01*
X1767143Y-15425089D02*
X1767143Y-15225089D01*
X1767143Y-15125089D02*
X1752857Y-15139375D01*
X1767143Y-15153661D01*
X1781428Y-15139375D01*
X1767143Y-15125089D01*
X1767143Y-15153661D01*
X1952857Y-15425089D02*
X1924286Y-15410804D01*
X1910000Y-15382232D01*
X1910000Y-15125089D01*
X2110000Y-15425089D02*
X2081428Y-15410804D01*
X2067143Y-15382232D01*
X2067143Y-15125089D01*
X2452857Y-15425089D02*
X2452857Y-15125089D01*
X2552857Y-15339375D01*
X2652857Y-15125089D01*
X2652857Y-15425089D01*
X2924286Y-15425089D02*
X2924286Y-15267946D01*
X2910000Y-15239375D01*
X2881428Y-15225089D01*
X2824286Y-15225089D01*
X2795714Y-15239375D01*
X2924286Y-15410804D02*
X2895714Y-15425089D01*
X2824286Y-15425089D01*
X2795714Y-15410804D01*
X2781428Y-15382232D01*
X2781428Y-15353661D01*
X2795714Y-15325089D01*
X2824286Y-15310804D01*
X2895714Y-15310804D01*
X2924286Y-15296518D01*
X3067143Y-15225089D02*
X3067143Y-15525089D01*
X3067143Y-15239375D02*
X3095714Y-15225089D01*
X3152857Y-15225089D01*
X3181428Y-15239375D01*
X3195714Y-15253661D01*
X3210000Y-15282232D01*
X3210000Y-15367946D01*
X3195714Y-15396518D01*
X3181428Y-15410804D01*
X3152857Y-15425089D01*
X3095714Y-15425089D01*
X3067143Y-15410804D01*
X3338571Y-15396518D02*
X3352857Y-15410804D01*
X3338571Y-15425089D01*
X3324286Y-15410804D01*
X3338571Y-15396518D01*
X3338571Y-15425089D01*
X3338571Y-15239375D02*
X3352857Y-15253661D01*
X3338571Y-15267946D01*
X3324286Y-15253661D01*
X3338571Y-15239375D01*
X3338571Y-15267946D01*
X955000Y-15899375D02*
X995000Y-15939375D01*
X995000Y-15899375D02*
X955000Y-15939375D01*
X1338571Y-15755089D02*
X1367143Y-15755089D01*
X1395714Y-15769375D01*
X1410000Y-15783661D01*
X1424286Y-15812232D01*
X1438571Y-15869375D01*
X1438571Y-15940804D01*
X1424286Y-15997946D01*
X1410000Y-16026518D01*
X1395714Y-16040804D01*
X1367143Y-16055089D01*
X1338571Y-16055089D01*
X1310000Y-16040804D01*
X1295714Y-16026518D01*
X1281428Y-15997946D01*
X1267143Y-15940804D01*
X1267143Y-15869375D01*
X1281428Y-15812232D01*
X1295714Y-15783661D01*
X1310000Y-15769375D01*
X1338571Y-15755089D01*
X1567143Y-16026518D02*
X1581428Y-16040804D01*
X1567143Y-16055089D01*
X1552857Y-16040804D01*
X1567143Y-16026518D01*
X1567143Y-16055089D01*
X1838571Y-15855089D02*
X1838571Y-16055089D01*
X1767143Y-15740804D02*
X1695714Y-15955089D01*
X1881428Y-15955089D01*
X2052857Y-15755089D02*
X2081428Y-15755089D01*
X2110000Y-15769375D01*
X2124286Y-15783661D01*
X2138571Y-15812232D01*
X2152857Y-15869375D01*
X2152857Y-15940804D01*
X2138571Y-15997946D01*
X2124286Y-16026518D01*
X2110000Y-16040804D01*
X2081428Y-16055089D01*
X2052857Y-16055089D01*
X2024286Y-16040804D01*
X2010000Y-16026518D01*
X1995714Y-15997946D01*
X1981428Y-15940804D01*
X1981428Y-15869375D01*
X1995714Y-15812232D01*
X2010000Y-15783661D01*
X2024286Y-15769375D01*
X2052857Y-15755089D01*
X2338571Y-15755089D02*
X2367143Y-15755089D01*
X2395714Y-15769375D01*
X2410000Y-15783661D01*
X2424286Y-15812232D01*
X2438571Y-15869375D01*
X2438571Y-15940804D01*
X2424286Y-15997946D01*
X2410000Y-16026518D01*
X2395714Y-16040804D01*
X2367143Y-16055089D01*
X2338571Y-16055089D01*
X2310000Y-16040804D01*
X2295714Y-16026518D01*
X2281428Y-15997946D01*
X2267143Y-15940804D01*
X2267143Y-15869375D01*
X2281428Y-15812232D01*
X2295714Y-15783661D01*
X2310000Y-15769375D01*
X2338571Y-15755089D01*
X2567143Y-16055089D02*
X2567143Y-15855089D01*
X2567143Y-15883661D02*
X2581428Y-15869375D01*
X2610000Y-15855089D01*
X2652857Y-15855089D01*
X2681428Y-15869375D01*
X2695714Y-15897946D01*
X2695714Y-16055089D01*
X2695714Y-15897946D02*
X2710000Y-15869375D01*
X2738571Y-15855089D01*
X2781428Y-15855089D01*
X2810000Y-15869375D01*
X2824286Y-15897946D01*
X2824286Y-16055089D01*
X2967143Y-16055089D02*
X2967143Y-15855089D01*
X2967143Y-15883661D02*
X2981428Y-15869375D01*
X3010000Y-15855089D01*
X3052857Y-15855089D01*
X3081428Y-15869375D01*
X3095714Y-15897946D01*
X3095714Y-16055089D01*
X3095714Y-15897946D02*
X3110000Y-15869375D01*
X3138571Y-15855089D01*
X3181428Y-15855089D01*
X3210000Y-15869375D01*
X3224286Y-15897946D01*
X3224286Y-16055089D01*
X3810000Y-15740804D02*
X3552857Y-16126518D01*
X4195714Y-15755089D02*
X4224286Y-15755089D01*
X4252857Y-15769375D01*
X4267143Y-15783661D01*
X4281428Y-15812232D01*
X4295714Y-15869375D01*
X4295714Y-15940804D01*
X4281428Y-15997946D01*
X4267143Y-16026518D01*
X4252857Y-16040804D01*
X4224286Y-16055089D01*
X4195714Y-16055089D01*
X4167143Y-16040804D01*
X4152857Y-16026518D01*
X4138571Y-15997946D01*
X4124286Y-15940804D01*
X4124286Y-15869375D01*
X4138571Y-15812232D01*
X4152857Y-15783661D01*
X4167143Y-15769375D01*
X4195714Y-15755089D01*
X4424286Y-16026518D02*
X4438571Y-16040804D01*
X4424286Y-16055089D01*
X4410000Y-16040804D01*
X4424286Y-16026518D01*
X4424286Y-16055089D01*
X4624286Y-15755089D02*
X4652857Y-15755089D01*
X4681428Y-15769375D01*
X4695714Y-15783661D01*
X4710000Y-15812232D01*
X4724286Y-15869375D01*
X4724286Y-15940804D01*
X4710000Y-15997946D01*
X4695714Y-16026518D01*
X4681428Y-16040804D01*
X4652857Y-16055089D01*
X4624286Y-16055089D01*
X4595714Y-16040804D01*
X4581428Y-16026518D01*
X4567143Y-15997946D01*
X4552857Y-15940804D01*
X4552857Y-15869375D01*
X4567143Y-15812232D01*
X4581428Y-15783661D01*
X4595714Y-15769375D01*
X4624286Y-15755089D01*
X5010000Y-16055089D02*
X4838571Y-16055089D01*
X4924286Y-16055089D02*
X4924286Y-15755089D01*
X4895714Y-15797946D01*
X4867143Y-15826518D01*
X4838571Y-15840804D01*
X5281428Y-15755089D02*
X5138571Y-15755089D01*
X5124286Y-15897946D01*
X5138571Y-15883661D01*
X5167143Y-15869375D01*
X5238571Y-15869375D01*
X5267143Y-15883661D01*
X5281428Y-15897946D01*
X5295714Y-15926518D01*
X5295714Y-15997946D01*
X5281428Y-16026518D01*
X5267143Y-16040804D01*
X5238571Y-16055089D01*
X5167143Y-16055089D01*
X5138571Y-16040804D01*
X5124286Y-16026518D01*
X5395714Y-15755089D02*
X5595714Y-15755089D01*
X5467143Y-16055089D01*
X5695714Y-15755089D02*
X5695714Y-15812232D01*
X5810000Y-15755089D02*
X5810000Y-15812232D01*
X6252857Y-16169375D02*
X6238571Y-16155089D01*
X6210000Y-16112232D01*
X6195714Y-16083661D01*
X6181428Y-16040804D01*
X6167143Y-15969375D01*
X6167143Y-15912232D01*
X6181428Y-15840804D01*
X6195714Y-15797946D01*
X6210000Y-15769375D01*
X6238571Y-15726518D01*
X6252857Y-15712232D01*
X6338571Y-15755089D02*
X6538571Y-15755089D01*
X6410000Y-16055089D01*
X6667143Y-16055089D02*
X6724286Y-16055089D01*
X6752857Y-16040804D01*
X6767143Y-16026518D01*
X6795714Y-15983661D01*
X6810000Y-15926518D01*
X6810000Y-15812232D01*
X6795714Y-15783661D01*
X6781428Y-15769375D01*
X6752857Y-15755089D01*
X6695714Y-15755089D01*
X6667143Y-15769375D01*
X6652857Y-15783661D01*
X6638571Y-15812232D01*
X6638571Y-15883661D01*
X6652857Y-15912232D01*
X6667143Y-15926518D01*
X6695714Y-15940804D01*
X6752857Y-15940804D01*
X6781428Y-15926518D01*
X6795714Y-15912232D01*
X6810000Y-15883661D01*
X7167143Y-16055089D02*
X7167143Y-15755089D01*
X7295714Y-16055089D02*
X7295714Y-15897946D01*
X7281428Y-15869375D01*
X7252857Y-15855089D01*
X7210000Y-15855089D01*
X7181428Y-15869375D01*
X7167143Y-15883661D01*
X7481428Y-16055089D02*
X7452857Y-16040804D01*
X7438571Y-16026518D01*
X7424286Y-15997946D01*
X7424286Y-15912232D01*
X7438571Y-15883661D01*
X7452857Y-15869375D01*
X7481428Y-15855089D01*
X7524286Y-15855089D01*
X7552857Y-15869375D01*
X7567143Y-15883661D01*
X7581428Y-15912232D01*
X7581428Y-15997946D01*
X7567143Y-16026518D01*
X7552857Y-16040804D01*
X7524286Y-16055089D01*
X7481428Y-16055089D01*
X7752857Y-16055089D02*
X7724286Y-16040804D01*
X7710000Y-16012232D01*
X7710000Y-15755089D01*
X7981428Y-16040804D02*
X7952857Y-16055089D01*
X7895714Y-16055089D01*
X7867143Y-16040804D01*
X7852857Y-16012232D01*
X7852857Y-15897946D01*
X7867143Y-15869375D01*
X7895714Y-15855089D01*
X7952857Y-15855089D01*
X7981428Y-15869375D01*
X7995714Y-15897946D01*
X7995714Y-15926518D01*
X7852857Y-15955089D01*
X8110000Y-16040804D02*
X8138571Y-16055089D01*
X8195714Y-16055089D01*
X8224286Y-16040804D01*
X8238571Y-16012232D01*
X8238571Y-15997946D01*
X8224286Y-15969375D01*
X8195714Y-15955089D01*
X8152857Y-15955089D01*
X8124286Y-15940804D01*
X8110000Y-15912232D01*
X8110000Y-15897946D01*
X8124286Y-15869375D01*
X8152857Y-15855089D01*
X8195714Y-15855089D01*
X8224286Y-15869375D01*
X8338571Y-16169375D02*
X8352857Y-16155089D01*
X8381428Y-16112232D01*
X8395714Y-16083661D01*
X8410000Y-16040804D01*
X8424286Y-15969375D01*
X8424286Y-15912232D01*
X8410000Y-15840804D01*
X8395714Y-15797946D01*
X8381428Y-15769375D01*
X8352857Y-15726518D01*
X8338571Y-15712232D01*
X995000Y-16315375D02*
G75*
G03*
X995000Y-16315375I-30000J0D01*
G01*
X1338571Y-16151089D02*
X1367143Y-16151089D01*
X1395714Y-16165375D01*
X1410000Y-16179661D01*
X1424286Y-16208232D01*
X1438571Y-16265375D01*
X1438571Y-16336804D01*
X1424286Y-16393946D01*
X1410000Y-16422518D01*
X1395714Y-16436804D01*
X1367143Y-16451089D01*
X1338571Y-16451089D01*
X1310000Y-16436804D01*
X1295714Y-16422518D01*
X1281428Y-16393946D01*
X1267143Y-16336804D01*
X1267143Y-16265375D01*
X1281428Y-16208232D01*
X1295714Y-16179661D01*
X1310000Y-16165375D01*
X1338571Y-16151089D01*
X1567143Y-16422518D02*
X1581428Y-16436804D01*
X1567143Y-16451089D01*
X1552857Y-16436804D01*
X1567143Y-16422518D01*
X1567143Y-16451089D01*
X1838571Y-16151089D02*
X1781428Y-16151089D01*
X1752857Y-16165375D01*
X1738571Y-16179661D01*
X1710000Y-16222518D01*
X1695714Y-16279661D01*
X1695714Y-16393946D01*
X1710000Y-16422518D01*
X1724286Y-16436804D01*
X1752857Y-16451089D01*
X1810000Y-16451089D01*
X1838571Y-16436804D01*
X1852857Y-16422518D01*
X1867143Y-16393946D01*
X1867143Y-16322518D01*
X1852857Y-16293946D01*
X1838571Y-16279661D01*
X1810000Y-16265375D01*
X1752857Y-16265375D01*
X1724286Y-16279661D01*
X1710000Y-16293946D01*
X1695714Y-16322518D01*
X2052857Y-16151089D02*
X2081428Y-16151089D01*
X2110000Y-16165375D01*
X2124286Y-16179661D01*
X2138571Y-16208232D01*
X2152857Y-16265375D01*
X2152857Y-16336804D01*
X2138571Y-16393946D01*
X2124286Y-16422518D01*
X2110000Y-16436804D01*
X2081428Y-16451089D01*
X2052857Y-16451089D01*
X2024286Y-16436804D01*
X2010000Y-16422518D01*
X1995714Y-16393946D01*
X1981428Y-16336804D01*
X1981428Y-16265375D01*
X1995714Y-16208232D01*
X2010000Y-16179661D01*
X2024286Y-16165375D01*
X2052857Y-16151089D01*
X2338571Y-16151089D02*
X2367143Y-16151089D01*
X2395714Y-16165375D01*
X2410000Y-16179661D01*
X2424286Y-16208232D01*
X2438571Y-16265375D01*
X2438571Y-16336804D01*
X2424286Y-16393946D01*
X2410000Y-16422518D01*
X2395714Y-16436804D01*
X2367143Y-16451089D01*
X2338571Y-16451089D01*
X2310000Y-16436804D01*
X2295714Y-16422518D01*
X2281428Y-16393946D01*
X2267143Y-16336804D01*
X2267143Y-16265375D01*
X2281428Y-16208232D01*
X2295714Y-16179661D01*
X2310000Y-16165375D01*
X2338571Y-16151089D01*
X2567143Y-16451089D02*
X2567143Y-16251089D01*
X2567143Y-16279661D02*
X2581428Y-16265375D01*
X2610000Y-16251089D01*
X2652857Y-16251089D01*
X2681428Y-16265375D01*
X2695714Y-16293946D01*
X2695714Y-16451089D01*
X2695714Y-16293946D02*
X2710000Y-16265375D01*
X2738571Y-16251089D01*
X2781428Y-16251089D01*
X2810000Y-16265375D01*
X2824286Y-16293946D01*
X2824286Y-16451089D01*
X2967143Y-16451089D02*
X2967143Y-16251089D01*
X2967143Y-16279661D02*
X2981428Y-16265375D01*
X3010000Y-16251089D01*
X3052857Y-16251089D01*
X3081428Y-16265375D01*
X3095714Y-16293946D01*
X3095714Y-16451089D01*
X3095714Y-16293946D02*
X3110000Y-16265375D01*
X3138571Y-16251089D01*
X3181428Y-16251089D01*
X3210000Y-16265375D01*
X3224286Y-16293946D01*
X3224286Y-16451089D01*
X3810000Y-16136804D02*
X3552857Y-16522518D01*
X4195714Y-16151089D02*
X4224286Y-16151089D01*
X4252857Y-16165375D01*
X4267143Y-16179661D01*
X4281428Y-16208232D01*
X4295714Y-16265375D01*
X4295714Y-16336804D01*
X4281428Y-16393946D01*
X4267143Y-16422518D01*
X4252857Y-16436804D01*
X4224286Y-16451089D01*
X4195714Y-16451089D01*
X4167143Y-16436804D01*
X4152857Y-16422518D01*
X4138571Y-16393946D01*
X4124286Y-16336804D01*
X4124286Y-16265375D01*
X4138571Y-16208232D01*
X4152857Y-16179661D01*
X4167143Y-16165375D01*
X4195714Y-16151089D01*
X4424286Y-16422518D02*
X4438571Y-16436804D01*
X4424286Y-16451089D01*
X4410000Y-16436804D01*
X4424286Y-16422518D01*
X4424286Y-16451089D01*
X4624286Y-16151089D02*
X4652857Y-16151089D01*
X4681428Y-16165375D01*
X4695714Y-16179661D01*
X4710000Y-16208232D01*
X4724286Y-16265375D01*
X4724286Y-16336804D01*
X4710000Y-16393946D01*
X4695714Y-16422518D01*
X4681428Y-16436804D01*
X4652857Y-16451089D01*
X4624286Y-16451089D01*
X4595714Y-16436804D01*
X4581428Y-16422518D01*
X4567143Y-16393946D01*
X4552857Y-16336804D01*
X4552857Y-16265375D01*
X4567143Y-16208232D01*
X4581428Y-16179661D01*
X4595714Y-16165375D01*
X4624286Y-16151089D01*
X4838571Y-16179661D02*
X4852857Y-16165375D01*
X4881428Y-16151089D01*
X4952857Y-16151089D01*
X4981428Y-16165375D01*
X4995714Y-16179661D01*
X5010000Y-16208232D01*
X5010000Y-16236804D01*
X4995714Y-16279661D01*
X4824286Y-16451089D01*
X5010000Y-16451089D01*
X5110000Y-16151089D02*
X5295714Y-16151089D01*
X5195714Y-16265375D01*
X5238571Y-16265375D01*
X5267143Y-16279661D01*
X5281428Y-16293946D01*
X5295714Y-16322518D01*
X5295714Y-16393946D01*
X5281428Y-16422518D01*
X5267143Y-16436804D01*
X5238571Y-16451089D01*
X5152857Y-16451089D01*
X5124286Y-16436804D01*
X5110000Y-16422518D01*
X5552857Y-16151089D02*
X5495714Y-16151089D01*
X5467143Y-16165375D01*
X5452857Y-16179661D01*
X5424286Y-16222518D01*
X5410000Y-16279661D01*
X5410000Y-16393946D01*
X5424286Y-16422518D01*
X5438571Y-16436804D01*
X5467143Y-16451089D01*
X5524286Y-16451089D01*
X5552857Y-16436804D01*
X5567143Y-16422518D01*
X5581428Y-16393946D01*
X5581428Y-16322518D01*
X5567143Y-16293946D01*
X5552857Y-16279661D01*
X5524286Y-16265375D01*
X5467143Y-16265375D01*
X5438571Y-16279661D01*
X5424286Y-16293946D01*
X5410000Y-16322518D01*
X5695714Y-16151089D02*
X5695714Y-16208232D01*
X5810000Y-16151089D02*
X5810000Y-16208232D01*
X6252857Y-16565375D02*
X6238571Y-16551089D01*
X6210000Y-16508232D01*
X6195714Y-16479661D01*
X6181428Y-16436804D01*
X6167143Y-16365375D01*
X6167143Y-16308232D01*
X6181428Y-16236804D01*
X6195714Y-16193946D01*
X6210000Y-16165375D01*
X6238571Y-16122518D01*
X6252857Y-16108232D01*
X6352857Y-16179661D02*
X6367143Y-16165375D01*
X6395714Y-16151089D01*
X6467143Y-16151089D01*
X6495714Y-16165375D01*
X6510000Y-16179661D01*
X6524286Y-16208232D01*
X6524286Y-16236804D01*
X6510000Y-16279661D01*
X6338571Y-16451089D01*
X6524286Y-16451089D01*
X6881428Y-16451089D02*
X6881428Y-16151089D01*
X7010000Y-16451089D02*
X7010000Y-16293946D01*
X6995714Y-16265375D01*
X6967143Y-16251089D01*
X6924286Y-16251089D01*
X6895714Y-16265375D01*
X6881428Y-16279661D01*
X7195714Y-16451089D02*
X7167143Y-16436804D01*
X7152857Y-16422518D01*
X7138571Y-16393946D01*
X7138571Y-16308232D01*
X7152857Y-16279661D01*
X7167143Y-16265375D01*
X7195714Y-16251089D01*
X7238571Y-16251089D01*
X7267143Y-16265375D01*
X7281428Y-16279661D01*
X7295714Y-16308232D01*
X7295714Y-16393946D01*
X7281428Y-16422518D01*
X7267143Y-16436804D01*
X7238571Y-16451089D01*
X7195714Y-16451089D01*
X7467143Y-16451089D02*
X7438571Y-16436804D01*
X7424286Y-16408232D01*
X7424286Y-16151089D01*
X7695714Y-16436804D02*
X7667143Y-16451089D01*
X7610000Y-16451089D01*
X7581428Y-16436804D01*
X7567143Y-16408232D01*
X7567143Y-16293946D01*
X7581428Y-16265375D01*
X7610000Y-16251089D01*
X7667143Y-16251089D01*
X7695714Y-16265375D01*
X7710000Y-16293946D01*
X7710000Y-16322518D01*
X7567143Y-16351089D01*
X7824286Y-16436804D02*
X7852857Y-16451089D01*
X7910000Y-16451089D01*
X7938571Y-16436804D01*
X7952857Y-16408232D01*
X7952857Y-16393946D01*
X7938571Y-16365375D01*
X7910000Y-16351089D01*
X7867143Y-16351089D01*
X7838571Y-16336804D01*
X7824286Y-16308232D01*
X7824286Y-16293946D01*
X7838571Y-16265375D01*
X7867143Y-16251089D01*
X7910000Y-16251089D01*
X7938571Y-16265375D01*
X8052857Y-16565375D02*
X8067143Y-16551089D01*
X8095714Y-16508232D01*
X8110000Y-16479661D01*
X8124286Y-16436804D01*
X8138571Y-16365375D01*
X8138571Y-16308232D01*
X8124286Y-16236804D01*
X8110000Y-16193946D01*
X8095714Y-16165375D01*
X8067143Y-16122518D01*
X8052857Y-16108232D01*
X960000Y-16676375D02*
X960000Y-16746375D01*
X925000Y-16711375D02*
X995000Y-16711375D01*
X1338571Y-16547089D02*
X1367143Y-16547089D01*
X1395714Y-16561375D01*
X1410000Y-16575661D01*
X1424286Y-16604232D01*
X1438571Y-16661375D01*
X1438571Y-16732804D01*
X1424286Y-16789947D01*
X1410000Y-16818518D01*
X1395714Y-16832804D01*
X1367143Y-16847089D01*
X1338571Y-16847089D01*
X1310000Y-16832804D01*
X1295714Y-16818518D01*
X1281428Y-16789947D01*
X1267143Y-16732804D01*
X1267143Y-16661375D01*
X1281428Y-16604232D01*
X1295714Y-16575661D01*
X1310000Y-16561375D01*
X1338571Y-16547089D01*
X1567143Y-16818518D02*
X1581428Y-16832804D01*
X1567143Y-16847089D01*
X1552857Y-16832804D01*
X1567143Y-16818518D01*
X1567143Y-16847089D01*
X1681428Y-16547089D02*
X1881428Y-16547089D01*
X1752857Y-16847089D01*
X2052857Y-16547089D02*
X2081428Y-16547089D01*
X2110000Y-16561375D01*
X2124286Y-16575661D01*
X2138571Y-16604232D01*
X2152857Y-16661375D01*
X2152857Y-16732804D01*
X2138571Y-16789947D01*
X2124286Y-16818518D01*
X2110000Y-16832804D01*
X2081428Y-16847089D01*
X2052857Y-16847089D01*
X2024286Y-16832804D01*
X2010000Y-16818518D01*
X1995714Y-16789947D01*
X1981428Y-16732804D01*
X1981428Y-16661375D01*
X1995714Y-16604232D01*
X2010000Y-16575661D01*
X2024286Y-16561375D01*
X2052857Y-16547089D01*
X2338571Y-16547089D02*
X2367143Y-16547089D01*
X2395714Y-16561375D01*
X2410000Y-16575661D01*
X2424286Y-16604232D01*
X2438571Y-16661375D01*
X2438571Y-16732804D01*
X2424286Y-16789947D01*
X2410000Y-16818518D01*
X2395714Y-16832804D01*
X2367143Y-16847089D01*
X2338571Y-16847089D01*
X2310000Y-16832804D01*
X2295714Y-16818518D01*
X2281428Y-16789947D01*
X2267143Y-16732804D01*
X2267143Y-16661375D01*
X2281428Y-16604232D01*
X2295714Y-16575661D01*
X2310000Y-16561375D01*
X2338571Y-16547089D01*
X2567143Y-16847089D02*
X2567143Y-16647089D01*
X2567143Y-16675661D02*
X2581428Y-16661375D01*
X2610000Y-16647089D01*
X2652857Y-16647089D01*
X2681428Y-16661375D01*
X2695714Y-16689946D01*
X2695714Y-16847089D01*
X2695714Y-16689946D02*
X2710000Y-16661375D01*
X2738571Y-16647089D01*
X2781428Y-16647089D01*
X2810000Y-16661375D01*
X2824286Y-16689946D01*
X2824286Y-16847089D01*
X2967143Y-16847089D02*
X2967143Y-16647089D01*
X2967143Y-16675661D02*
X2981428Y-16661375D01*
X3010000Y-16647089D01*
X3052857Y-16647089D01*
X3081428Y-16661375D01*
X3095714Y-16689946D01*
X3095714Y-16847089D01*
X3095714Y-16689946D02*
X3110000Y-16661375D01*
X3138571Y-16647089D01*
X3181428Y-16647089D01*
X3210000Y-16661375D01*
X3224286Y-16689946D01*
X3224286Y-16847089D01*
X3810000Y-16532804D02*
X3552857Y-16918518D01*
X4195714Y-16547089D02*
X4224286Y-16547089D01*
X4252857Y-16561375D01*
X4267143Y-16575661D01*
X4281428Y-16604232D01*
X4295714Y-16661375D01*
X4295714Y-16732804D01*
X4281428Y-16789947D01*
X4267143Y-16818518D01*
X4252857Y-16832804D01*
X4224286Y-16847089D01*
X4195714Y-16847089D01*
X4167143Y-16832804D01*
X4152857Y-16818518D01*
X4138571Y-16789947D01*
X4124286Y-16732804D01*
X4124286Y-16661375D01*
X4138571Y-16604232D01*
X4152857Y-16575661D01*
X4167143Y-16561375D01*
X4195714Y-16547089D01*
X4424286Y-16818518D02*
X4438571Y-16832804D01*
X4424286Y-16847089D01*
X4410000Y-16832804D01*
X4424286Y-16818518D01*
X4424286Y-16847089D01*
X4624286Y-16547089D02*
X4652857Y-16547089D01*
X4681428Y-16561375D01*
X4695714Y-16575661D01*
X4710000Y-16604232D01*
X4724286Y-16661375D01*
X4724286Y-16732804D01*
X4710000Y-16789947D01*
X4695714Y-16818518D01*
X4681428Y-16832804D01*
X4652857Y-16847089D01*
X4624286Y-16847089D01*
X4595714Y-16832804D01*
X4581428Y-16818518D01*
X4567143Y-16789947D01*
X4552857Y-16732804D01*
X4552857Y-16661375D01*
X4567143Y-16604232D01*
X4581428Y-16575661D01*
X4595714Y-16561375D01*
X4624286Y-16547089D01*
X4838571Y-16575661D02*
X4852857Y-16561375D01*
X4881428Y-16547089D01*
X4952857Y-16547089D01*
X4981428Y-16561375D01*
X4995714Y-16575661D01*
X5010000Y-16604232D01*
X5010000Y-16632804D01*
X4995714Y-16675661D01*
X4824286Y-16847089D01*
X5010000Y-16847089D01*
X5110000Y-16547089D02*
X5310000Y-16547089D01*
X5181428Y-16847089D01*
X5552857Y-16547089D02*
X5495714Y-16547089D01*
X5467143Y-16561375D01*
X5452857Y-16575661D01*
X5424286Y-16618518D01*
X5410000Y-16675661D01*
X5410000Y-16789947D01*
X5424286Y-16818518D01*
X5438571Y-16832804D01*
X5467143Y-16847089D01*
X5524286Y-16847089D01*
X5552857Y-16832804D01*
X5567143Y-16818518D01*
X5581428Y-16789947D01*
X5581428Y-16718518D01*
X5567143Y-16689946D01*
X5552857Y-16675661D01*
X5524286Y-16661375D01*
X5467143Y-16661375D01*
X5438571Y-16675661D01*
X5424286Y-16689946D01*
X5410000Y-16718518D01*
X5695714Y-16547089D02*
X5695714Y-16604232D01*
X5810000Y-16547089D02*
X5810000Y-16604232D01*
X6252857Y-16961375D02*
X6238571Y-16947089D01*
X6210000Y-16904232D01*
X6195714Y-16875661D01*
X6181428Y-16832804D01*
X6167143Y-16761375D01*
X6167143Y-16704232D01*
X6181428Y-16632804D01*
X6195714Y-16589946D01*
X6210000Y-16561375D01*
X6238571Y-16518518D01*
X6252857Y-16504232D01*
X6524286Y-16847089D02*
X6352857Y-16847089D01*
X6438571Y-16847089D02*
X6438571Y-16547089D01*
X6410000Y-16589946D01*
X6381428Y-16618518D01*
X6352857Y-16632804D01*
X6638571Y-16575661D02*
X6652857Y-16561375D01*
X6681428Y-16547089D01*
X6752857Y-16547089D01*
X6781428Y-16561375D01*
X6795714Y-16575661D01*
X6810000Y-16604232D01*
X6810000Y-16632804D01*
X6795714Y-16675661D01*
X6624286Y-16847089D01*
X6810000Y-16847089D01*
X7167143Y-16847089D02*
X7167143Y-16547089D01*
X7295714Y-16847089D02*
X7295714Y-16689946D01*
X7281428Y-16661375D01*
X7252857Y-16647089D01*
X7210000Y-16647089D01*
X7181428Y-16661375D01*
X7167143Y-16675661D01*
X7481428Y-16847089D02*
X7452857Y-16832804D01*
X7438571Y-16818518D01*
X7424286Y-16789947D01*
X7424286Y-16704232D01*
X7438571Y-16675661D01*
X7452857Y-16661375D01*
X7481428Y-16647089D01*
X7524286Y-16647089D01*
X7552857Y-16661375D01*
X7567143Y-16675661D01*
X7581428Y-16704232D01*
X7581428Y-16789947D01*
X7567143Y-16818518D01*
X7552857Y-16832804D01*
X7524286Y-16847089D01*
X7481428Y-16847089D01*
X7752857Y-16847089D02*
X7724286Y-16832804D01*
X7710000Y-16804232D01*
X7710000Y-16547089D01*
X7981428Y-16832804D02*
X7952857Y-16847089D01*
X7895714Y-16847089D01*
X7867143Y-16832804D01*
X7852857Y-16804232D01*
X7852857Y-16689946D01*
X7867143Y-16661375D01*
X7895714Y-16647089D01*
X7952857Y-16647089D01*
X7981428Y-16661375D01*
X7995714Y-16689946D01*
X7995714Y-16718518D01*
X7852857Y-16747089D01*
X8110000Y-16832804D02*
X8138571Y-16847089D01*
X8195714Y-16847089D01*
X8224286Y-16832804D01*
X8238571Y-16804232D01*
X8238571Y-16789947D01*
X8224286Y-16761375D01*
X8195714Y-16747089D01*
X8152857Y-16747089D01*
X8124286Y-16732804D01*
X8110000Y-16704232D01*
X8110000Y-16689946D01*
X8124286Y-16661375D01*
X8152857Y-16647089D01*
X8195714Y-16647089D01*
X8224286Y-16661375D01*
X8338571Y-16961375D02*
X8352857Y-16947089D01*
X8381428Y-16904232D01*
X8395714Y-16875661D01*
X8410000Y-16832804D01*
X8424286Y-16761375D01*
X8424286Y-16704232D01*
X8410000Y-16632804D01*
X8395714Y-16589946D01*
X8381428Y-16561375D01*
X8352857Y-16518518D01*
X8338571Y-16504232D01*
X984602Y-17132478D02*
X984602Y-17082273D01*
X934397Y-17082273D01*
X934397Y-17132478D01*
X984602Y-17132478D01*
X1338571Y-16943089D02*
X1367143Y-16943089D01*
X1395714Y-16957375D01*
X1410000Y-16971661D01*
X1424286Y-17000232D01*
X1438571Y-17057375D01*
X1438571Y-17128804D01*
X1424286Y-17185947D01*
X1410000Y-17214518D01*
X1395714Y-17228804D01*
X1367143Y-17243089D01*
X1338571Y-17243089D01*
X1310000Y-17228804D01*
X1295714Y-17214518D01*
X1281428Y-17185947D01*
X1267143Y-17128804D01*
X1267143Y-17057375D01*
X1281428Y-17000232D01*
X1295714Y-16971661D01*
X1310000Y-16957375D01*
X1338571Y-16943089D01*
X1567143Y-17214518D02*
X1581428Y-17228804D01*
X1567143Y-17243089D01*
X1552857Y-17228804D01*
X1567143Y-17214518D01*
X1567143Y-17243089D01*
X1681428Y-16943089D02*
X1881428Y-16943089D01*
X1752857Y-17243089D01*
X2152857Y-17243089D02*
X1981428Y-17243089D01*
X2067143Y-17243089D02*
X2067143Y-16943089D01*
X2038571Y-16985947D01*
X2010000Y-17014518D01*
X1981428Y-17028804D01*
X2338571Y-16943089D02*
X2367143Y-16943089D01*
X2395714Y-16957375D01*
X2410000Y-16971661D01*
X2424286Y-17000232D01*
X2438571Y-17057375D01*
X2438571Y-17128804D01*
X2424286Y-17185947D01*
X2410000Y-17214518D01*
X2395714Y-17228804D01*
X2367143Y-17243089D01*
X2338571Y-17243089D01*
X2310000Y-17228804D01*
X2295714Y-17214518D01*
X2281428Y-17185947D01*
X2267143Y-17128804D01*
X2267143Y-17057375D01*
X2281428Y-17000232D01*
X2295714Y-16971661D01*
X2310000Y-16957375D01*
X2338571Y-16943089D01*
X2567143Y-17243089D02*
X2567143Y-17043089D01*
X2567143Y-17071661D02*
X2581428Y-17057375D01*
X2610000Y-17043089D01*
X2652857Y-17043089D01*
X2681428Y-17057375D01*
X2695714Y-17085947D01*
X2695714Y-17243089D01*
X2695714Y-17085947D02*
X2710000Y-17057375D01*
X2738571Y-17043089D01*
X2781428Y-17043089D01*
X2810000Y-17057375D01*
X2824286Y-17085947D01*
X2824286Y-17243089D01*
X2967143Y-17243089D02*
X2967143Y-17043089D01*
X2967143Y-17071661D02*
X2981428Y-17057375D01*
X3010000Y-17043089D01*
X3052857Y-17043089D01*
X3081428Y-17057375D01*
X3095714Y-17085947D01*
X3095714Y-17243089D01*
X3095714Y-17085947D02*
X3110000Y-17057375D01*
X3138571Y-17043089D01*
X3181428Y-17043089D01*
X3210000Y-17057375D01*
X3224286Y-17085947D01*
X3224286Y-17243089D01*
X3810000Y-16928804D02*
X3552857Y-17314518D01*
X4195714Y-16943089D02*
X4224286Y-16943089D01*
X4252857Y-16957375D01*
X4267143Y-16971661D01*
X4281428Y-17000232D01*
X4295714Y-17057375D01*
X4295714Y-17128804D01*
X4281428Y-17185947D01*
X4267143Y-17214518D01*
X4252857Y-17228804D01*
X4224286Y-17243089D01*
X4195714Y-17243089D01*
X4167143Y-17228804D01*
X4152857Y-17214518D01*
X4138571Y-17185947D01*
X4124286Y-17128804D01*
X4124286Y-17057375D01*
X4138571Y-17000232D01*
X4152857Y-16971661D01*
X4167143Y-16957375D01*
X4195714Y-16943089D01*
X4424286Y-17214518D02*
X4438571Y-17228804D01*
X4424286Y-17243089D01*
X4410000Y-17228804D01*
X4424286Y-17214518D01*
X4424286Y-17243089D01*
X4624286Y-16943089D02*
X4652857Y-16943089D01*
X4681428Y-16957375D01*
X4695714Y-16971661D01*
X4710000Y-17000232D01*
X4724286Y-17057375D01*
X4724286Y-17128804D01*
X4710000Y-17185947D01*
X4695714Y-17214518D01*
X4681428Y-17228804D01*
X4652857Y-17243089D01*
X4624286Y-17243089D01*
X4595714Y-17228804D01*
X4581428Y-17214518D01*
X4567143Y-17185947D01*
X4552857Y-17128804D01*
X4552857Y-17057375D01*
X4567143Y-17000232D01*
X4581428Y-16971661D01*
X4595714Y-16957375D01*
X4624286Y-16943089D01*
X4838571Y-16971661D02*
X4852857Y-16957375D01*
X4881428Y-16943089D01*
X4952857Y-16943089D01*
X4981428Y-16957375D01*
X4995714Y-16971661D01*
X5010000Y-17000232D01*
X5010000Y-17028804D01*
X4995714Y-17071661D01*
X4824286Y-17243089D01*
X5010000Y-17243089D01*
X5181428Y-17071661D02*
X5152857Y-17057375D01*
X5138571Y-17043089D01*
X5124286Y-17014518D01*
X5124286Y-17000232D01*
X5138571Y-16971661D01*
X5152857Y-16957375D01*
X5181428Y-16943089D01*
X5238571Y-16943089D01*
X5267143Y-16957375D01*
X5281428Y-16971661D01*
X5295714Y-17000232D01*
X5295714Y-17014518D01*
X5281428Y-17043089D01*
X5267143Y-17057375D01*
X5238571Y-17071661D01*
X5181428Y-17071661D01*
X5152857Y-17085947D01*
X5138571Y-17100232D01*
X5124286Y-17128804D01*
X5124286Y-17185947D01*
X5138571Y-17214518D01*
X5152857Y-17228804D01*
X5181428Y-17243089D01*
X5238571Y-17243089D01*
X5267143Y-17228804D01*
X5281428Y-17214518D01*
X5295714Y-17185947D01*
X5295714Y-17128804D01*
X5281428Y-17100232D01*
X5267143Y-17085947D01*
X5238571Y-17071661D01*
X5481428Y-16943089D02*
X5510000Y-16943089D01*
X5538571Y-16957375D01*
X5552857Y-16971661D01*
X5567143Y-17000232D01*
X5581428Y-17057375D01*
X5581428Y-17128804D01*
X5567143Y-17185947D01*
X5552857Y-17214518D01*
X5538571Y-17228804D01*
X5510000Y-17243089D01*
X5481428Y-17243089D01*
X5452857Y-17228804D01*
X5438571Y-17214518D01*
X5424286Y-17185947D01*
X5410000Y-17128804D01*
X5410000Y-17057375D01*
X5424286Y-17000232D01*
X5438571Y-16971661D01*
X5452857Y-16957375D01*
X5481428Y-16943089D01*
X5695714Y-16943089D02*
X5695714Y-17000232D01*
X5810000Y-16943089D02*
X5810000Y-17000232D01*
X6252857Y-17357375D02*
X6238571Y-17343089D01*
X6210000Y-17300232D01*
X6195714Y-17271661D01*
X6181428Y-17228804D01*
X6167143Y-17157375D01*
X6167143Y-17100232D01*
X6181428Y-17028804D01*
X6195714Y-16985947D01*
X6210000Y-16957375D01*
X6238571Y-16914518D01*
X6252857Y-16900232D01*
X6352857Y-16971661D02*
X6367143Y-16957375D01*
X6395714Y-16943089D01*
X6467143Y-16943089D01*
X6495714Y-16957375D01*
X6510000Y-16971661D01*
X6524286Y-17000232D01*
X6524286Y-17028804D01*
X6510000Y-17071661D01*
X6338571Y-17243089D01*
X6524286Y-17243089D01*
X6881428Y-17243089D02*
X6881428Y-16943089D01*
X7010000Y-17243089D02*
X7010000Y-17085947D01*
X6995714Y-17057375D01*
X6967143Y-17043089D01*
X6924286Y-17043089D01*
X6895714Y-17057375D01*
X6881428Y-17071661D01*
X7195714Y-17243089D02*
X7167143Y-17228804D01*
X7152857Y-17214518D01*
X7138571Y-17185947D01*
X7138571Y-17100232D01*
X7152857Y-17071661D01*
X7167143Y-17057375D01*
X7195714Y-17043089D01*
X7238571Y-17043089D01*
X7267143Y-17057375D01*
X7281428Y-17071661D01*
X7295714Y-17100232D01*
X7295714Y-17185947D01*
X7281428Y-17214518D01*
X7267143Y-17228804D01*
X7238571Y-17243089D01*
X7195714Y-17243089D01*
X7467143Y-17243089D02*
X7438571Y-17228804D01*
X7424286Y-17200232D01*
X7424286Y-16943089D01*
X7695714Y-17228804D02*
X7667143Y-17243089D01*
X7610000Y-17243089D01*
X7581428Y-17228804D01*
X7567143Y-17200232D01*
X7567143Y-17085947D01*
X7581428Y-17057375D01*
X7610000Y-17043089D01*
X7667143Y-17043089D01*
X7695714Y-17057375D01*
X7710000Y-17085947D01*
X7710000Y-17114518D01*
X7567143Y-17143089D01*
X7824286Y-17228804D02*
X7852857Y-17243089D01*
X7910000Y-17243089D01*
X7938571Y-17228804D01*
X7952857Y-17200232D01*
X7952857Y-17185947D01*
X7938571Y-17157375D01*
X7910000Y-17143089D01*
X7867143Y-17143089D01*
X7838571Y-17128804D01*
X7824286Y-17100232D01*
X7824286Y-17085947D01*
X7838571Y-17057375D01*
X7867143Y-17043089D01*
X7910000Y-17043089D01*
X7938571Y-17057375D01*
X8052857Y-17357375D02*
X8067143Y-17343089D01*
X8095714Y-17300232D01*
X8110000Y-17271661D01*
X8124286Y-17228804D01*
X8138571Y-17157375D01*
X8138571Y-17100232D01*
X8124286Y-17028804D01*
X8110000Y-16985947D01*
X8095714Y-16957375D01*
X8067143Y-16914518D01*
X8052857Y-16900232D01*
X958170Y-17540205D02*
X995000Y-17503375D01*
X958170Y-17466545D01*
X921340Y-17503375D01*
X958170Y-17540205D01*
X1338571Y-17339089D02*
X1367143Y-17339089D01*
X1395714Y-17353375D01*
X1410000Y-17367661D01*
X1424286Y-17396232D01*
X1438571Y-17453375D01*
X1438571Y-17524804D01*
X1424286Y-17581947D01*
X1410000Y-17610518D01*
X1395714Y-17624804D01*
X1367143Y-17639089D01*
X1338571Y-17639089D01*
X1310000Y-17624804D01*
X1295714Y-17610518D01*
X1281428Y-17581947D01*
X1267143Y-17524804D01*
X1267143Y-17453375D01*
X1281428Y-17396232D01*
X1295714Y-17367661D01*
X1310000Y-17353375D01*
X1338571Y-17339089D01*
X1567143Y-17610518D02*
X1581428Y-17624804D01*
X1567143Y-17639089D01*
X1552857Y-17624804D01*
X1567143Y-17610518D01*
X1567143Y-17639089D01*
X1681428Y-17339089D02*
X1881428Y-17339089D01*
X1752857Y-17639089D01*
X1967143Y-17339089D02*
X2152857Y-17339089D01*
X2052857Y-17453375D01*
X2095714Y-17453375D01*
X2124286Y-17467661D01*
X2138571Y-17481947D01*
X2152857Y-17510518D01*
X2152857Y-17581947D01*
X2138571Y-17610518D01*
X2124286Y-17624804D01*
X2095714Y-17639089D01*
X2010000Y-17639089D01*
X1981428Y-17624804D01*
X1967143Y-17610518D01*
X2252857Y-17339089D02*
X2452857Y-17339089D01*
X2324286Y-17639089D01*
X2567143Y-17639089D02*
X2567143Y-17439089D01*
X2567143Y-17467661D02*
X2581428Y-17453375D01*
X2610000Y-17439089D01*
X2652857Y-17439089D01*
X2681428Y-17453375D01*
X2695714Y-17481947D01*
X2695714Y-17639089D01*
X2695714Y-17481947D02*
X2710000Y-17453375D01*
X2738571Y-17439089D01*
X2781428Y-17439089D01*
X2810000Y-17453375D01*
X2824286Y-17481947D01*
X2824286Y-17639089D01*
X2967143Y-17639089D02*
X2967143Y-17439089D01*
X2967143Y-17467661D02*
X2981428Y-17453375D01*
X3010000Y-17439089D01*
X3052857Y-17439089D01*
X3081428Y-17453375D01*
X3095714Y-17481947D01*
X3095714Y-17639089D01*
X3095714Y-17481947D02*
X3110000Y-17453375D01*
X3138571Y-17439089D01*
X3181428Y-17439089D01*
X3210000Y-17453375D01*
X3224286Y-17481947D01*
X3224286Y-17639089D01*
X3810000Y-17324804D02*
X3552857Y-17710518D01*
X4195714Y-17339089D02*
X4224286Y-17339089D01*
X4252857Y-17353375D01*
X4267143Y-17367661D01*
X4281428Y-17396232D01*
X4295714Y-17453375D01*
X4295714Y-17524804D01*
X4281428Y-17581947D01*
X4267143Y-17610518D01*
X4252857Y-17624804D01*
X4224286Y-17639089D01*
X4195714Y-17639089D01*
X4167143Y-17624804D01*
X4152857Y-17610518D01*
X4138571Y-17581947D01*
X4124286Y-17524804D01*
X4124286Y-17453375D01*
X4138571Y-17396232D01*
X4152857Y-17367661D01*
X4167143Y-17353375D01*
X4195714Y-17339089D01*
X4424286Y-17610518D02*
X4438571Y-17624804D01*
X4424286Y-17639089D01*
X4410000Y-17624804D01*
X4424286Y-17610518D01*
X4424286Y-17639089D01*
X4624286Y-17339089D02*
X4652857Y-17339089D01*
X4681428Y-17353375D01*
X4695714Y-17367661D01*
X4710000Y-17396232D01*
X4724286Y-17453375D01*
X4724286Y-17524804D01*
X4710000Y-17581947D01*
X4695714Y-17610518D01*
X4681428Y-17624804D01*
X4652857Y-17639089D01*
X4624286Y-17639089D01*
X4595714Y-17624804D01*
X4581428Y-17610518D01*
X4567143Y-17581947D01*
X4552857Y-17524804D01*
X4552857Y-17453375D01*
X4567143Y-17396232D01*
X4581428Y-17367661D01*
X4595714Y-17353375D01*
X4624286Y-17339089D01*
X4838571Y-17367661D02*
X4852857Y-17353375D01*
X4881428Y-17339089D01*
X4952857Y-17339089D01*
X4981428Y-17353375D01*
X4995714Y-17367661D01*
X5010000Y-17396232D01*
X5010000Y-17424804D01*
X4995714Y-17467661D01*
X4824286Y-17639089D01*
X5010000Y-17639089D01*
X5152857Y-17639089D02*
X5210000Y-17639089D01*
X5238571Y-17624804D01*
X5252857Y-17610518D01*
X5281428Y-17567661D01*
X5295714Y-17510518D01*
X5295714Y-17396232D01*
X5281428Y-17367661D01*
X5267143Y-17353375D01*
X5238571Y-17339089D01*
X5181428Y-17339089D01*
X5152857Y-17353375D01*
X5138571Y-17367661D01*
X5124286Y-17396232D01*
X5124286Y-17467661D01*
X5138571Y-17496232D01*
X5152857Y-17510518D01*
X5181428Y-17524804D01*
X5238571Y-17524804D01*
X5267143Y-17510518D01*
X5281428Y-17496232D01*
X5295714Y-17467661D01*
X5481428Y-17339089D02*
X5510000Y-17339089D01*
X5538571Y-17353375D01*
X5552857Y-17367661D01*
X5567143Y-17396232D01*
X5581428Y-17453375D01*
X5581428Y-17524804D01*
X5567143Y-17581947D01*
X5552857Y-17610518D01*
X5538571Y-17624804D01*
X5510000Y-17639089D01*
X5481428Y-17639089D01*
X5452857Y-17624804D01*
X5438571Y-17610518D01*
X5424286Y-17581947D01*
X5410000Y-17524804D01*
X5410000Y-17453375D01*
X5424286Y-17396232D01*
X5438571Y-17367661D01*
X5452857Y-17353375D01*
X5481428Y-17339089D01*
X5695714Y-17339089D02*
X5695714Y-17396232D01*
X5810000Y-17339089D02*
X5810000Y-17396232D01*
X6252857Y-17753375D02*
X6238571Y-17739089D01*
X6210000Y-17696232D01*
X6195714Y-17667661D01*
X6181428Y-17624804D01*
X6167143Y-17553375D01*
X6167143Y-17496232D01*
X6181428Y-17424804D01*
X6195714Y-17381947D01*
X6210000Y-17353375D01*
X6238571Y-17310518D01*
X6252857Y-17296232D01*
X6495714Y-17439089D02*
X6495714Y-17639089D01*
X6424286Y-17324804D02*
X6352857Y-17539089D01*
X6538571Y-17539089D01*
X6881428Y-17639089D02*
X6881428Y-17339089D01*
X7010000Y-17639089D02*
X7010000Y-17481947D01*
X6995714Y-17453375D01*
X6967143Y-17439089D01*
X6924286Y-17439089D01*
X6895714Y-17453375D01*
X6881428Y-17467661D01*
X7195714Y-17639089D02*
X7167143Y-17624804D01*
X7152857Y-17610518D01*
X7138571Y-17581947D01*
X7138571Y-17496232D01*
X7152857Y-17467661D01*
X7167143Y-17453375D01*
X7195714Y-17439089D01*
X7238571Y-17439089D01*
X7267143Y-17453375D01*
X7281428Y-17467661D01*
X7295714Y-17496232D01*
X7295714Y-17581947D01*
X7281428Y-17610518D01*
X7267143Y-17624804D01*
X7238571Y-17639089D01*
X7195714Y-17639089D01*
X7467143Y-17639089D02*
X7438571Y-17624804D01*
X7424286Y-17596232D01*
X7424286Y-17339089D01*
X7695714Y-17624804D02*
X7667143Y-17639089D01*
X7610000Y-17639089D01*
X7581428Y-17624804D01*
X7567143Y-17596232D01*
X7567143Y-17481947D01*
X7581428Y-17453375D01*
X7610000Y-17439089D01*
X7667143Y-17439089D01*
X7695714Y-17453375D01*
X7710000Y-17481947D01*
X7710000Y-17510518D01*
X7567143Y-17539089D01*
X7824286Y-17624804D02*
X7852857Y-17639089D01*
X7910000Y-17639089D01*
X7938571Y-17624804D01*
X7952857Y-17596232D01*
X7952857Y-17581947D01*
X7938571Y-17553375D01*
X7910000Y-17539089D01*
X7867143Y-17539089D01*
X7838571Y-17524804D01*
X7824286Y-17496232D01*
X7824286Y-17481947D01*
X7838571Y-17453375D01*
X7867143Y-17439089D01*
X7910000Y-17439089D01*
X7938571Y-17453375D01*
X8052857Y-17753375D02*
X8067143Y-17739089D01*
X8095714Y-17696232D01*
X8110000Y-17667661D01*
X8124286Y-17624804D01*
X8138571Y-17553375D01*
X8138571Y-17496232D01*
X8124286Y-17424804D01*
X8110000Y-17381947D01*
X8095714Y-17353375D01*
X8067143Y-17310518D01*
X8052857Y-17296232D01*
X915000Y-17859375D02*
X995000Y-17939375D01*
X995000Y-17859375D02*
X915000Y-17939375D01*
X995000Y-17899375D02*
G75*
G03*
X995000Y-17899375I-40000J0D01*
G01*
X1338571Y-17735089D02*
X1367143Y-17735089D01*
X1395714Y-17749375D01*
X1410000Y-17763661D01*
X1424286Y-17792232D01*
X1438571Y-17849375D01*
X1438571Y-17920804D01*
X1424286Y-17977947D01*
X1410000Y-18006518D01*
X1395714Y-18020804D01*
X1367143Y-18035089D01*
X1338571Y-18035089D01*
X1310000Y-18020804D01*
X1295714Y-18006518D01*
X1281428Y-17977947D01*
X1267143Y-17920804D01*
X1267143Y-17849375D01*
X1281428Y-17792232D01*
X1295714Y-17763661D01*
X1310000Y-17749375D01*
X1338571Y-17735089D01*
X1567143Y-18006518D02*
X1581428Y-18020804D01*
X1567143Y-18035089D01*
X1552857Y-18020804D01*
X1567143Y-18006518D01*
X1567143Y-18035089D01*
X1752857Y-17863661D02*
X1724286Y-17849375D01*
X1710000Y-17835089D01*
X1695714Y-17806518D01*
X1695714Y-17792232D01*
X1710000Y-17763661D01*
X1724286Y-17749375D01*
X1752857Y-17735089D01*
X1810000Y-17735089D01*
X1838571Y-17749375D01*
X1852857Y-17763661D01*
X1867143Y-17792232D01*
X1867143Y-17806518D01*
X1852857Y-17835089D01*
X1838571Y-17849375D01*
X1810000Y-17863661D01*
X1752857Y-17863661D01*
X1724286Y-17877947D01*
X1710000Y-17892232D01*
X1695714Y-17920804D01*
X1695714Y-17977947D01*
X1710000Y-18006518D01*
X1724286Y-18020804D01*
X1752857Y-18035089D01*
X1810000Y-18035089D01*
X1838571Y-18020804D01*
X1852857Y-18006518D01*
X1867143Y-17977947D01*
X1867143Y-17920804D01*
X1852857Y-17892232D01*
X1838571Y-17877947D01*
X1810000Y-17863661D01*
X2052857Y-17735089D02*
X2081428Y-17735089D01*
X2110000Y-17749375D01*
X2124286Y-17763661D01*
X2138571Y-17792232D01*
X2152857Y-17849375D01*
X2152857Y-17920804D01*
X2138571Y-17977947D01*
X2124286Y-18006518D01*
X2110000Y-18020804D01*
X2081428Y-18035089D01*
X2052857Y-18035089D01*
X2024286Y-18020804D01*
X2010000Y-18006518D01*
X1995714Y-17977947D01*
X1981428Y-17920804D01*
X1981428Y-17849375D01*
X1995714Y-17792232D01*
X2010000Y-17763661D01*
X2024286Y-17749375D01*
X2052857Y-17735089D01*
X2338571Y-17735089D02*
X2367143Y-17735089D01*
X2395714Y-17749375D01*
X2410000Y-17763661D01*
X2424286Y-17792232D01*
X2438571Y-17849375D01*
X2438571Y-17920804D01*
X2424286Y-17977947D01*
X2410000Y-18006518D01*
X2395714Y-18020804D01*
X2367143Y-18035089D01*
X2338571Y-18035089D01*
X2310000Y-18020804D01*
X2295714Y-18006518D01*
X2281428Y-17977947D01*
X2267143Y-17920804D01*
X2267143Y-17849375D01*
X2281428Y-17792232D01*
X2295714Y-17763661D01*
X2310000Y-17749375D01*
X2338571Y-17735089D01*
X2567143Y-18035089D02*
X2567143Y-17835089D01*
X2567143Y-17863661D02*
X2581428Y-17849375D01*
X2610000Y-17835089D01*
X2652857Y-17835089D01*
X2681428Y-17849375D01*
X2695714Y-17877947D01*
X2695714Y-18035089D01*
X2695714Y-17877947D02*
X2710000Y-17849375D01*
X2738571Y-17835089D01*
X2781428Y-17835089D01*
X2810000Y-17849375D01*
X2824286Y-17877947D01*
X2824286Y-18035089D01*
X2967143Y-18035089D02*
X2967143Y-17835089D01*
X2967143Y-17863661D02*
X2981428Y-17849375D01*
X3010000Y-17835089D01*
X3052857Y-17835089D01*
X3081428Y-17849375D01*
X3095714Y-17877947D01*
X3095714Y-18035089D01*
X3095714Y-17877947D02*
X3110000Y-17849375D01*
X3138571Y-17835089D01*
X3181428Y-17835089D01*
X3210000Y-17849375D01*
X3224286Y-17877947D01*
X3224286Y-18035089D01*
X3810000Y-17720804D02*
X3552857Y-18106518D01*
X4195714Y-17735089D02*
X4224286Y-17735089D01*
X4252857Y-17749375D01*
X4267143Y-17763661D01*
X4281428Y-17792232D01*
X4295714Y-17849375D01*
X4295714Y-17920804D01*
X4281428Y-17977947D01*
X4267143Y-18006518D01*
X4252857Y-18020804D01*
X4224286Y-18035089D01*
X4195714Y-18035089D01*
X4167143Y-18020804D01*
X4152857Y-18006518D01*
X4138571Y-17977947D01*
X4124286Y-17920804D01*
X4124286Y-17849375D01*
X4138571Y-17792232D01*
X4152857Y-17763661D01*
X4167143Y-17749375D01*
X4195714Y-17735089D01*
X4424286Y-18006518D02*
X4438571Y-18020804D01*
X4424286Y-18035089D01*
X4410000Y-18020804D01*
X4424286Y-18006518D01*
X4424286Y-18035089D01*
X4624286Y-17735089D02*
X4652857Y-17735089D01*
X4681428Y-17749375D01*
X4695714Y-17763661D01*
X4710000Y-17792232D01*
X4724286Y-17849375D01*
X4724286Y-17920804D01*
X4710000Y-17977947D01*
X4695714Y-18006518D01*
X4681428Y-18020804D01*
X4652857Y-18035089D01*
X4624286Y-18035089D01*
X4595714Y-18020804D01*
X4581428Y-18006518D01*
X4567143Y-17977947D01*
X4552857Y-17920804D01*
X4552857Y-17849375D01*
X4567143Y-17792232D01*
X4581428Y-17763661D01*
X4595714Y-17749375D01*
X4624286Y-17735089D01*
X4824286Y-17735089D02*
X5010000Y-17735089D01*
X4910000Y-17849375D01*
X4952857Y-17849375D01*
X4981428Y-17863661D01*
X4995714Y-17877947D01*
X5010000Y-17906518D01*
X5010000Y-17977947D01*
X4995714Y-18006518D01*
X4981428Y-18020804D01*
X4952857Y-18035089D01*
X4867143Y-18035089D01*
X4838571Y-18020804D01*
X4824286Y-18006518D01*
X5295714Y-18035089D02*
X5124286Y-18035089D01*
X5210000Y-18035089D02*
X5210000Y-17735089D01*
X5181428Y-17777947D01*
X5152857Y-17806518D01*
X5124286Y-17820804D01*
X5567143Y-17735089D02*
X5424286Y-17735089D01*
X5410000Y-17877947D01*
X5424286Y-17863661D01*
X5452857Y-17849375D01*
X5524286Y-17849375D01*
X5552857Y-17863661D01*
X5567143Y-17877947D01*
X5581428Y-17906518D01*
X5581428Y-17977947D01*
X5567143Y-18006518D01*
X5552857Y-18020804D01*
X5524286Y-18035089D01*
X5452857Y-18035089D01*
X5424286Y-18020804D01*
X5410000Y-18006518D01*
X5695714Y-17735089D02*
X5695714Y-17792232D01*
X5810000Y-17735089D02*
X5810000Y-17792232D01*
X6252857Y-18149375D02*
X6238571Y-18135089D01*
X6210000Y-18092232D01*
X6195714Y-18063661D01*
X6181428Y-18020804D01*
X6167143Y-17949375D01*
X6167143Y-17892232D01*
X6181428Y-17820804D01*
X6195714Y-17777947D01*
X6210000Y-17749375D01*
X6238571Y-17706518D01*
X6252857Y-17692232D01*
X6524286Y-18035089D02*
X6352857Y-18035089D01*
X6438571Y-18035089D02*
X6438571Y-17735089D01*
X6410000Y-17777947D01*
X6381428Y-17806518D01*
X6352857Y-17820804D01*
X6781428Y-17735089D02*
X6724286Y-17735089D01*
X6695714Y-17749375D01*
X6681428Y-17763661D01*
X6652857Y-17806518D01*
X6638571Y-17863661D01*
X6638571Y-17977947D01*
X6652857Y-18006518D01*
X6667143Y-18020804D01*
X6695714Y-18035089D01*
X6752857Y-18035089D01*
X6781428Y-18020804D01*
X6795714Y-18006518D01*
X6810000Y-17977947D01*
X6810000Y-17906518D01*
X6795714Y-17877947D01*
X6781428Y-17863661D01*
X6752857Y-17849375D01*
X6695714Y-17849375D01*
X6667143Y-17863661D01*
X6652857Y-17877947D01*
X6638571Y-17906518D01*
X6924286Y-17763661D02*
X6938571Y-17749375D01*
X6967143Y-17735089D01*
X7038571Y-17735089D01*
X7067143Y-17749375D01*
X7081428Y-17763661D01*
X7095714Y-17792232D01*
X7095714Y-17820804D01*
X7081428Y-17863661D01*
X6910000Y-18035089D01*
X7095714Y-18035089D01*
X7452857Y-18035089D02*
X7452857Y-17735089D01*
X7581428Y-18035089D02*
X7581428Y-17877947D01*
X7567143Y-17849375D01*
X7538571Y-17835089D01*
X7495714Y-17835089D01*
X7467143Y-17849375D01*
X7452857Y-17863661D01*
X7767143Y-18035089D02*
X7738571Y-18020804D01*
X7724286Y-18006518D01*
X7710000Y-17977947D01*
X7710000Y-17892232D01*
X7724286Y-17863661D01*
X7738571Y-17849375D01*
X7767143Y-17835089D01*
X7810000Y-17835089D01*
X7838571Y-17849375D01*
X7852857Y-17863661D01*
X7867143Y-17892232D01*
X7867143Y-17977947D01*
X7852857Y-18006518D01*
X7838571Y-18020804D01*
X7810000Y-18035089D01*
X7767143Y-18035089D01*
X8038571Y-18035089D02*
X8010000Y-18020804D01*
X7995714Y-17992232D01*
X7995714Y-17735089D01*
X8267143Y-18020804D02*
X8238571Y-18035089D01*
X8181428Y-18035089D01*
X8152857Y-18020804D01*
X8138571Y-17992232D01*
X8138571Y-17877947D01*
X8152857Y-17849375D01*
X8181428Y-17835089D01*
X8238571Y-17835089D01*
X8267143Y-17849375D01*
X8281428Y-17877947D01*
X8281428Y-17906518D01*
X8138571Y-17935089D01*
X8395714Y-18020804D02*
X8424286Y-18035089D01*
X8481428Y-18035089D01*
X8510000Y-18020804D01*
X8524286Y-17992232D01*
X8524286Y-17977947D01*
X8510000Y-17949375D01*
X8481428Y-17935089D01*
X8438571Y-17935089D01*
X8410000Y-17920804D01*
X8395714Y-17892232D01*
X8395714Y-17877947D01*
X8410000Y-17849375D01*
X8438571Y-17835089D01*
X8481428Y-17835089D01*
X8510000Y-17849375D01*
X8624286Y-18149375D02*
X8638571Y-18135089D01*
X8667143Y-18092232D01*
X8681428Y-18063661D01*
X8695714Y-18020804D01*
X8710000Y-17949375D01*
X8710000Y-17892232D01*
X8695714Y-17820804D01*
X8681428Y-17777947D01*
X8667143Y-17749375D01*
X8638571Y-17706518D01*
X8624286Y-17692232D01*
X905000Y-18250375D02*
X995000Y-18340375D01*
X995000Y-18250375D02*
X905000Y-18340375D01*
X950000Y-18250375D02*
X950000Y-18340375D01*
X905000Y-18295375D02*
X995000Y-18295375D01*
X1338571Y-18131089D02*
X1367143Y-18131089D01*
X1395714Y-18145375D01*
X1410000Y-18159661D01*
X1424286Y-18188232D01*
X1438571Y-18245375D01*
X1438571Y-18316804D01*
X1424286Y-18373947D01*
X1410000Y-18402518D01*
X1395714Y-18416804D01*
X1367143Y-18431089D01*
X1338571Y-18431089D01*
X1310000Y-18416804D01*
X1295714Y-18402518D01*
X1281428Y-18373947D01*
X1267143Y-18316804D01*
X1267143Y-18245375D01*
X1281428Y-18188232D01*
X1295714Y-18159661D01*
X1310000Y-18145375D01*
X1338571Y-18131089D01*
X1567143Y-18402518D02*
X1581428Y-18416804D01*
X1567143Y-18431089D01*
X1552857Y-18416804D01*
X1567143Y-18402518D01*
X1567143Y-18431089D01*
X1724286Y-18431089D02*
X1781428Y-18431089D01*
X1810000Y-18416804D01*
X1824286Y-18402518D01*
X1852857Y-18359661D01*
X1867143Y-18302518D01*
X1867143Y-18188232D01*
X1852857Y-18159661D01*
X1838571Y-18145375D01*
X1810000Y-18131089D01*
X1752857Y-18131089D01*
X1724286Y-18145375D01*
X1710000Y-18159661D01*
X1695714Y-18188232D01*
X1695714Y-18259661D01*
X1710000Y-18288232D01*
X1724286Y-18302518D01*
X1752857Y-18316804D01*
X1810000Y-18316804D01*
X1838571Y-18302518D01*
X1852857Y-18288232D01*
X1867143Y-18259661D01*
X2052857Y-18131089D02*
X2081428Y-18131089D01*
X2110000Y-18145375D01*
X2124286Y-18159661D01*
X2138571Y-18188232D01*
X2152857Y-18245375D01*
X2152857Y-18316804D01*
X2138571Y-18373947D01*
X2124286Y-18402518D01*
X2110000Y-18416804D01*
X2081428Y-18431089D01*
X2052857Y-18431089D01*
X2024286Y-18416804D01*
X2010000Y-18402518D01*
X1995714Y-18373947D01*
X1981428Y-18316804D01*
X1981428Y-18245375D01*
X1995714Y-18188232D01*
X2010000Y-18159661D01*
X2024286Y-18145375D01*
X2052857Y-18131089D01*
X2338571Y-18131089D02*
X2367143Y-18131089D01*
X2395714Y-18145375D01*
X2410000Y-18159661D01*
X2424286Y-18188232D01*
X2438571Y-18245375D01*
X2438571Y-18316804D01*
X2424286Y-18373947D01*
X2410000Y-18402518D01*
X2395714Y-18416804D01*
X2367143Y-18431089D01*
X2338571Y-18431089D01*
X2310000Y-18416804D01*
X2295714Y-18402518D01*
X2281428Y-18373947D01*
X2267143Y-18316804D01*
X2267143Y-18245375D01*
X2281428Y-18188232D01*
X2295714Y-18159661D01*
X2310000Y-18145375D01*
X2338571Y-18131089D01*
X2567143Y-18431089D02*
X2567143Y-18231089D01*
X2567143Y-18259661D02*
X2581428Y-18245375D01*
X2610000Y-18231089D01*
X2652857Y-18231089D01*
X2681428Y-18245375D01*
X2695714Y-18273947D01*
X2695714Y-18431089D01*
X2695714Y-18273947D02*
X2710000Y-18245375D01*
X2738571Y-18231089D01*
X2781428Y-18231089D01*
X2810000Y-18245375D01*
X2824286Y-18273947D01*
X2824286Y-18431089D01*
X2967143Y-18431089D02*
X2967143Y-18231089D01*
X2967143Y-18259661D02*
X2981428Y-18245375D01*
X3010000Y-18231089D01*
X3052857Y-18231089D01*
X3081428Y-18245375D01*
X3095714Y-18273947D01*
X3095714Y-18431089D01*
X3095714Y-18273947D02*
X3110000Y-18245375D01*
X3138571Y-18231089D01*
X3181428Y-18231089D01*
X3210000Y-18245375D01*
X3224286Y-18273947D01*
X3224286Y-18431089D01*
X3810000Y-18116804D02*
X3552857Y-18502518D01*
X4195714Y-18131089D02*
X4224286Y-18131089D01*
X4252857Y-18145375D01*
X4267143Y-18159661D01*
X4281428Y-18188232D01*
X4295714Y-18245375D01*
X4295714Y-18316804D01*
X4281428Y-18373947D01*
X4267143Y-18402518D01*
X4252857Y-18416804D01*
X4224286Y-18431089D01*
X4195714Y-18431089D01*
X4167143Y-18416804D01*
X4152857Y-18402518D01*
X4138571Y-18373947D01*
X4124286Y-18316804D01*
X4124286Y-18245375D01*
X4138571Y-18188232D01*
X4152857Y-18159661D01*
X4167143Y-18145375D01*
X4195714Y-18131089D01*
X4424286Y-18402518D02*
X4438571Y-18416804D01*
X4424286Y-18431089D01*
X4410000Y-18416804D01*
X4424286Y-18402518D01*
X4424286Y-18431089D01*
X4624286Y-18131089D02*
X4652857Y-18131089D01*
X4681428Y-18145375D01*
X4695714Y-18159661D01*
X4710000Y-18188232D01*
X4724286Y-18245375D01*
X4724286Y-18316804D01*
X4710000Y-18373947D01*
X4695714Y-18402518D01*
X4681428Y-18416804D01*
X4652857Y-18431089D01*
X4624286Y-18431089D01*
X4595714Y-18416804D01*
X4581428Y-18402518D01*
X4567143Y-18373947D01*
X4552857Y-18316804D01*
X4552857Y-18245375D01*
X4567143Y-18188232D01*
X4581428Y-18159661D01*
X4595714Y-18145375D01*
X4624286Y-18131089D01*
X4824286Y-18131089D02*
X5010000Y-18131089D01*
X4910000Y-18245375D01*
X4952857Y-18245375D01*
X4981428Y-18259661D01*
X4995714Y-18273947D01*
X5010000Y-18302518D01*
X5010000Y-18373947D01*
X4995714Y-18402518D01*
X4981428Y-18416804D01*
X4952857Y-18431089D01*
X4867143Y-18431089D01*
X4838571Y-18416804D01*
X4824286Y-18402518D01*
X5281428Y-18131089D02*
X5138571Y-18131089D01*
X5124286Y-18273947D01*
X5138571Y-18259661D01*
X5167143Y-18245375D01*
X5238571Y-18245375D01*
X5267143Y-18259661D01*
X5281428Y-18273947D01*
X5295714Y-18302518D01*
X5295714Y-18373947D01*
X5281428Y-18402518D01*
X5267143Y-18416804D01*
X5238571Y-18431089D01*
X5167143Y-18431089D01*
X5138571Y-18416804D01*
X5124286Y-18402518D01*
X5552857Y-18231089D02*
X5552857Y-18431089D01*
X5481428Y-18116804D02*
X5410000Y-18331089D01*
X5595714Y-18331089D01*
X5695714Y-18131089D02*
X5695714Y-18188232D01*
X5810000Y-18131089D02*
X5810000Y-18188232D01*
X6252857Y-18545375D02*
X6238571Y-18531089D01*
X6210000Y-18488232D01*
X6195714Y-18459661D01*
X6181428Y-18416804D01*
X6167143Y-18345375D01*
X6167143Y-18288232D01*
X6181428Y-18216804D01*
X6195714Y-18173947D01*
X6210000Y-18145375D01*
X6238571Y-18102518D01*
X6252857Y-18088232D01*
X6495714Y-18231089D02*
X6495714Y-18431089D01*
X6424286Y-18116804D02*
X6352857Y-18331089D01*
X6538571Y-18331089D01*
X6881428Y-18431089D02*
X6881428Y-18131089D01*
X7010000Y-18431089D02*
X7010000Y-18273947D01*
X6995714Y-18245375D01*
X6967143Y-18231089D01*
X6924286Y-18231089D01*
X6895714Y-18245375D01*
X6881428Y-18259661D01*
X7195714Y-18431089D02*
X7167143Y-18416804D01*
X7152857Y-18402518D01*
X7138571Y-18373947D01*
X7138571Y-18288232D01*
X7152857Y-18259661D01*
X7167143Y-18245375D01*
X7195714Y-18231089D01*
X7238571Y-18231089D01*
X7267143Y-18245375D01*
X7281428Y-18259661D01*
X7295714Y-18288232D01*
X7295714Y-18373947D01*
X7281428Y-18402518D01*
X7267143Y-18416804D01*
X7238571Y-18431089D01*
X7195714Y-18431089D01*
X7467143Y-18431089D02*
X7438571Y-18416804D01*
X7424286Y-18388232D01*
X7424286Y-18131089D01*
X7695714Y-18416804D02*
X7667143Y-18431089D01*
X7610000Y-18431089D01*
X7581428Y-18416804D01*
X7567143Y-18388232D01*
X7567143Y-18273947D01*
X7581428Y-18245375D01*
X7610000Y-18231089D01*
X7667143Y-18231089D01*
X7695714Y-18245375D01*
X7710000Y-18273947D01*
X7710000Y-18302518D01*
X7567143Y-18331089D01*
X7824286Y-18416804D02*
X7852857Y-18431089D01*
X7910000Y-18431089D01*
X7938571Y-18416804D01*
X7952857Y-18388232D01*
X7952857Y-18373947D01*
X7938571Y-18345375D01*
X7910000Y-18331089D01*
X7867143Y-18331089D01*
X7838571Y-18316804D01*
X7824286Y-18288232D01*
X7824286Y-18273947D01*
X7838571Y-18245375D01*
X7867143Y-18231089D01*
X7910000Y-18231089D01*
X7938571Y-18245375D01*
X8052857Y-18545375D02*
X8067143Y-18531089D01*
X8095714Y-18488232D01*
X8110000Y-18459661D01*
X8124286Y-18416804D01*
X8138571Y-18345375D01*
X8138571Y-18288232D01*
X8124286Y-18216804D01*
X8110000Y-18173947D01*
X8095714Y-18145375D01*
X8067143Y-18102518D01*
X8052857Y-18088232D01*
X895000Y-18641375D02*
X995000Y-18741375D01*
X995000Y-18641375D02*
X895000Y-18741375D01*
X980356Y-18726731D02*
X980356Y-18656019D01*
X909644Y-18656019D01*
X909644Y-18726731D01*
X980356Y-18726731D01*
X1438571Y-18827089D02*
X1267143Y-18827089D01*
X1352857Y-18827089D02*
X1352857Y-18527089D01*
X1324286Y-18569947D01*
X1295714Y-18598518D01*
X1267143Y-18612804D01*
X1567143Y-18798518D02*
X1581428Y-18812804D01*
X1567143Y-18827089D01*
X1552857Y-18812804D01*
X1567143Y-18798518D01*
X1567143Y-18827089D01*
X1767143Y-18527089D02*
X1795714Y-18527089D01*
X1824286Y-18541375D01*
X1838571Y-18555661D01*
X1852857Y-18584232D01*
X1867143Y-18641375D01*
X1867143Y-18712804D01*
X1852857Y-18769947D01*
X1838571Y-18798518D01*
X1824286Y-18812804D01*
X1795714Y-18827089D01*
X1767143Y-18827089D01*
X1738571Y-18812804D01*
X1724286Y-18798518D01*
X1710000Y-18769947D01*
X1695714Y-18712804D01*
X1695714Y-18641375D01*
X1710000Y-18584232D01*
X1724286Y-18555661D01*
X1738571Y-18541375D01*
X1767143Y-18527089D01*
X2052857Y-18527089D02*
X2081428Y-18527089D01*
X2110000Y-18541375D01*
X2124286Y-18555661D01*
X2138571Y-18584232D01*
X2152857Y-18641375D01*
X2152857Y-18712804D01*
X2138571Y-18769947D01*
X2124286Y-18798518D01*
X2110000Y-18812804D01*
X2081428Y-18827089D01*
X2052857Y-18827089D01*
X2024286Y-18812804D01*
X2010000Y-18798518D01*
X1995714Y-18769947D01*
X1981428Y-18712804D01*
X1981428Y-18641375D01*
X1995714Y-18584232D01*
X2010000Y-18555661D01*
X2024286Y-18541375D01*
X2052857Y-18527089D01*
X2338571Y-18527089D02*
X2367143Y-18527089D01*
X2395714Y-18541375D01*
X2410000Y-18555661D01*
X2424286Y-18584232D01*
X2438571Y-18641375D01*
X2438571Y-18712804D01*
X2424286Y-18769947D01*
X2410000Y-18798518D01*
X2395714Y-18812804D01*
X2367143Y-18827089D01*
X2338571Y-18827089D01*
X2310000Y-18812804D01*
X2295714Y-18798518D01*
X2281428Y-18769947D01*
X2267143Y-18712804D01*
X2267143Y-18641375D01*
X2281428Y-18584232D01*
X2295714Y-18555661D01*
X2310000Y-18541375D01*
X2338571Y-18527089D01*
X2567143Y-18827089D02*
X2567143Y-18627089D01*
X2567143Y-18655661D02*
X2581428Y-18641375D01*
X2610000Y-18627089D01*
X2652857Y-18627089D01*
X2681428Y-18641375D01*
X2695714Y-18669947D01*
X2695714Y-18827089D01*
X2695714Y-18669947D02*
X2710000Y-18641375D01*
X2738571Y-18627089D01*
X2781428Y-18627089D01*
X2810000Y-18641375D01*
X2824286Y-18669947D01*
X2824286Y-18827089D01*
X2967143Y-18827089D02*
X2967143Y-18627089D01*
X2967143Y-18655661D02*
X2981428Y-18641375D01*
X3010000Y-18627089D01*
X3052857Y-18627089D01*
X3081428Y-18641375D01*
X3095714Y-18669947D01*
X3095714Y-18827089D01*
X3095714Y-18669947D02*
X3110000Y-18641375D01*
X3138571Y-18627089D01*
X3181428Y-18627089D01*
X3210000Y-18641375D01*
X3224286Y-18669947D01*
X3224286Y-18827089D01*
X3810000Y-18512804D02*
X3552857Y-18898518D01*
X4195714Y-18527089D02*
X4224286Y-18527089D01*
X4252857Y-18541375D01*
X4267143Y-18555661D01*
X4281428Y-18584232D01*
X4295714Y-18641375D01*
X4295714Y-18712804D01*
X4281428Y-18769947D01*
X4267143Y-18798518D01*
X4252857Y-18812804D01*
X4224286Y-18827089D01*
X4195714Y-18827089D01*
X4167143Y-18812804D01*
X4152857Y-18798518D01*
X4138571Y-18769947D01*
X4124286Y-18712804D01*
X4124286Y-18641375D01*
X4138571Y-18584232D01*
X4152857Y-18555661D01*
X4167143Y-18541375D01*
X4195714Y-18527089D01*
X4424286Y-18798518D02*
X4438571Y-18812804D01*
X4424286Y-18827089D01*
X4410000Y-18812804D01*
X4424286Y-18798518D01*
X4424286Y-18827089D01*
X4624286Y-18527089D02*
X4652857Y-18527089D01*
X4681428Y-18541375D01*
X4695714Y-18555661D01*
X4710000Y-18584232D01*
X4724286Y-18641375D01*
X4724286Y-18712804D01*
X4710000Y-18769947D01*
X4695714Y-18798518D01*
X4681428Y-18812804D01*
X4652857Y-18827089D01*
X4624286Y-18827089D01*
X4595714Y-18812804D01*
X4581428Y-18798518D01*
X4567143Y-18769947D01*
X4552857Y-18712804D01*
X4552857Y-18641375D01*
X4567143Y-18584232D01*
X4581428Y-18555661D01*
X4595714Y-18541375D01*
X4624286Y-18527089D01*
X4824286Y-18527089D02*
X5010000Y-18527089D01*
X4910000Y-18641375D01*
X4952857Y-18641375D01*
X4981428Y-18655661D01*
X4995714Y-18669947D01*
X5010000Y-18698518D01*
X5010000Y-18769947D01*
X4995714Y-18798518D01*
X4981428Y-18812804D01*
X4952857Y-18827089D01*
X4867143Y-18827089D01*
X4838571Y-18812804D01*
X4824286Y-18798518D01*
X5152857Y-18827089D02*
X5210000Y-18827089D01*
X5238571Y-18812804D01*
X5252857Y-18798518D01*
X5281428Y-18755661D01*
X5295714Y-18698518D01*
X5295714Y-18584232D01*
X5281428Y-18555661D01*
X5267143Y-18541375D01*
X5238571Y-18527089D01*
X5181428Y-18527089D01*
X5152857Y-18541375D01*
X5138571Y-18555661D01*
X5124286Y-18584232D01*
X5124286Y-18655661D01*
X5138571Y-18684232D01*
X5152857Y-18698518D01*
X5181428Y-18712804D01*
X5238571Y-18712804D01*
X5267143Y-18698518D01*
X5281428Y-18684232D01*
X5295714Y-18655661D01*
X5552857Y-18627089D02*
X5552857Y-18827089D01*
X5481428Y-18512804D02*
X5410000Y-18727089D01*
X5595714Y-18727089D01*
X5695714Y-18527089D02*
X5695714Y-18584232D01*
X5810000Y-18527089D02*
X5810000Y-18584232D01*
X6252857Y-18941375D02*
X6238571Y-18927089D01*
X6210000Y-18884232D01*
X6195714Y-18855661D01*
X6181428Y-18812804D01*
X6167143Y-18741375D01*
X6167143Y-18684232D01*
X6181428Y-18612804D01*
X6195714Y-18569947D01*
X6210000Y-18541375D01*
X6238571Y-18498518D01*
X6252857Y-18484232D01*
X6495714Y-18527089D02*
X6438571Y-18527089D01*
X6410000Y-18541375D01*
X6395714Y-18555661D01*
X6367143Y-18598518D01*
X6352857Y-18655661D01*
X6352857Y-18769947D01*
X6367143Y-18798518D01*
X6381428Y-18812804D01*
X6410000Y-18827089D01*
X6467143Y-18827089D01*
X6495714Y-18812804D01*
X6510000Y-18798518D01*
X6524286Y-18769947D01*
X6524286Y-18698518D01*
X6510000Y-18669947D01*
X6495714Y-18655661D01*
X6467143Y-18641375D01*
X6410000Y-18641375D01*
X6381428Y-18655661D01*
X6367143Y-18669947D01*
X6352857Y-18698518D01*
X6881428Y-18827089D02*
X6881428Y-18527089D01*
X7010000Y-18827089D02*
X7010000Y-18669947D01*
X6995714Y-18641375D01*
X6967143Y-18627089D01*
X6924286Y-18627089D01*
X6895714Y-18641375D01*
X6881428Y-18655661D01*
X7195714Y-18827089D02*
X7167143Y-18812804D01*
X7152857Y-18798518D01*
X7138571Y-18769947D01*
X7138571Y-18684232D01*
X7152857Y-18655661D01*
X7167143Y-18641375D01*
X7195714Y-18627089D01*
X7238571Y-18627089D01*
X7267143Y-18641375D01*
X7281428Y-18655661D01*
X7295714Y-18684232D01*
X7295714Y-18769947D01*
X7281428Y-18798518D01*
X7267143Y-18812804D01*
X7238571Y-18827089D01*
X7195714Y-18827089D01*
X7467143Y-18827089D02*
X7438571Y-18812804D01*
X7424286Y-18784232D01*
X7424286Y-18527089D01*
X7695714Y-18812804D02*
X7667143Y-18827089D01*
X7610000Y-18827089D01*
X7581428Y-18812804D01*
X7567143Y-18784232D01*
X7567143Y-18669947D01*
X7581428Y-18641375D01*
X7610000Y-18627089D01*
X7667143Y-18627089D01*
X7695714Y-18641375D01*
X7710000Y-18669947D01*
X7710000Y-18698518D01*
X7567143Y-18727089D01*
X7824286Y-18812804D02*
X7852857Y-18827089D01*
X7910000Y-18827089D01*
X7938571Y-18812804D01*
X7952857Y-18784232D01*
X7952857Y-18769947D01*
X7938571Y-18741375D01*
X7910000Y-18727089D01*
X7867143Y-18727089D01*
X7838571Y-18712804D01*
X7824286Y-18684232D01*
X7824286Y-18669947D01*
X7838571Y-18641375D01*
X7867143Y-18627089D01*
X7910000Y-18627089D01*
X7938571Y-18641375D01*
X8052857Y-18941375D02*
X8067143Y-18927089D01*
X8095714Y-18884232D01*
X8110000Y-18855661D01*
X8124286Y-18812804D01*
X8138571Y-18741375D01*
X8138571Y-18684232D01*
X8124286Y-18612804D01*
X8110000Y-18569947D01*
X8095714Y-18541375D01*
X8067143Y-18498518D01*
X8052857Y-18484232D01*
X885000Y-19032375D02*
X995000Y-19142375D01*
X995000Y-19032375D02*
X885000Y-19142375D01*
X940000Y-19142375D02*
X995000Y-19087375D01*
X940000Y-19032375D01*
X885000Y-19087375D01*
X940000Y-19142375D01*
X1438571Y-19223089D02*
X1267143Y-19223089D01*
X1352857Y-19223089D02*
X1352857Y-18923089D01*
X1324286Y-18965947D01*
X1295714Y-18994518D01*
X1267143Y-19008804D01*
X1567143Y-19194518D02*
X1581428Y-19208804D01*
X1567143Y-19223089D01*
X1552857Y-19208804D01*
X1567143Y-19194518D01*
X1567143Y-19223089D01*
X1867143Y-19223089D02*
X1695714Y-19223089D01*
X1781428Y-19223089D02*
X1781428Y-18923089D01*
X1752857Y-18965947D01*
X1724286Y-18994518D01*
X1695714Y-19008804D01*
X2052857Y-18923089D02*
X2081428Y-18923089D01*
X2110000Y-18937375D01*
X2124286Y-18951661D01*
X2138571Y-18980232D01*
X2152857Y-19037375D01*
X2152857Y-19108804D01*
X2138571Y-19165947D01*
X2124286Y-19194518D01*
X2110000Y-19208804D01*
X2081428Y-19223089D01*
X2052857Y-19223089D01*
X2024286Y-19208804D01*
X2010000Y-19194518D01*
X1995714Y-19165947D01*
X1981428Y-19108804D01*
X1981428Y-19037375D01*
X1995714Y-18980232D01*
X2010000Y-18951661D01*
X2024286Y-18937375D01*
X2052857Y-18923089D01*
X2338571Y-18923089D02*
X2367143Y-18923089D01*
X2395714Y-18937375D01*
X2410000Y-18951661D01*
X2424286Y-18980232D01*
X2438571Y-19037375D01*
X2438571Y-19108804D01*
X2424286Y-19165947D01*
X2410000Y-19194518D01*
X2395714Y-19208804D01*
X2367143Y-19223089D01*
X2338571Y-19223089D01*
X2310000Y-19208804D01*
X2295714Y-19194518D01*
X2281428Y-19165947D01*
X2267143Y-19108804D01*
X2267143Y-19037375D01*
X2281428Y-18980232D01*
X2295714Y-18951661D01*
X2310000Y-18937375D01*
X2338571Y-18923089D01*
X2567143Y-19223089D02*
X2567143Y-19023089D01*
X2567143Y-19051661D02*
X2581428Y-19037375D01*
X2610000Y-19023089D01*
X2652857Y-19023089D01*
X2681428Y-19037375D01*
X2695714Y-19065947D01*
X2695714Y-19223089D01*
X2695714Y-19065947D02*
X2710000Y-19037375D01*
X2738571Y-19023089D01*
X2781428Y-19023089D01*
X2810000Y-19037375D01*
X2824286Y-19065947D01*
X2824286Y-19223089D01*
X2967143Y-19223089D02*
X2967143Y-19023089D01*
X2967143Y-19051661D02*
X2981428Y-19037375D01*
X3010000Y-19023089D01*
X3052857Y-19023089D01*
X3081428Y-19037375D01*
X3095714Y-19065947D01*
X3095714Y-19223089D01*
X3095714Y-19065947D02*
X3110000Y-19037375D01*
X3138571Y-19023089D01*
X3181428Y-19023089D01*
X3210000Y-19037375D01*
X3224286Y-19065947D01*
X3224286Y-19223089D01*
X3810000Y-18908804D02*
X3552857Y-19294518D01*
X4195714Y-18923089D02*
X4224286Y-18923089D01*
X4252857Y-18937375D01*
X4267143Y-18951661D01*
X4281428Y-18980232D01*
X4295714Y-19037375D01*
X4295714Y-19108804D01*
X4281428Y-19165947D01*
X4267143Y-19194518D01*
X4252857Y-19208804D01*
X4224286Y-19223089D01*
X4195714Y-19223089D01*
X4167143Y-19208804D01*
X4152857Y-19194518D01*
X4138571Y-19165947D01*
X4124286Y-19108804D01*
X4124286Y-19037375D01*
X4138571Y-18980232D01*
X4152857Y-18951661D01*
X4167143Y-18937375D01*
X4195714Y-18923089D01*
X4424286Y-19194518D02*
X4438571Y-19208804D01*
X4424286Y-19223089D01*
X4410000Y-19208804D01*
X4424286Y-19194518D01*
X4424286Y-19223089D01*
X4624286Y-18923089D02*
X4652857Y-18923089D01*
X4681428Y-18937375D01*
X4695714Y-18951661D01*
X4710000Y-18980232D01*
X4724286Y-19037375D01*
X4724286Y-19108804D01*
X4710000Y-19165947D01*
X4695714Y-19194518D01*
X4681428Y-19208804D01*
X4652857Y-19223089D01*
X4624286Y-19223089D01*
X4595714Y-19208804D01*
X4581428Y-19194518D01*
X4567143Y-19165947D01*
X4552857Y-19108804D01*
X4552857Y-19037375D01*
X4567143Y-18980232D01*
X4581428Y-18951661D01*
X4595714Y-18937375D01*
X4624286Y-18923089D01*
X4981428Y-19023089D02*
X4981428Y-19223089D01*
X4910000Y-18908804D02*
X4838571Y-19123089D01*
X5024286Y-19123089D01*
X5110000Y-18923089D02*
X5295714Y-18923089D01*
X5195714Y-19037375D01*
X5238571Y-19037375D01*
X5267143Y-19051661D01*
X5281428Y-19065947D01*
X5295714Y-19094518D01*
X5295714Y-19165947D01*
X5281428Y-19194518D01*
X5267143Y-19208804D01*
X5238571Y-19223089D01*
X5152857Y-19223089D01*
X5124286Y-19208804D01*
X5110000Y-19194518D01*
X5395714Y-18923089D02*
X5581428Y-18923089D01*
X5481428Y-19037375D01*
X5524286Y-19037375D01*
X5552857Y-19051661D01*
X5567143Y-19065947D01*
X5581428Y-19094518D01*
X5581428Y-19165947D01*
X5567143Y-19194518D01*
X5552857Y-19208804D01*
X5524286Y-19223089D01*
X5438571Y-19223089D01*
X5410000Y-19208804D01*
X5395714Y-19194518D01*
X5695714Y-18923089D02*
X5695714Y-18980232D01*
X5810000Y-18923089D02*
X5810000Y-18980232D01*
X6252857Y-19337375D02*
X6238571Y-19323089D01*
X6210000Y-19280232D01*
X6195714Y-19251661D01*
X6181428Y-19208804D01*
X6167143Y-19137375D01*
X6167143Y-19080232D01*
X6181428Y-19008804D01*
X6195714Y-18965947D01*
X6210000Y-18937375D01*
X6238571Y-18894518D01*
X6252857Y-18880232D01*
X6410000Y-19051661D02*
X6381428Y-19037375D01*
X6367143Y-19023089D01*
X6352857Y-18994518D01*
X6352857Y-18980232D01*
X6367143Y-18951661D01*
X6381428Y-18937375D01*
X6410000Y-18923089D01*
X6467143Y-18923089D01*
X6495714Y-18937375D01*
X6510000Y-18951661D01*
X6524286Y-18980232D01*
X6524286Y-18994518D01*
X6510000Y-19023089D01*
X6495714Y-19037375D01*
X6467143Y-19051661D01*
X6410000Y-19051661D01*
X6381428Y-19065947D01*
X6367143Y-19080232D01*
X6352857Y-19108804D01*
X6352857Y-19165947D01*
X6367143Y-19194518D01*
X6381428Y-19208804D01*
X6410000Y-19223089D01*
X6467143Y-19223089D01*
X6495714Y-19208804D01*
X6510000Y-19194518D01*
X6524286Y-19165947D01*
X6524286Y-19108804D01*
X6510000Y-19080232D01*
X6495714Y-19065947D01*
X6467143Y-19051661D01*
X6881428Y-19223089D02*
X6881428Y-18923089D01*
X7010000Y-19223089D02*
X7010000Y-19065947D01*
X6995714Y-19037375D01*
X6967143Y-19023089D01*
X6924286Y-19023089D01*
X6895714Y-19037375D01*
X6881428Y-19051661D01*
X7195714Y-19223089D02*
X7167143Y-19208804D01*
X7152857Y-19194518D01*
X7138571Y-19165947D01*
X7138571Y-19080232D01*
X7152857Y-19051661D01*
X7167143Y-19037375D01*
X7195714Y-19023089D01*
X7238571Y-19023089D01*
X7267143Y-19037375D01*
X7281428Y-19051661D01*
X7295714Y-19080232D01*
X7295714Y-19165947D01*
X7281428Y-19194518D01*
X7267143Y-19208804D01*
X7238571Y-19223089D01*
X7195714Y-19223089D01*
X7467143Y-19223089D02*
X7438571Y-19208804D01*
X7424286Y-19180232D01*
X7424286Y-18923089D01*
X7695714Y-19208804D02*
X7667143Y-19223089D01*
X7610000Y-19223089D01*
X7581428Y-19208804D01*
X7567143Y-19180232D01*
X7567143Y-19065947D01*
X7581428Y-19037375D01*
X7610000Y-19023089D01*
X7667143Y-19023089D01*
X7695714Y-19037375D01*
X7710000Y-19065947D01*
X7710000Y-19094518D01*
X7567143Y-19123089D01*
X7824286Y-19208804D02*
X7852857Y-19223089D01*
X7910000Y-19223089D01*
X7938571Y-19208804D01*
X7952857Y-19180232D01*
X7952857Y-19165947D01*
X7938571Y-19137375D01*
X7910000Y-19123089D01*
X7867143Y-19123089D01*
X7838571Y-19108804D01*
X7824286Y-19080232D01*
X7824286Y-19065947D01*
X7838571Y-19037375D01*
X7867143Y-19023089D01*
X7910000Y-19023089D01*
X7938571Y-19037375D01*
X8052857Y-19337375D02*
X8067143Y-19323089D01*
X8095714Y-19280232D01*
X8110000Y-19251661D01*
X8124286Y-19208804D01*
X8138571Y-19137375D01*
X8138571Y-19080232D01*
X8124286Y-19008804D01*
X8110000Y-18965947D01*
X8095714Y-18937375D01*
X8067143Y-18894518D01*
X8052857Y-18880232D01*
M02*
