G04 #@! TF.GenerationSoftware,KiCad,Pcbnew,(5.1.10)-1*
G04 #@! TF.CreationDate,2021-12-08T21:58:55+07:00*
G04 #@! TF.ProjectId,lumberjack,6c756d62-6572-46a6-9163-6b2e6b696361,1.5*
G04 #@! TF.SameCoordinates,Original*
G04 #@! TF.FileFunction,Paste,Bot*
G04 #@! TF.FilePolarity,Positive*
%FSLAX46Y46*%
G04 Gerber Fmt 4.6, Leading zero omitted, Abs format (unit mm)*
G04 Created by KiCad (PCBNEW (5.1.10)-1) date 2021-12-08 21:58:55*
%MOMM*%
%LPD*%
G01*
G04 APERTURE LIST*
%ADD10R,2.550000X2.500000*%
G04 APERTURE END LIST*
D10*
X24891968Y-59213750D03*
X11964968Y-61753750D03*
X272542224Y-59213804D03*
X259615224Y-61753804D03*
X120142096Y-97313836D03*
X107215096Y-99853836D03*
X43942032Y-78263820D03*
X31015032Y-80803820D03*
X43942032Y-135413868D03*
X31015032Y-137953868D03*
X43942032Y-97313836D03*
X31015032Y-99853836D03*
X120142096Y-135413868D03*
X107215096Y-137953868D03*
X43942032Y-59213804D03*
X31015032Y-61753804D03*
X291592240Y-78263820D03*
X278665240Y-80803820D03*
X234442192Y-116363852D03*
X221515192Y-118903852D03*
X253492208Y-78263820D03*
X240565208Y-80803820D03*
X253492208Y-59213804D03*
X240565208Y-61753804D03*
X272542224Y-78263820D03*
X259615224Y-80803820D03*
X253492208Y-97313836D03*
X240565208Y-99853836D03*
X291592240Y-97313836D03*
X278665240Y-99853836D03*
X272542224Y-97313836D03*
X259615224Y-99853836D03*
X291592240Y-116363852D03*
X278665240Y-118903852D03*
X272542224Y-116363852D03*
X259615224Y-118903852D03*
X234442192Y-97313836D03*
X221515192Y-99853836D03*
X215392176Y-97313836D03*
X202465176Y-99853836D03*
X291592240Y-135413868D03*
X278665240Y-137953868D03*
X253492208Y-116363852D03*
X240565208Y-118903852D03*
X215392176Y-116363852D03*
X202465176Y-118903852D03*
X272542224Y-135413868D03*
X259615224Y-137953868D03*
X253492208Y-135413868D03*
X240565208Y-137953868D03*
X234442192Y-135413868D03*
X221515192Y-137953868D03*
X215392176Y-135413868D03*
X202465176Y-137953868D03*
X120142096Y-59213804D03*
X107215096Y-61753804D03*
X120142096Y-78263820D03*
X107215096Y-80803820D03*
X82042064Y-78263820D03*
X69115064Y-80803820D03*
X101092080Y-135413868D03*
X88165080Y-137953868D03*
X62992048Y-135413868D03*
X50065048Y-137953868D03*
X24892016Y-78263820D03*
X11965016Y-80803820D03*
X62992048Y-59213804D03*
X50065048Y-61753804D03*
X82042064Y-59213804D03*
X69115064Y-61753804D03*
X101092080Y-59213804D03*
X88165080Y-61753804D03*
X291592240Y-59213804D03*
X278665240Y-61753804D03*
X234442192Y-59213804D03*
X221515192Y-61753804D03*
X62992048Y-78263820D03*
X50065048Y-80803820D03*
X234442192Y-78263820D03*
X221515192Y-80803820D03*
X24892016Y-97313836D03*
X11965016Y-99853836D03*
X62992048Y-97313836D03*
X50065048Y-99853836D03*
X101092080Y-78263820D03*
X88165080Y-80803820D03*
X215392176Y-78263820D03*
X202465176Y-80803820D03*
X24892016Y-116363852D03*
X11965016Y-118903852D03*
X43942032Y-116363852D03*
X31015032Y-118903852D03*
X82042064Y-97313836D03*
X69115064Y-99853836D03*
X101092080Y-97313836D03*
X88165080Y-99853836D03*
X24892016Y-135413868D03*
X11965016Y-137953868D03*
X62992048Y-116363852D03*
X50065048Y-118903852D03*
X82042064Y-116363852D03*
X69115064Y-118903852D03*
X101092080Y-116363852D03*
X88165080Y-118903852D03*
X82042064Y-135413868D03*
X69115064Y-137953868D03*
X120142096Y-116363852D03*
X107215096Y-118903852D03*
X215392176Y-59213804D03*
X202465176Y-61753804D03*
X196342160Y-59213804D03*
X183415160Y-61753804D03*
X196342160Y-78263820D03*
X183415160Y-80803820D03*
X196342160Y-97313836D03*
X183415160Y-99853836D03*
X196342160Y-116363852D03*
X183415160Y-118903852D03*
X196342160Y-135413868D03*
X183415160Y-137953868D03*
X194183168Y-145573868D03*
X207110168Y-143033868D03*
X98933088Y-145573868D03*
X111860088Y-143033868D03*
G36*
G01*
X50600000Y-70000000D02*
X51850000Y-70000000D01*
G75*
G02*
X52000000Y-70150000I0J-150000D01*
G01*
X52000000Y-70450000D01*
G75*
G02*
X51850000Y-70600000I-150000J0D01*
G01*
X50600000Y-70600000D01*
G75*
G02*
X50450000Y-70450000I0J150000D01*
G01*
X50450000Y-70150000D01*
G75*
G02*
X50600000Y-70000000I150000J0D01*
G01*
G37*
G36*
G01*
X50600000Y-71000000D02*
X51850000Y-71000000D01*
G75*
G02*
X52000000Y-71150000I0J-150000D01*
G01*
X52000000Y-71450000D01*
G75*
G02*
X51850000Y-71600000I-150000J0D01*
G01*
X50600000Y-71600000D01*
G75*
G02*
X50450000Y-71450000I0J150000D01*
G01*
X50450000Y-71150000D01*
G75*
G02*
X50600000Y-71000000I150000J0D01*
G01*
G37*
G36*
G01*
X50600000Y-72000000D02*
X51850000Y-72000000D01*
G75*
G02*
X52000000Y-72150000I0J-150000D01*
G01*
X52000000Y-72450000D01*
G75*
G02*
X51850000Y-72600000I-150000J0D01*
G01*
X50600000Y-72600000D01*
G75*
G02*
X50450000Y-72450000I0J150000D01*
G01*
X50450000Y-72150000D01*
G75*
G02*
X50600000Y-72000000I150000J0D01*
G01*
G37*
G36*
G01*
X50600000Y-73000000D02*
X51850000Y-73000000D01*
G75*
G02*
X52000000Y-73150000I0J-150000D01*
G01*
X52000000Y-73450000D01*
G75*
G02*
X51850000Y-73600000I-150000J0D01*
G01*
X50600000Y-73600000D01*
G75*
G02*
X50450000Y-73450000I0J150000D01*
G01*
X50450000Y-73150000D01*
G75*
G02*
X50600000Y-73000000I150000J0D01*
G01*
G37*
G36*
G01*
X54449999Y-68400000D02*
X55750001Y-68400000D01*
G75*
G02*
X56000000Y-68649999I0J-249999D01*
G01*
X56000000Y-69350001D01*
G75*
G02*
X55750001Y-69600000I-249999J0D01*
G01*
X54449999Y-69600000D01*
G75*
G02*
X54200000Y-69350001I0J249999D01*
G01*
X54200000Y-68649999D01*
G75*
G02*
X54449999Y-68400000I249999J0D01*
G01*
G37*
G36*
G01*
X54449999Y-74000000D02*
X55750001Y-74000000D01*
G75*
G02*
X56000000Y-74249999I0J-249999D01*
G01*
X56000000Y-74950001D01*
G75*
G02*
X55750001Y-75200000I-249999J0D01*
G01*
X54449999Y-75200000D01*
G75*
G02*
X54200000Y-74950001I0J249999D01*
G01*
X54200000Y-74249999D01*
G75*
G02*
X54449999Y-74000000I249999J0D01*
G01*
G37*
M02*
