<?xml version="1.0" standalone="no"?>
 <!DOCTYPE svg PUBLIC "-//W3C//DTD SVG 1.1//EN" 
 "http://www.w3.org/Graphics/SVG/1.1/DTD/svg11.dtd"> 
<svg
  xmlns:svg="http://www.w3.org/2000/svg"
  xmlns="http://www.w3.org/2000/svg"
  xmlns:xlink="http://www.w3.org/1999/xlink"
  version="1.1"
  width="11.437620cm" height="9.532620cm" viewBox="0 0 45030 37530">
<title>SVG Picture created as lumberjack-split-brd.svg date 2021/12/11 00:43:22 </title>
  <desc>Picture generated by PCBNEW </desc>
<g style="fill:#000000; fill-opacity:1;stroke:#000000; stroke-opacity:1;
stroke-linecap:round; stroke-linejoin:round;"
 transform="translate(0 0) scale(1 1)">
</g>
<g style="fill:#000000; fill-opacity:0.0; 
stroke:#000000; stroke-width:-0.000393701; stroke-opacity:1; 
stroke-linecap:round; stroke-linejoin:round;">
<g >
</g>
<g style="fill:#000000; fill-opacity:1.0; 
stroke:#000000; stroke-width:0; stroke-opacity:1; 
stroke-linecap:round; stroke-linejoin:round;">
<circle cx="22519.7" cy="19163.4" r="433.071" /> 
</g>
<g style="fill:#000000; fill-opacity:1.0; 
stroke:#000000; stroke-width:39.3701; stroke-opacity:1; 
stroke-linecap:round; stroke-linejoin:round;">
</g>
<g >
</g>
<g style="fill:#000000; fill-opacity:1.0; 
stroke:#000000; stroke-width:39.3701; stroke-opacity:1; 
stroke-linecap:round; stroke-linejoin:round;">
</g>
<g style="fill:#000000; fill-opacity:1.0; 
stroke:#000000; stroke-width:0; stroke-opacity:1; 
stroke-linecap:round; stroke-linejoin:round;">
<circle cx="37519.7" cy="29944.9" r="433.071" /> 
</g>
<g style="fill:#000000; fill-opacity:1.0; 
stroke:#000000; stroke-width:39.3701; stroke-opacity:1; 
stroke-linecap:round; stroke-linejoin:round;">
</g>
<g >
</g>
<g style="fill:#000000; fill-opacity:1.0; 
stroke:#000000; stroke-width:39.3701; stroke-opacity:1; 
stroke-linecap:round; stroke-linejoin:round;">
</g>
<g style="fill:#000000; fill-opacity:1.0; 
stroke:#000000; stroke-width:0; stroke-opacity:1; 
stroke-linecap:round; stroke-linejoin:round;">
<circle cx="15019.7" cy="30019.7" r="433.071" /> 
</g>
<g style="fill:#000000; fill-opacity:1.0; 
stroke:#000000; stroke-width:39.3701; stroke-opacity:1; 
stroke-linecap:round; stroke-linejoin:round;">
</g>
<g >
</g>
<g style="fill:#000000; fill-opacity:1.0; 
stroke:#000000; stroke-width:39.3701; stroke-opacity:1; 
stroke-linecap:round; stroke-linejoin:round;">
</g>
<g style="fill:#000000; fill-opacity:1.0; 
stroke:#000000; stroke-width:0; stroke-opacity:1; 
stroke-linecap:round; stroke-linejoin:round;">
<circle cx="37519.7" cy="7519.69" r="433.071" /> 
</g>
<g style="fill:#000000; fill-opacity:1.0; 
stroke:#000000; stroke-width:39.3701; stroke-opacity:1; 
stroke-linecap:round; stroke-linejoin:round;">
</g>
<g >
</g>
<g style="fill:#000000; fill-opacity:1.0; 
stroke:#000000; stroke-width:39.3701; stroke-opacity:1; 
stroke-linecap:round; stroke-linejoin:round;">
</g>
<g style="fill:#000000; fill-opacity:1.0; 
stroke:#000000; stroke-width:0; stroke-opacity:1; 
stroke-linecap:round; stroke-linejoin:round;">
<circle cx="7519.69" cy="7519.69" r="433.071" /> 
</g>
<g style="fill:#000000; fill-opacity:1.0; 
stroke:#000000; stroke-width:39.3701; stroke-opacity:1; 
stroke-linecap:round; stroke-linejoin:round;">
</g>
<g >
</g>
<g >
</g>
<g >
</g>
</g>
<g style="fill:#000000; fill-opacity:1.0; 
stroke:#000000; stroke-width:39.3701; stroke-opacity:1; 
stroke-linecap:round; stroke-linejoin:round;">
<g >
</g>
<g >
</g>
<g >
</g>
<g >
</g>
<g >
</g>
<g >
</g>
<g >
</g>
<g >
</g>
</g>
<g style="fill:#FFFFFF; fill-opacity:1.0; 
stroke:#FFFFFF; stroke-width:39.3701; stroke-opacity:1; 
stroke-linecap:round; stroke-linejoin:round;">
</g>
<g style="fill:#FFFFFF; fill-opacity:1.0; 
stroke:#FFFFFF; stroke-width:0; stroke-opacity:1; 
stroke-linecap:round; stroke-linejoin:round;">
<circle cx="22519.7" cy="19163.4" r="433.071" /> 
</g>
<g style="fill:#FFFFFF; fill-opacity:1.0; 
stroke:#FFFFFF; stroke-width:39.3701; stroke-opacity:1; 
stroke-linecap:round; stroke-linejoin:round;">
</g>
<g style="fill:#FFFFFF; fill-opacity:1.0; 
stroke:#FFFFFF; stroke-width:0; stroke-opacity:1; 
stroke-linecap:round; stroke-linejoin:round;">
<circle cx="37519.7" cy="29944.9" r="433.071" /> 
</g>
<g style="fill:#FFFFFF; fill-opacity:1.0; 
stroke:#FFFFFF; stroke-width:39.3701; stroke-opacity:1; 
stroke-linecap:round; stroke-linejoin:round;">
</g>
<g style="fill:#FFFFFF; fill-opacity:1.0; 
stroke:#FFFFFF; stroke-width:0; stroke-opacity:1; 
stroke-linecap:round; stroke-linejoin:round;">
<circle cx="15019.7" cy="30019.7" r="433.071" /> 
</g>
<g style="fill:#FFFFFF; fill-opacity:1.0; 
stroke:#FFFFFF; stroke-width:39.3701; stroke-opacity:1; 
stroke-linecap:round; stroke-linejoin:round;">
</g>
<g style="fill:#FFFFFF; fill-opacity:1.0; 
stroke:#FFFFFF; stroke-width:0; stroke-opacity:1; 
stroke-linecap:round; stroke-linejoin:round;">
<circle cx="37519.7" cy="7519.69" r="433.071" /> 
</g>
<g style="fill:#FFFFFF; fill-opacity:1.0; 
stroke:#FFFFFF; stroke-width:39.3701; stroke-opacity:1; 
stroke-linecap:round; stroke-linejoin:round;">
</g>
<g style="fill:#FFFFFF; fill-opacity:1.0; 
stroke:#FFFFFF; stroke-width:0; stroke-opacity:1; 
stroke-linecap:round; stroke-linejoin:round;">
<circle cx="7519.69" cy="7519.69" r="433.071" /> 
</g>
<g style="fill:#FFFFFF; fill-opacity:1.0; 
stroke:#FFFFFF; stroke-width:39.3701; stroke-opacity:1; 
stroke-linecap:round; stroke-linejoin:round;">
</g>
<g style="fill:#000000; fill-opacity:1.0; 
stroke:#000000; stroke-width:39.3701; stroke-opacity:1; 
stroke-linecap:round; stroke-linejoin:round;">
</g>
<g style="fill:#000000; fill-opacity:0.0; 
stroke:#000000; stroke-width:39.3701; stroke-opacity:1; 
stroke-linecap:round; stroke-linejoin:round;">
<path d="M21582 6582
L21582 957
" />
<path d="M15957 6582
L21582 6582
" />
<path d="M21582 957
L15957 957
" />
<path d="M15957 957
L15957 6582
" />
<path d="M14082 957
L8457 957
" />
<path d="M8457 6582
L14082 6582
" />
<path d="M14082 6582
L14082 957
" />
<path d="M14082 14082
L14082 8457
" />
<path d="M14082 8457
L8457 8457
" />
<path d="M15957 8457
L15957 14082
" />
<path d="M21582 8457
L15957 8457
" />
<path d="M21582 14082
L21582 8457
" />
<path d="M14569 37519
L44316 37519
" />
<path d="M9845 37047
L14569 37047
" />
<path d="M14569 37519
L14569 37047
" />
<path d="M19 37047
L9845 37047
" />
<path d="M44082 21582
L45019 21582
" />
<path d="M44082 23457
L45019 23457
" />
<path d="M42441 21582
L42441 23457
" />
<path d="M19 19
L19 37047
" />
<path d="M44316 19
L19 19
" />
<path d="M957 36582
L957 30957
" />
<path d="M14082 36582
L14082 30957
" />
<path d="M13144 30957
L13144 30488
" />
<path d="M1894 30488
L1894 30957
" />
<path d="M11269 30488
L11269 30957
" />
<path d="M13144 30957
L14082 30957
" />
<path d="M3769 30488
L1894 30488
" />
<path d="M957 30957
L1894 30957
" />
<path d="M14082 36582
L957 36582
" />
<path d="M15957 30957
L15957 36582
" />
<path d="M29082 36582
L23457 36582
" />
<path d="M3769 30957
L3769 30488
" />
<path d="M13144 30488
L11269 30488
" />
<path d="M30957 30957
L36582 30957
" />
<path d="M29082 30957
L29082 36582
" />
<path d="M21582 30957
L15957 30957
" />
<path d="M23457 30957
L29082 30957
" />
<path d="M38457 36582
L38457 30957
" />
<path d="M30957 36582
L30957 30957
" />
<path d="M36582 36582
L30957 36582
" />
<path d="M15957 36582
L21582 36582
" />
<path d="M21582 36582
L21582 30957
" />
<path d="M23457 36582
L23457 30957
" />
<path d="M36582 30957
L36582 36582
" />
<path d="M3769 30957
L11269 30957
" />
<path d="M957 21582
L957 15957
" />
<path d="M8457 21582
L14082 21582
" />
<path d="M29082 15957
L29082 21582
" />
<path d="M957 29082
L957 23457
" />
<path d="M36582 23457
L36582 29082
" />
<path d="M6582 29082
L957 29082
" />
<path d="M957 23457
L6582 23457
" />
<path d="M21582 29082
L21582 23457
" />
<path d="M21582 23457
L15957 23457
" />
<path d="M8457 29082
L14082 29082
" />
<path d="M14082 29082
L14082 23457
" />
<path d="M30957 29082
L30957 23457
" />
<path d="M23457 29082
L23457 23457
" />
<path d="M15957 29082
L21582 29082
" />
<path d="M29082 29082
L23457 29082
" />
<path d="M6582 23457
L6582 29082
" />
<path d="M29082 23457
L29082 29082
" />
<path d="M15957 23457
L15957 29082
" />
<path d="M8457 23457
L8457 29082
" />
<path d="M23457 23457
L29082 23457
" />
<path d="M30957 23457
L36582 23457
" />
<path d="M36582 29082
L30957 29082
" />
<path d="M14082 23457
L8457 23457
" />
<path d="M38457 29082
L38457 23457
" />
<path d="M6582 21582
L957 21582
" />
<path d="M23457 21582
L23457 15957
" />
<path d="M957 15957
L6582 15957
" />
<path d="M30957 15957
L36582 15957
" />
<path d="M8457 15957
L8457 21582
" />
<path d="M21582 15957
L15957 15957
" />
<path d="M15957 15957
L15957 21582
" />
<path d="M21582 21582
L21582 15957
" />
<path d="M14082 21582
L14082 15957
" />
<path d="M15957 21582
L21582 21582
" />
<path d="M38457 21582
L38457 15957
" />
<path d="M36582 15957
L36582 21582
" />
<path d="M6582 14082
L957 14082
" />
<path d="M957 8457
L6582 8457
" />
<path d="M23457 14082
L23457 8457
" />
<path d="M36582 8457
L36582 14082
" />
<path d="M38457 14082
L38457 8457
" />
<path d="M8457 8457
L8457 14082
" />
<path d="M38457 6582
L38457 957
" />
<path d="M30957 6582
L30957 957
" />
<path d="M36582 6582
L30957 6582
" />
<path d="M36582 957
L36582 6582
" />
<path d="M30957 957
L36582 957
" />
<path d="M23457 6582
L23457 957
" />
<path d="M29082 6582
L23457 6582
" />
<path d="M29082 957
L29082 6582
" />
<path d="M23457 957
L29082 957
" />
<path d="M8457 957
L8457 6582
" />
<path d="M957 6582
L957 957
" />
<path d="M6582 6582
L957 6582
" />
<path d="M6582 957
L6582 6582
" />
<path d="M957 957
L6582 957
" />
<path d="M30957 21582
L30957 15957
" />
<path d="M29082 21582
L23457 21582
" />
<path d="M36582 21582
L30957 21582
" />
<path d="M23457 15957
L29082 15957
" />
<path d="M14082 15957
L8457 15957
" />
<path d="M6582 15957
L6582 21582
" />
<path d="M8457 14082
L14082 14082
" />
<path d="M15957 14082
L21582 14082
" />
<path d="M957 14082
L957 8457
" />
<path d="M29082 8457
L29082 14082
" />
<path d="M30957 8457
L36582 8457
" />
<path d="M6582 8457
L6582 14082
" />
<path d="M36582 14082
L30957 14082
" />
<path d="M23457 8457
L29082 8457
" />
<path d="M30957 14082
L30957 8457
" />
<path d="M29082 14082
L23457 14082
" />
<path d="M38457 15957
L44082 15957
" />
<path d="M44082 15957
L44082 21582
" />
<path d="M42441 21582
L38457 21582
" />
<path d="M44082 8457
L44082 14082
" />
<path d="M44082 14082
L38457 14082
" />
<path d="M44082 6582
L38457 6582
" />
<path d="M44082 957
L44082 6582
" />
<path d="M38457 957
L44082 957
" />
<path d="M38457 8457
L44082 8457
" />
<path d="M44082 36582
L38457 36582
" />
<path d="M38457 30957
L44082 30957
" />
<path d="M44082 30957
L44082 36582
" />
<path d="M38457 23457
L42441 23457
" />
<path d="M44082 29082
L38457 29082
" />
<path d="M44082 23457
L44082 29082
" />
<path d="M45019 23457
L45019 36816
" />
<path d="M45019 722
L45019 21582
" />
<path d="M44316.6 37519.7 A703.126 703.126 0.0 0 0 45019.7 36816.6" />
<path d="M45019.7 722.811 A703.126 703.126 0.0 0 0 44316.6 19.6854" />
<g >
</g>
<g >
</g>
<g >
</g>
<g >
</g>
<g >
</g>
<g >
</g>
</g> 
</svg>
