G04 #@! TF.GenerationSoftware,KiCad,Pcbnew,5.1.7*
G04 #@! TF.CreationDate,2021-12-02T01:59:08+07:00*
G04 #@! TF.ProjectId,lumberjack-split,6c756d62-6572-46a6-9163-6b2d73706c69,rev?*
G04 #@! TF.SameCoordinates,Original*
G04 #@! TF.FileFunction,Copper,L1,Top*
G04 #@! TF.FilePolarity,Positive*
%FSLAX46Y46*%
G04 Gerber Fmt 4.6, Leading zero omitted, Abs format (unit mm)*
G04 Created by KiCad (PCBNEW 5.1.7) date 2021-12-02 01:59:08*
%MOMM*%
%LPD*%
G01*
G04 APERTURE LIST*
G04 #@! TA.AperFunction,ViaPad*
%ADD10C,0.600000*%
G04 #@! TD*
G04 #@! TA.AperFunction,NonConductor*
%ADD11C,0.254000*%
G04 #@! TD*
G04 #@! TA.AperFunction,NonConductor*
%ADD12C,0.100000*%
G04 #@! TD*
G04 APERTURE END LIST*
D10*
X121500000Y-69100000D03*
D11*
X215170765Y-50465124D02*
X215423532Y-50541439D01*
X215656661Y-50665394D01*
X215861271Y-50832270D01*
X216029575Y-51035715D01*
X216155156Y-51267973D01*
X216233234Y-51520200D01*
X216262932Y-51802768D01*
X216262933Y-104344088D01*
X214743500Y-104344088D01*
X214743500Y-90508668D01*
X214745585Y-90487500D01*
X214737263Y-90403009D01*
X214712618Y-90321766D01*
X214672597Y-90246891D01*
X214618737Y-90181263D01*
X214553109Y-90127403D01*
X214478234Y-90087382D01*
X214396991Y-90062737D01*
X214333668Y-90056500D01*
X214312500Y-90054415D01*
X214291332Y-90056500D01*
X200046168Y-90056500D01*
X200025000Y-90054415D01*
X200003832Y-90056500D01*
X199940509Y-90062737D01*
X199859266Y-90087382D01*
X199784391Y-90127403D01*
X199718763Y-90181263D01*
X199664903Y-90246891D01*
X199624882Y-90321766D01*
X199600237Y-90403009D01*
X199591915Y-90487500D01*
X199594001Y-90508679D01*
X199594000Y-104753920D01*
X199591915Y-104775088D01*
X199600237Y-104859579D01*
X199624882Y-104940822D01*
X199664903Y-105015697D01*
X199718763Y-105081325D01*
X199784391Y-105135185D01*
X199859266Y-105175206D01*
X199940509Y-105199851D01*
X200003832Y-105206088D01*
X200004725Y-105206088D01*
X200025000Y-105208085D01*
X200045275Y-105206088D01*
X209714489Y-105206088D01*
X209714490Y-109106500D01*
X200046168Y-109106500D01*
X200025000Y-109104415D01*
X200003832Y-109106500D01*
X199940509Y-109112737D01*
X199859266Y-109137382D01*
X199784391Y-109177403D01*
X199718763Y-109231263D01*
X199664903Y-109296891D01*
X199624882Y-109371766D01*
X199600237Y-109453009D01*
X199591915Y-109537500D01*
X199594001Y-109558679D01*
X199594000Y-123803832D01*
X199591915Y-123825000D01*
X199600237Y-123909491D01*
X199624882Y-123990734D01*
X199664903Y-124065609D01*
X199718763Y-124131237D01*
X199784391Y-124185097D01*
X199859266Y-124225118D01*
X199940509Y-124249763D01*
X200025000Y-124258085D01*
X200046168Y-124256000D01*
X214291332Y-124256000D01*
X214312500Y-124258085D01*
X214333668Y-124256000D01*
X214396991Y-124249763D01*
X214478234Y-124225118D01*
X214553109Y-124185097D01*
X214618737Y-124131237D01*
X214672597Y-124065609D01*
X214712618Y-123990734D01*
X214737263Y-123909491D01*
X214745585Y-123825000D01*
X214743500Y-123803832D01*
X214743500Y-109968592D01*
X216262932Y-109968592D01*
X216262933Y-143449343D01*
X216235100Y-143733207D01*
X216158785Y-143985972D01*
X216034828Y-144219102D01*
X215867951Y-144423713D01*
X215664509Y-144592015D01*
X215432253Y-144717595D01*
X215180024Y-144795673D01*
X214897455Y-144825372D01*
X139781356Y-144825372D01*
X139781356Y-144077540D01*
X139783441Y-144056372D01*
X139775119Y-143971881D01*
X139750474Y-143890638D01*
X139710453Y-143815763D01*
X139656593Y-143750135D01*
X139590965Y-143696275D01*
X139516090Y-143656254D01*
X139434847Y-143631609D01*
X139371524Y-143625372D01*
X139350356Y-143623287D01*
X139329188Y-143625372D01*
X102824836Y-143625372D01*
X102824836Y-142875000D01*
X104341915Y-142875000D01*
X104350237Y-142959491D01*
X104374882Y-143040734D01*
X104414903Y-143115609D01*
X104430438Y-143134538D01*
X104468763Y-143181237D01*
X104534391Y-143235097D01*
X104609266Y-143275118D01*
X104690509Y-143299763D01*
X104775000Y-143308085D01*
X104796168Y-143306000D01*
X138091332Y-143306000D01*
X138112500Y-143308085D01*
X138133668Y-143306000D01*
X138196991Y-143299763D01*
X138278234Y-143275118D01*
X138353109Y-143235097D01*
X138418737Y-143181237D01*
X138472597Y-143115609D01*
X138512618Y-143040734D01*
X138537263Y-142959491D01*
X138545585Y-142875000D01*
X138543500Y-142853832D01*
X138543500Y-128609954D01*
X138545701Y-128587608D01*
X138545691Y-128587500D01*
X142441915Y-128587500D01*
X142444000Y-128608668D01*
X142444001Y-142853821D01*
X142441915Y-142875000D01*
X142450237Y-142959491D01*
X142474882Y-143040734D01*
X142514903Y-143115609D01*
X142568763Y-143181237D01*
X142634391Y-143235097D01*
X142709266Y-143275118D01*
X142790509Y-143299763D01*
X142853832Y-143306000D01*
X142875000Y-143308085D01*
X142896168Y-143306000D01*
X157141332Y-143306000D01*
X157162500Y-143308085D01*
X157183668Y-143306000D01*
X157246991Y-143299763D01*
X157328234Y-143275118D01*
X157403109Y-143235097D01*
X157468737Y-143181237D01*
X157522597Y-143115609D01*
X157562618Y-143040734D01*
X157587263Y-142959491D01*
X157595585Y-142875000D01*
X157593500Y-142853832D01*
X157593500Y-128608668D01*
X157595585Y-128587500D01*
X161491915Y-128587500D01*
X161494001Y-128608679D01*
X161494000Y-142853832D01*
X161491915Y-142875000D01*
X161500237Y-142959491D01*
X161524882Y-143040734D01*
X161564903Y-143115609D01*
X161580438Y-143134538D01*
X161618763Y-143181237D01*
X161684391Y-143235097D01*
X161759266Y-143275118D01*
X161840509Y-143299763D01*
X161925000Y-143308085D01*
X161946168Y-143306000D01*
X176191332Y-143306000D01*
X176212500Y-143308085D01*
X176233668Y-143306000D01*
X176296991Y-143299763D01*
X176378234Y-143275118D01*
X176453109Y-143235097D01*
X176518737Y-143181237D01*
X176572597Y-143115609D01*
X176612618Y-143040734D01*
X176637263Y-142959491D01*
X176645585Y-142875000D01*
X176643500Y-142853832D01*
X176643500Y-128608668D01*
X176645585Y-128587500D01*
X180541915Y-128587500D01*
X180544001Y-128608679D01*
X180544000Y-142853832D01*
X180541915Y-142875000D01*
X180550237Y-142959491D01*
X180574882Y-143040734D01*
X180614903Y-143115609D01*
X180630438Y-143134538D01*
X180668763Y-143181237D01*
X180734391Y-143235097D01*
X180809266Y-143275118D01*
X180890509Y-143299763D01*
X180975000Y-143308085D01*
X180996168Y-143306000D01*
X195241332Y-143306000D01*
X195262500Y-143308085D01*
X195283668Y-143306000D01*
X195346991Y-143299763D01*
X195428234Y-143275118D01*
X195503109Y-143235097D01*
X195568737Y-143181237D01*
X195622597Y-143115609D01*
X195662618Y-143040734D01*
X195687263Y-142959491D01*
X195695585Y-142875000D01*
X195693500Y-142853832D01*
X195693500Y-128608668D01*
X195695585Y-128587500D01*
X199591915Y-128587500D01*
X199594001Y-128608679D01*
X199594000Y-142853832D01*
X199591915Y-142875000D01*
X199600237Y-142959491D01*
X199624882Y-143040734D01*
X199664903Y-143115609D01*
X199680438Y-143134538D01*
X199718763Y-143181237D01*
X199784391Y-143235097D01*
X199859266Y-143275118D01*
X199940509Y-143299763D01*
X200025000Y-143308085D01*
X200046168Y-143306000D01*
X214291332Y-143306000D01*
X214312500Y-143308085D01*
X214333668Y-143306000D01*
X214396991Y-143299763D01*
X214478234Y-143275118D01*
X214553109Y-143235097D01*
X214618737Y-143181237D01*
X214672597Y-143115609D01*
X214712618Y-143040734D01*
X214737263Y-142959491D01*
X214745585Y-142875000D01*
X214743500Y-142853832D01*
X214743500Y-128608668D01*
X214745585Y-128587500D01*
X214737263Y-128503009D01*
X214712618Y-128421766D01*
X214672597Y-128346891D01*
X214618737Y-128281263D01*
X214553109Y-128227403D01*
X214478234Y-128187382D01*
X214396991Y-128162737D01*
X214333668Y-128156500D01*
X214312500Y-128154415D01*
X214291332Y-128156500D01*
X200046168Y-128156500D01*
X200025000Y-128154415D01*
X200003832Y-128156500D01*
X199940509Y-128162737D01*
X199859266Y-128187382D01*
X199784391Y-128227403D01*
X199718763Y-128281263D01*
X199664903Y-128346891D01*
X199624882Y-128421766D01*
X199600237Y-128503009D01*
X199591915Y-128587500D01*
X195695585Y-128587500D01*
X195687263Y-128503009D01*
X195662618Y-128421766D01*
X195622597Y-128346891D01*
X195568737Y-128281263D01*
X195503109Y-128227403D01*
X195428234Y-128187382D01*
X195346991Y-128162737D01*
X195283668Y-128156500D01*
X195262500Y-128154415D01*
X195241332Y-128156500D01*
X180996168Y-128156500D01*
X180975000Y-128154415D01*
X180953832Y-128156500D01*
X180890509Y-128162737D01*
X180809266Y-128187382D01*
X180734391Y-128227403D01*
X180668763Y-128281263D01*
X180614903Y-128346891D01*
X180574882Y-128421766D01*
X180550237Y-128503009D01*
X180541915Y-128587500D01*
X176645585Y-128587500D01*
X176637263Y-128503009D01*
X176612618Y-128421766D01*
X176572597Y-128346891D01*
X176518737Y-128281263D01*
X176453109Y-128227403D01*
X176378234Y-128187382D01*
X176296991Y-128162737D01*
X176233668Y-128156500D01*
X176212500Y-128154415D01*
X176191332Y-128156500D01*
X161946168Y-128156500D01*
X161925000Y-128154415D01*
X161903832Y-128156500D01*
X161840509Y-128162737D01*
X161759266Y-128187382D01*
X161684391Y-128227403D01*
X161618763Y-128281263D01*
X161564903Y-128346891D01*
X161524882Y-128421766D01*
X161500237Y-128503009D01*
X161491915Y-128587500D01*
X157595585Y-128587500D01*
X157587263Y-128503009D01*
X157562618Y-128421766D01*
X157522597Y-128346891D01*
X157468737Y-128281263D01*
X157403109Y-128227403D01*
X157328234Y-128187382D01*
X157246991Y-128162737D01*
X157183668Y-128156500D01*
X157162500Y-128154415D01*
X157141332Y-128156500D01*
X142896168Y-128156500D01*
X142875000Y-128154415D01*
X142853832Y-128156500D01*
X142790509Y-128162737D01*
X142709266Y-128187382D01*
X142634391Y-128227403D01*
X142568763Y-128281263D01*
X142514903Y-128346891D01*
X142474882Y-128421766D01*
X142450237Y-128503009D01*
X142441915Y-128587500D01*
X138545691Y-128587500D01*
X138537379Y-128503117D01*
X138512734Y-128421874D01*
X138472713Y-128346999D01*
X138418853Y-128281371D01*
X138418769Y-128281302D01*
X138418737Y-128281263D01*
X138353109Y-128227403D01*
X138278234Y-128187382D01*
X138196991Y-128162737D01*
X138112500Y-128154415D01*
X138090235Y-128156608D01*
X136162364Y-128156608D01*
X136162364Y-127418150D01*
X136164449Y-127396982D01*
X136156127Y-127312491D01*
X136131482Y-127231248D01*
X136091461Y-127156373D01*
X136037601Y-127090745D01*
X135971973Y-127036885D01*
X135897098Y-126996864D01*
X135815855Y-126972219D01*
X135752532Y-126965982D01*
X135731364Y-126963897D01*
X135710196Y-126965982D01*
X130990028Y-126965982D01*
X130968860Y-126963897D01*
X130947692Y-126965982D01*
X130884369Y-126972219D01*
X130803126Y-126996864D01*
X130728251Y-127036885D01*
X130662623Y-127090745D01*
X130608763Y-127156373D01*
X130568742Y-127231248D01*
X130544097Y-127312491D01*
X130535775Y-127396982D01*
X130537860Y-127418151D01*
X130537861Y-128156608D01*
X112349844Y-128156608D01*
X112349844Y-127418150D01*
X112351929Y-127396982D01*
X112343607Y-127312491D01*
X112318962Y-127231248D01*
X112278941Y-127156373D01*
X112225081Y-127090745D01*
X112159453Y-127036885D01*
X112084578Y-126996864D01*
X112003335Y-126972219D01*
X111940012Y-126965982D01*
X111918844Y-126963897D01*
X111897676Y-126965982D01*
X107177508Y-126965982D01*
X107156340Y-126963897D01*
X107135172Y-126965982D01*
X107071849Y-126972219D01*
X106990606Y-126996864D01*
X106915731Y-127036885D01*
X106850103Y-127090745D01*
X106796243Y-127156373D01*
X106756222Y-127231248D01*
X106731577Y-127312491D01*
X106723255Y-127396982D01*
X106725340Y-127418151D01*
X106725341Y-128156589D01*
X104796188Y-128156502D01*
X104775000Y-128154415D01*
X104713457Y-128160477D01*
X104690529Y-128162734D01*
X104690523Y-128162736D01*
X104690510Y-128162737D01*
X104638354Y-128178559D01*
X104609285Y-128187375D01*
X104609278Y-128187379D01*
X104609267Y-128187382D01*
X104561053Y-128213153D01*
X104534408Y-128227393D01*
X104534403Y-128227397D01*
X104534392Y-128227403D01*
X104496787Y-128258265D01*
X104468777Y-128281250D01*
X104468771Y-128281257D01*
X104468764Y-128281263D01*
X104445790Y-128309257D01*
X104414914Y-128346875D01*
X104414908Y-128346886D01*
X104414904Y-128346891D01*
X104400672Y-128373518D01*
X104374890Y-128421748D01*
X104374887Y-128421759D01*
X104374883Y-128421766D01*
X104366071Y-128450816D01*
X104350241Y-128502990D01*
X104350240Y-128503003D01*
X104350238Y-128503009D01*
X104347168Y-128534178D01*
X104341916Y-128587481D01*
X104344001Y-128608659D01*
X104344000Y-142853832D01*
X104341915Y-142875000D01*
X102824836Y-142875000D01*
X102824836Y-109537500D01*
X104341915Y-109537500D01*
X104344001Y-109558679D01*
X104344000Y-123803832D01*
X104341915Y-123825000D01*
X104350237Y-123909491D01*
X104374882Y-123990734D01*
X104414903Y-124065609D01*
X104468763Y-124131237D01*
X104534391Y-124185097D01*
X104609266Y-124225118D01*
X104690509Y-124249763D01*
X104775000Y-124258085D01*
X104796168Y-124256000D01*
X119041332Y-124256000D01*
X119062500Y-124258085D01*
X119083668Y-124256000D01*
X119146991Y-124249763D01*
X119228234Y-124225118D01*
X119303109Y-124185097D01*
X119368737Y-124131237D01*
X119422597Y-124065609D01*
X119462618Y-123990734D01*
X119487263Y-123909491D01*
X119495585Y-123825000D01*
X119493500Y-123803832D01*
X119493500Y-109558668D01*
X119495585Y-109537500D01*
X123391915Y-109537500D01*
X123394000Y-109558668D01*
X123394001Y-123803821D01*
X123391915Y-123825000D01*
X123400237Y-123909491D01*
X123424882Y-123990734D01*
X123464903Y-124065609D01*
X123518763Y-124131237D01*
X123584391Y-124185097D01*
X123659266Y-124225118D01*
X123740509Y-124249763D01*
X123803832Y-124256000D01*
X123825000Y-124258085D01*
X123846168Y-124256000D01*
X138091332Y-124256000D01*
X138112500Y-124258085D01*
X138133668Y-124256000D01*
X138196991Y-124249763D01*
X138278234Y-124225118D01*
X138353109Y-124185097D01*
X138418737Y-124131237D01*
X138472597Y-124065609D01*
X138512618Y-123990734D01*
X138537263Y-123909491D01*
X138545585Y-123825000D01*
X138543500Y-123803832D01*
X138543500Y-109558668D01*
X138545585Y-109537500D01*
X142441915Y-109537500D01*
X142444000Y-109558668D01*
X142444001Y-123803821D01*
X142441915Y-123825000D01*
X142450237Y-123909491D01*
X142474882Y-123990734D01*
X142514903Y-124065609D01*
X142568763Y-124131237D01*
X142634391Y-124185097D01*
X142709266Y-124225118D01*
X142790509Y-124249763D01*
X142853832Y-124256000D01*
X142875000Y-124258085D01*
X142896168Y-124256000D01*
X157141332Y-124256000D01*
X157162500Y-124258085D01*
X157183668Y-124256000D01*
X157246991Y-124249763D01*
X157328234Y-124225118D01*
X157403109Y-124185097D01*
X157468737Y-124131237D01*
X157522597Y-124065609D01*
X157562618Y-123990734D01*
X157587263Y-123909491D01*
X157595585Y-123825000D01*
X157593500Y-123803832D01*
X157593500Y-109558668D01*
X157595585Y-109537500D01*
X161491915Y-109537500D01*
X161494001Y-109558679D01*
X161494000Y-123803832D01*
X161491915Y-123825000D01*
X161500237Y-123909491D01*
X161524882Y-123990734D01*
X161564903Y-124065609D01*
X161618763Y-124131237D01*
X161684391Y-124185097D01*
X161759266Y-124225118D01*
X161840509Y-124249763D01*
X161925000Y-124258085D01*
X161946168Y-124256000D01*
X176191332Y-124256000D01*
X176212500Y-124258085D01*
X176233668Y-124256000D01*
X176296991Y-124249763D01*
X176378234Y-124225118D01*
X176453109Y-124185097D01*
X176518737Y-124131237D01*
X176572597Y-124065609D01*
X176612618Y-123990734D01*
X176637263Y-123909491D01*
X176645585Y-123825000D01*
X176643500Y-123803832D01*
X176643500Y-109558668D01*
X176645585Y-109537500D01*
X180541915Y-109537500D01*
X180544001Y-109558679D01*
X180544000Y-123803832D01*
X180541915Y-123825000D01*
X180550237Y-123909491D01*
X180574882Y-123990734D01*
X180614903Y-124065609D01*
X180668763Y-124131237D01*
X180734391Y-124185097D01*
X180809266Y-124225118D01*
X180890509Y-124249763D01*
X180975000Y-124258085D01*
X180996168Y-124256000D01*
X195241332Y-124256000D01*
X195262500Y-124258085D01*
X195283668Y-124256000D01*
X195346991Y-124249763D01*
X195428234Y-124225118D01*
X195503109Y-124185097D01*
X195568737Y-124131237D01*
X195622597Y-124065609D01*
X195662618Y-123990734D01*
X195687263Y-123909491D01*
X195695585Y-123825000D01*
X195693500Y-123803832D01*
X195693500Y-109558668D01*
X195695585Y-109537500D01*
X195687263Y-109453009D01*
X195662618Y-109371766D01*
X195622597Y-109296891D01*
X195568737Y-109231263D01*
X195503109Y-109177403D01*
X195428234Y-109137382D01*
X195346991Y-109112737D01*
X195283668Y-109106500D01*
X195262500Y-109104415D01*
X195241332Y-109106500D01*
X180996168Y-109106500D01*
X180975000Y-109104415D01*
X180953832Y-109106500D01*
X180890509Y-109112737D01*
X180809266Y-109137382D01*
X180734391Y-109177403D01*
X180668763Y-109231263D01*
X180614903Y-109296891D01*
X180574882Y-109371766D01*
X180550237Y-109453009D01*
X180541915Y-109537500D01*
X176645585Y-109537500D01*
X176637263Y-109453009D01*
X176612618Y-109371766D01*
X176572597Y-109296891D01*
X176518737Y-109231263D01*
X176453109Y-109177403D01*
X176378234Y-109137382D01*
X176296991Y-109112737D01*
X176233668Y-109106500D01*
X176212500Y-109104415D01*
X176191332Y-109106500D01*
X161946168Y-109106500D01*
X161925000Y-109104415D01*
X161903832Y-109106500D01*
X161840509Y-109112737D01*
X161759266Y-109137382D01*
X161684391Y-109177403D01*
X161618763Y-109231263D01*
X161564903Y-109296891D01*
X161524882Y-109371766D01*
X161500237Y-109453009D01*
X161491915Y-109537500D01*
X157595585Y-109537500D01*
X157587263Y-109453009D01*
X157562618Y-109371766D01*
X157522597Y-109296891D01*
X157468737Y-109231263D01*
X157403109Y-109177403D01*
X157328234Y-109137382D01*
X157246991Y-109112737D01*
X157183668Y-109106500D01*
X157162500Y-109104415D01*
X157141332Y-109106500D01*
X142896168Y-109106500D01*
X142875000Y-109104415D01*
X142853832Y-109106500D01*
X142790509Y-109112737D01*
X142709266Y-109137382D01*
X142634391Y-109177403D01*
X142568763Y-109231263D01*
X142514903Y-109296891D01*
X142474882Y-109371766D01*
X142450237Y-109453009D01*
X142441915Y-109537500D01*
X138545585Y-109537500D01*
X138537263Y-109453009D01*
X138512618Y-109371766D01*
X138472597Y-109296891D01*
X138418737Y-109231263D01*
X138353109Y-109177403D01*
X138278234Y-109137382D01*
X138196991Y-109112737D01*
X138133668Y-109106500D01*
X138112500Y-109104415D01*
X138091332Y-109106500D01*
X123846168Y-109106500D01*
X123825000Y-109104415D01*
X123803832Y-109106500D01*
X123740509Y-109112737D01*
X123659266Y-109137382D01*
X123584391Y-109177403D01*
X123518763Y-109231263D01*
X123464903Y-109296891D01*
X123424882Y-109371766D01*
X123400237Y-109453009D01*
X123391915Y-109537500D01*
X119495585Y-109537500D01*
X119487263Y-109453009D01*
X119462618Y-109371766D01*
X119422597Y-109296891D01*
X119368737Y-109231263D01*
X119303109Y-109177403D01*
X119228234Y-109137382D01*
X119146991Y-109112737D01*
X119083668Y-109106500D01*
X119062500Y-109104415D01*
X119041332Y-109106500D01*
X104796168Y-109106500D01*
X104775000Y-109104415D01*
X104753832Y-109106500D01*
X104690509Y-109112737D01*
X104609266Y-109137382D01*
X104534391Y-109177403D01*
X104468763Y-109231263D01*
X104414903Y-109296891D01*
X104374882Y-109371766D01*
X104350237Y-109453009D01*
X104341915Y-109537500D01*
X102824836Y-109537500D01*
X102824836Y-90487500D01*
X104341915Y-90487500D01*
X104344001Y-90508679D01*
X104344000Y-104753832D01*
X104341915Y-104775000D01*
X104350237Y-104859491D01*
X104374882Y-104940734D01*
X104414903Y-105015609D01*
X104468763Y-105081237D01*
X104534391Y-105135097D01*
X104609266Y-105175118D01*
X104690509Y-105199763D01*
X104775000Y-105208085D01*
X104796168Y-105206000D01*
X119041332Y-105206000D01*
X119062500Y-105208085D01*
X119083668Y-105206000D01*
X119146991Y-105199763D01*
X119228234Y-105175118D01*
X119303109Y-105135097D01*
X119368737Y-105081237D01*
X119422597Y-105015609D01*
X119462618Y-104940734D01*
X119487263Y-104859491D01*
X119495585Y-104775000D01*
X119493500Y-104753832D01*
X119493500Y-90508668D01*
X119495585Y-90487500D01*
X123391915Y-90487500D01*
X123394000Y-90508668D01*
X123394001Y-104753821D01*
X123391915Y-104775000D01*
X123400237Y-104859491D01*
X123424882Y-104940734D01*
X123464903Y-105015609D01*
X123518763Y-105081237D01*
X123584391Y-105135097D01*
X123659266Y-105175118D01*
X123740509Y-105199763D01*
X123803832Y-105206000D01*
X123825000Y-105208085D01*
X123846168Y-105206000D01*
X138091332Y-105206000D01*
X138112500Y-105208085D01*
X138133668Y-105206000D01*
X138196991Y-105199763D01*
X138278234Y-105175118D01*
X138353109Y-105135097D01*
X138418737Y-105081237D01*
X138472597Y-105015609D01*
X138512618Y-104940734D01*
X138537263Y-104859491D01*
X138545585Y-104775000D01*
X138543500Y-104753832D01*
X138543500Y-90508668D01*
X138545585Y-90487500D01*
X142441915Y-90487500D01*
X142444000Y-90508668D01*
X142444001Y-104753821D01*
X142441915Y-104775000D01*
X142450237Y-104859491D01*
X142474882Y-104940734D01*
X142514903Y-105015609D01*
X142568763Y-105081237D01*
X142634391Y-105135097D01*
X142709266Y-105175118D01*
X142790509Y-105199763D01*
X142853832Y-105206000D01*
X142875000Y-105208085D01*
X142896168Y-105206000D01*
X157141332Y-105206000D01*
X157162500Y-105208085D01*
X157183668Y-105206000D01*
X157246991Y-105199763D01*
X157328234Y-105175118D01*
X157403109Y-105135097D01*
X157468737Y-105081237D01*
X157522597Y-105015609D01*
X157562618Y-104940734D01*
X157587263Y-104859491D01*
X157595585Y-104775000D01*
X157593500Y-104753832D01*
X157593500Y-90508668D01*
X157595585Y-90487500D01*
X161491915Y-90487500D01*
X161494001Y-90508679D01*
X161494000Y-104753832D01*
X161491915Y-104775000D01*
X161500237Y-104859491D01*
X161524882Y-104940734D01*
X161564903Y-105015609D01*
X161618763Y-105081237D01*
X161684391Y-105135097D01*
X161759266Y-105175118D01*
X161840509Y-105199763D01*
X161925000Y-105208085D01*
X161946168Y-105206000D01*
X176191332Y-105206000D01*
X176212500Y-105208085D01*
X176233668Y-105206000D01*
X176296991Y-105199763D01*
X176378234Y-105175118D01*
X176453109Y-105135097D01*
X176518737Y-105081237D01*
X176572597Y-105015609D01*
X176612618Y-104940734D01*
X176637263Y-104859491D01*
X176645585Y-104775000D01*
X176643500Y-104753832D01*
X176643500Y-90508668D01*
X176645585Y-90487500D01*
X180541915Y-90487500D01*
X180544001Y-90508679D01*
X180544000Y-104753832D01*
X180541915Y-104775000D01*
X180550237Y-104859491D01*
X180574882Y-104940734D01*
X180614903Y-105015609D01*
X180668763Y-105081237D01*
X180734391Y-105135097D01*
X180809266Y-105175118D01*
X180890509Y-105199763D01*
X180975000Y-105208085D01*
X180996168Y-105206000D01*
X195241332Y-105206000D01*
X195262500Y-105208085D01*
X195283668Y-105206000D01*
X195346991Y-105199763D01*
X195428234Y-105175118D01*
X195503109Y-105135097D01*
X195568737Y-105081237D01*
X195622597Y-105015609D01*
X195662618Y-104940734D01*
X195687263Y-104859491D01*
X195695585Y-104775000D01*
X195693500Y-104753832D01*
X195693500Y-90508668D01*
X195695585Y-90487500D01*
X195687263Y-90403009D01*
X195662618Y-90321766D01*
X195622597Y-90246891D01*
X195568737Y-90181263D01*
X195503109Y-90127403D01*
X195428234Y-90087382D01*
X195346991Y-90062737D01*
X195283668Y-90056500D01*
X195262500Y-90054415D01*
X195241332Y-90056500D01*
X180996168Y-90056500D01*
X180975000Y-90054415D01*
X180953832Y-90056500D01*
X180890509Y-90062737D01*
X180809266Y-90087382D01*
X180734391Y-90127403D01*
X180668763Y-90181263D01*
X180614903Y-90246891D01*
X180574882Y-90321766D01*
X180550237Y-90403009D01*
X180541915Y-90487500D01*
X176645585Y-90487500D01*
X176637263Y-90403009D01*
X176612618Y-90321766D01*
X176572597Y-90246891D01*
X176518737Y-90181263D01*
X176453109Y-90127403D01*
X176378234Y-90087382D01*
X176296991Y-90062737D01*
X176233668Y-90056500D01*
X176212500Y-90054415D01*
X176191332Y-90056500D01*
X161946168Y-90056500D01*
X161925000Y-90054415D01*
X161903832Y-90056500D01*
X161840509Y-90062737D01*
X161759266Y-90087382D01*
X161684391Y-90127403D01*
X161618763Y-90181263D01*
X161564903Y-90246891D01*
X161524882Y-90321766D01*
X161500237Y-90403009D01*
X161491915Y-90487500D01*
X157595585Y-90487500D01*
X157587263Y-90403009D01*
X157562618Y-90321766D01*
X157522597Y-90246891D01*
X157468737Y-90181263D01*
X157403109Y-90127403D01*
X157328234Y-90087382D01*
X157246991Y-90062737D01*
X157183668Y-90056500D01*
X157162500Y-90054415D01*
X157141332Y-90056500D01*
X142896168Y-90056500D01*
X142875000Y-90054415D01*
X142853832Y-90056500D01*
X142790509Y-90062737D01*
X142709266Y-90087382D01*
X142634391Y-90127403D01*
X142568763Y-90181263D01*
X142514903Y-90246891D01*
X142474882Y-90321766D01*
X142450237Y-90403009D01*
X142441915Y-90487500D01*
X138545585Y-90487500D01*
X138537263Y-90403009D01*
X138512618Y-90321766D01*
X138472597Y-90246891D01*
X138418737Y-90181263D01*
X138353109Y-90127403D01*
X138278234Y-90087382D01*
X138196991Y-90062737D01*
X138133668Y-90056500D01*
X138112500Y-90054415D01*
X138091332Y-90056500D01*
X123846168Y-90056500D01*
X123825000Y-90054415D01*
X123803832Y-90056500D01*
X123740509Y-90062737D01*
X123659266Y-90087382D01*
X123584391Y-90127403D01*
X123518763Y-90181263D01*
X123464903Y-90246891D01*
X123424882Y-90321766D01*
X123400237Y-90403009D01*
X123391915Y-90487500D01*
X119495585Y-90487500D01*
X119487263Y-90403009D01*
X119462618Y-90321766D01*
X119422597Y-90246891D01*
X119368737Y-90181263D01*
X119303109Y-90127403D01*
X119228234Y-90087382D01*
X119146991Y-90062737D01*
X119083668Y-90056500D01*
X119062500Y-90054415D01*
X119041332Y-90056500D01*
X104796168Y-90056500D01*
X104775000Y-90054415D01*
X104753832Y-90056500D01*
X104690509Y-90062737D01*
X104609266Y-90087382D01*
X104534391Y-90127403D01*
X104468763Y-90181263D01*
X104414903Y-90246891D01*
X104374882Y-90321766D01*
X104350237Y-90403009D01*
X104341915Y-90487500D01*
X102824836Y-90487500D01*
X102824836Y-71437500D01*
X104341915Y-71437500D01*
X104344001Y-71458679D01*
X104344000Y-85703832D01*
X104341915Y-85725000D01*
X104350237Y-85809491D01*
X104374882Y-85890734D01*
X104414903Y-85965609D01*
X104468763Y-86031237D01*
X104534391Y-86085097D01*
X104609266Y-86125118D01*
X104690509Y-86149763D01*
X104775000Y-86158085D01*
X104796168Y-86156000D01*
X119041332Y-86156000D01*
X119062500Y-86158085D01*
X119083668Y-86156000D01*
X119146991Y-86149763D01*
X119228234Y-86125118D01*
X119303109Y-86085097D01*
X119368737Y-86031237D01*
X119422597Y-85965609D01*
X119462618Y-85890734D01*
X119487263Y-85809491D01*
X119495585Y-85725000D01*
X119493500Y-85703832D01*
X119493500Y-71458668D01*
X119495585Y-71437500D01*
X123391915Y-71437500D01*
X123394000Y-71458668D01*
X123394001Y-85703821D01*
X123391915Y-85725000D01*
X123400237Y-85809491D01*
X123424882Y-85890734D01*
X123464903Y-85965609D01*
X123518763Y-86031237D01*
X123584391Y-86085097D01*
X123659266Y-86125118D01*
X123740509Y-86149763D01*
X123803832Y-86156000D01*
X123825000Y-86158085D01*
X123846168Y-86156000D01*
X138091332Y-86156000D01*
X138112500Y-86158085D01*
X138133668Y-86156000D01*
X138196991Y-86149763D01*
X138278234Y-86125118D01*
X138353109Y-86085097D01*
X138418737Y-86031237D01*
X138472597Y-85965609D01*
X138512618Y-85890734D01*
X138537263Y-85809491D01*
X138545585Y-85725000D01*
X138543500Y-85703832D01*
X138543500Y-71458668D01*
X138545585Y-71437500D01*
X142441915Y-71437500D01*
X142444000Y-71458668D01*
X142444001Y-85703821D01*
X142441915Y-85725000D01*
X142450237Y-85809491D01*
X142474882Y-85890734D01*
X142514903Y-85965609D01*
X142568763Y-86031237D01*
X142634391Y-86085097D01*
X142709266Y-86125118D01*
X142790509Y-86149763D01*
X142853832Y-86156000D01*
X142875000Y-86158085D01*
X142896168Y-86156000D01*
X157141332Y-86156000D01*
X157162500Y-86158085D01*
X157183668Y-86156000D01*
X157246991Y-86149763D01*
X157328234Y-86125118D01*
X157403109Y-86085097D01*
X157468737Y-86031237D01*
X157522597Y-85965609D01*
X157562618Y-85890734D01*
X157587263Y-85809491D01*
X157595585Y-85725000D01*
X157593500Y-85703832D01*
X157593500Y-71458668D01*
X157595585Y-71437500D01*
X161491915Y-71437500D01*
X161494001Y-71458679D01*
X161494000Y-85703832D01*
X161491915Y-85725000D01*
X161500237Y-85809491D01*
X161524882Y-85890734D01*
X161564903Y-85965609D01*
X161618763Y-86031237D01*
X161684391Y-86085097D01*
X161759266Y-86125118D01*
X161840509Y-86149763D01*
X161925000Y-86158085D01*
X161946168Y-86156000D01*
X176191332Y-86156000D01*
X176212500Y-86158085D01*
X176233668Y-86156000D01*
X176296991Y-86149763D01*
X176378234Y-86125118D01*
X176453109Y-86085097D01*
X176518737Y-86031237D01*
X176572597Y-85965609D01*
X176612618Y-85890734D01*
X176637263Y-85809491D01*
X176645585Y-85725000D01*
X176643500Y-85703832D01*
X176643500Y-71458668D01*
X176645585Y-71437500D01*
X180541915Y-71437500D01*
X180544001Y-71458679D01*
X180544000Y-85703832D01*
X180541915Y-85725000D01*
X180550237Y-85809491D01*
X180574882Y-85890734D01*
X180614903Y-85965609D01*
X180668763Y-86031237D01*
X180734391Y-86085097D01*
X180809266Y-86125118D01*
X180890509Y-86149763D01*
X180975000Y-86158085D01*
X180996168Y-86156000D01*
X195241332Y-86156000D01*
X195262500Y-86158085D01*
X195283668Y-86156000D01*
X195346991Y-86149763D01*
X195428234Y-86125118D01*
X195503109Y-86085097D01*
X195568737Y-86031237D01*
X195622597Y-85965609D01*
X195662618Y-85890734D01*
X195687263Y-85809491D01*
X195695585Y-85725000D01*
X195693500Y-85703832D01*
X195693500Y-71458668D01*
X195695585Y-71437500D01*
X199591915Y-71437500D01*
X199594001Y-71458679D01*
X199594000Y-85703832D01*
X199591915Y-85725000D01*
X199600237Y-85809491D01*
X199624882Y-85890734D01*
X199664903Y-85965609D01*
X199718763Y-86031237D01*
X199784391Y-86085097D01*
X199859266Y-86125118D01*
X199940509Y-86149763D01*
X200025000Y-86158085D01*
X200046168Y-86156000D01*
X214291332Y-86156000D01*
X214312500Y-86158085D01*
X214333668Y-86156000D01*
X214396991Y-86149763D01*
X214478234Y-86125118D01*
X214553109Y-86085097D01*
X214618737Y-86031237D01*
X214672597Y-85965609D01*
X214712618Y-85890734D01*
X214737263Y-85809491D01*
X214745585Y-85725000D01*
X214743500Y-85703832D01*
X214743500Y-71458668D01*
X214745585Y-71437500D01*
X214737263Y-71353009D01*
X214712618Y-71271766D01*
X214672597Y-71196891D01*
X214618737Y-71131263D01*
X214553109Y-71077403D01*
X214478234Y-71037382D01*
X214396991Y-71012737D01*
X214333668Y-71006500D01*
X214312500Y-71004415D01*
X214291332Y-71006500D01*
X200046168Y-71006500D01*
X200025000Y-71004415D01*
X200003832Y-71006500D01*
X199940509Y-71012737D01*
X199859266Y-71037382D01*
X199784391Y-71077403D01*
X199718763Y-71131263D01*
X199664903Y-71196891D01*
X199624882Y-71271766D01*
X199600237Y-71353009D01*
X199591915Y-71437500D01*
X195695585Y-71437500D01*
X195687263Y-71353009D01*
X195662618Y-71271766D01*
X195622597Y-71196891D01*
X195568737Y-71131263D01*
X195503109Y-71077403D01*
X195428234Y-71037382D01*
X195346991Y-71012737D01*
X195283668Y-71006500D01*
X195262500Y-71004415D01*
X195241332Y-71006500D01*
X180996168Y-71006500D01*
X180975000Y-71004415D01*
X180953832Y-71006500D01*
X180890509Y-71012737D01*
X180809266Y-71037382D01*
X180734391Y-71077403D01*
X180668763Y-71131263D01*
X180614903Y-71196891D01*
X180574882Y-71271766D01*
X180550237Y-71353009D01*
X180541915Y-71437500D01*
X176645585Y-71437500D01*
X176637263Y-71353009D01*
X176612618Y-71271766D01*
X176572597Y-71196891D01*
X176518737Y-71131263D01*
X176453109Y-71077403D01*
X176378234Y-71037382D01*
X176296991Y-71012737D01*
X176233668Y-71006500D01*
X176212500Y-71004415D01*
X176191332Y-71006500D01*
X161946168Y-71006500D01*
X161925000Y-71004415D01*
X161903832Y-71006500D01*
X161840509Y-71012737D01*
X161759266Y-71037382D01*
X161684391Y-71077403D01*
X161618763Y-71131263D01*
X161564903Y-71196891D01*
X161524882Y-71271766D01*
X161500237Y-71353009D01*
X161491915Y-71437500D01*
X157595585Y-71437500D01*
X157587263Y-71353009D01*
X157562618Y-71271766D01*
X157522597Y-71196891D01*
X157468737Y-71131263D01*
X157403109Y-71077403D01*
X157328234Y-71037382D01*
X157246991Y-71012737D01*
X157183668Y-71006500D01*
X157162500Y-71004415D01*
X157141332Y-71006500D01*
X142896168Y-71006500D01*
X142875000Y-71004415D01*
X142853832Y-71006500D01*
X142790509Y-71012737D01*
X142709266Y-71037382D01*
X142634391Y-71077403D01*
X142568763Y-71131263D01*
X142514903Y-71196891D01*
X142474882Y-71271766D01*
X142450237Y-71353009D01*
X142441915Y-71437500D01*
X138545585Y-71437500D01*
X138537263Y-71353009D01*
X138512618Y-71271766D01*
X138472597Y-71196891D01*
X138418737Y-71131263D01*
X138353109Y-71077403D01*
X138278234Y-71037382D01*
X138196991Y-71012737D01*
X138133668Y-71006500D01*
X138112500Y-71004415D01*
X138091332Y-71006500D01*
X123846168Y-71006500D01*
X123825000Y-71004415D01*
X123803832Y-71006500D01*
X123740509Y-71012737D01*
X123659266Y-71037382D01*
X123584391Y-71077403D01*
X123518763Y-71131263D01*
X123464903Y-71196891D01*
X123424882Y-71271766D01*
X123400237Y-71353009D01*
X123391915Y-71437500D01*
X119495585Y-71437500D01*
X119487263Y-71353009D01*
X119462618Y-71271766D01*
X119422597Y-71196891D01*
X119368737Y-71131263D01*
X119303109Y-71077403D01*
X119228234Y-71037382D01*
X119146991Y-71012737D01*
X119083668Y-71006500D01*
X119062500Y-71004415D01*
X119041332Y-71006500D01*
X104796168Y-71006500D01*
X104775000Y-71004415D01*
X104753832Y-71006500D01*
X104690509Y-71012737D01*
X104609266Y-71037382D01*
X104534391Y-71077403D01*
X104468763Y-71131263D01*
X104414903Y-71196891D01*
X104374882Y-71271766D01*
X104350237Y-71353009D01*
X104341915Y-71437500D01*
X102824836Y-71437500D01*
X102824836Y-69032927D01*
X120819000Y-69032927D01*
X120819000Y-69167073D01*
X120845171Y-69298640D01*
X120896506Y-69422574D01*
X120971033Y-69534112D01*
X121065888Y-69628967D01*
X121177426Y-69703494D01*
X121301360Y-69754829D01*
X121432927Y-69781000D01*
X121567073Y-69781000D01*
X121698640Y-69754829D01*
X121822574Y-69703494D01*
X121934112Y-69628967D01*
X122028967Y-69534112D01*
X122103494Y-69422574D01*
X122154829Y-69298640D01*
X122181000Y-69167073D01*
X122181000Y-69032927D01*
X122154829Y-68901360D01*
X122103494Y-68777426D01*
X122028967Y-68665888D01*
X121934112Y-68571033D01*
X121822574Y-68496506D01*
X121698640Y-68445171D01*
X121567073Y-68419000D01*
X121432927Y-68419000D01*
X121301360Y-68445171D01*
X121177426Y-68496506D01*
X121065888Y-68571033D01*
X120971033Y-68665888D01*
X120896506Y-68777426D01*
X120845171Y-68901360D01*
X120819000Y-69032927D01*
X102824836Y-69032927D01*
X102824836Y-52387500D01*
X104341915Y-52387500D01*
X104344001Y-52408679D01*
X104344000Y-66653832D01*
X104341915Y-66675000D01*
X104350237Y-66759491D01*
X104374882Y-66840734D01*
X104414903Y-66915609D01*
X104468763Y-66981237D01*
X104534391Y-67035097D01*
X104609266Y-67075118D01*
X104690509Y-67099763D01*
X104775000Y-67108085D01*
X104796168Y-67106000D01*
X119041332Y-67106000D01*
X119062500Y-67108085D01*
X119083668Y-67106000D01*
X119146991Y-67099763D01*
X119228234Y-67075118D01*
X119303109Y-67035097D01*
X119368737Y-66981237D01*
X119422597Y-66915609D01*
X119462618Y-66840734D01*
X119487263Y-66759491D01*
X119495585Y-66675000D01*
X119493500Y-66653832D01*
X119493500Y-52408668D01*
X119495585Y-52387500D01*
X123391915Y-52387500D01*
X123394000Y-52408668D01*
X123394001Y-66653821D01*
X123391915Y-66675000D01*
X123400237Y-66759491D01*
X123424882Y-66840734D01*
X123464903Y-66915609D01*
X123518763Y-66981237D01*
X123584391Y-67035097D01*
X123659266Y-67075118D01*
X123740509Y-67099763D01*
X123803832Y-67106000D01*
X123825000Y-67108085D01*
X123846168Y-67106000D01*
X138091332Y-67106000D01*
X138112500Y-67108085D01*
X138133668Y-67106000D01*
X138196991Y-67099763D01*
X138278234Y-67075118D01*
X138353109Y-67035097D01*
X138418737Y-66981237D01*
X138472597Y-66915609D01*
X138512618Y-66840734D01*
X138537263Y-66759491D01*
X138545585Y-66675000D01*
X138543500Y-66653832D01*
X138543500Y-52408668D01*
X138545585Y-52387500D01*
X142441915Y-52387500D01*
X142444000Y-52408668D01*
X142444001Y-66653821D01*
X142441915Y-66675000D01*
X142450237Y-66759491D01*
X142474882Y-66840734D01*
X142514903Y-66915609D01*
X142568763Y-66981237D01*
X142634391Y-67035097D01*
X142709266Y-67075118D01*
X142790509Y-67099763D01*
X142853832Y-67106000D01*
X142875000Y-67108085D01*
X142896168Y-67106000D01*
X157141332Y-67106000D01*
X157162500Y-67108085D01*
X157183668Y-67106000D01*
X157246991Y-67099763D01*
X157328234Y-67075118D01*
X157403109Y-67035097D01*
X157468737Y-66981237D01*
X157522597Y-66915609D01*
X157562618Y-66840734D01*
X157587263Y-66759491D01*
X157595585Y-66675000D01*
X157593500Y-66653832D01*
X157593500Y-52408668D01*
X157595585Y-52387500D01*
X161491915Y-52387500D01*
X161494001Y-52408679D01*
X161494000Y-66653832D01*
X161491915Y-66675000D01*
X161500237Y-66759491D01*
X161524882Y-66840734D01*
X161564903Y-66915609D01*
X161618763Y-66981237D01*
X161684391Y-67035097D01*
X161759266Y-67075118D01*
X161840509Y-67099763D01*
X161925000Y-67108085D01*
X161946168Y-67106000D01*
X176191332Y-67106000D01*
X176212500Y-67108085D01*
X176233668Y-67106000D01*
X176296991Y-67099763D01*
X176378234Y-67075118D01*
X176453109Y-67035097D01*
X176518737Y-66981237D01*
X176572597Y-66915609D01*
X176612618Y-66840734D01*
X176637263Y-66759491D01*
X176645585Y-66675000D01*
X176643500Y-66653832D01*
X176643500Y-52408668D01*
X176645585Y-52387500D01*
X180541915Y-52387500D01*
X180544001Y-52408679D01*
X180544000Y-66653832D01*
X180541915Y-66675000D01*
X180550237Y-66759491D01*
X180574882Y-66840734D01*
X180614903Y-66915609D01*
X180668763Y-66981237D01*
X180734391Y-67035097D01*
X180809266Y-67075118D01*
X180890509Y-67099763D01*
X180975000Y-67108085D01*
X180996168Y-67106000D01*
X195241332Y-67106000D01*
X195262500Y-67108085D01*
X195283668Y-67106000D01*
X195346991Y-67099763D01*
X195428234Y-67075118D01*
X195503109Y-67035097D01*
X195568737Y-66981237D01*
X195622597Y-66915609D01*
X195662618Y-66840734D01*
X195687263Y-66759491D01*
X195695585Y-66675000D01*
X195693500Y-66653832D01*
X195693500Y-52408668D01*
X195695585Y-52387500D01*
X199591915Y-52387500D01*
X199594001Y-52408679D01*
X199594000Y-66653832D01*
X199591915Y-66675000D01*
X199600237Y-66759491D01*
X199624882Y-66840734D01*
X199664903Y-66915609D01*
X199718763Y-66981237D01*
X199784391Y-67035097D01*
X199859266Y-67075118D01*
X199940509Y-67099763D01*
X200025000Y-67108085D01*
X200046168Y-67106000D01*
X214291332Y-67106000D01*
X214312500Y-67108085D01*
X214333668Y-67106000D01*
X214396991Y-67099763D01*
X214478234Y-67075118D01*
X214553109Y-67035097D01*
X214618737Y-66981237D01*
X214672597Y-66915609D01*
X214712618Y-66840734D01*
X214737263Y-66759491D01*
X214745585Y-66675000D01*
X214743500Y-66653832D01*
X214743500Y-52408668D01*
X214745585Y-52387500D01*
X214737263Y-52303009D01*
X214712618Y-52221766D01*
X214672597Y-52146891D01*
X214618737Y-52081263D01*
X214553109Y-52027403D01*
X214478234Y-51987382D01*
X214396991Y-51962737D01*
X214333668Y-51956500D01*
X214312500Y-51954415D01*
X214291332Y-51956500D01*
X200046168Y-51956500D01*
X200025000Y-51954415D01*
X200003832Y-51956500D01*
X199940509Y-51962737D01*
X199859266Y-51987382D01*
X199784391Y-52027403D01*
X199718763Y-52081263D01*
X199664903Y-52146891D01*
X199624882Y-52221766D01*
X199600237Y-52303009D01*
X199591915Y-52387500D01*
X195695585Y-52387500D01*
X195687263Y-52303009D01*
X195662618Y-52221766D01*
X195622597Y-52146891D01*
X195568737Y-52081263D01*
X195503109Y-52027403D01*
X195428234Y-51987382D01*
X195346991Y-51962737D01*
X195283668Y-51956500D01*
X195262500Y-51954415D01*
X195241332Y-51956500D01*
X180996168Y-51956500D01*
X180975000Y-51954415D01*
X180953832Y-51956500D01*
X180890509Y-51962737D01*
X180809266Y-51987382D01*
X180734391Y-52027403D01*
X180668763Y-52081263D01*
X180614903Y-52146891D01*
X180574882Y-52221766D01*
X180550237Y-52303009D01*
X180541915Y-52387500D01*
X176645585Y-52387500D01*
X176637263Y-52303009D01*
X176612618Y-52221766D01*
X176572597Y-52146891D01*
X176518737Y-52081263D01*
X176453109Y-52027403D01*
X176378234Y-51987382D01*
X176296991Y-51962737D01*
X176233668Y-51956500D01*
X176212500Y-51954415D01*
X176191332Y-51956500D01*
X161946168Y-51956500D01*
X161925000Y-51954415D01*
X161903832Y-51956500D01*
X161840509Y-51962737D01*
X161759266Y-51987382D01*
X161684391Y-52027403D01*
X161618763Y-52081263D01*
X161564903Y-52146891D01*
X161524882Y-52221766D01*
X161500237Y-52303009D01*
X161491915Y-52387500D01*
X157595585Y-52387500D01*
X157587263Y-52303009D01*
X157562618Y-52221766D01*
X157522597Y-52146891D01*
X157468737Y-52081263D01*
X157403109Y-52027403D01*
X157328234Y-51987382D01*
X157246991Y-51962737D01*
X157225508Y-51960621D01*
X157162500Y-51954415D01*
X157141332Y-51956500D01*
X142896168Y-51956500D01*
X142875000Y-51954415D01*
X142811992Y-51960621D01*
X142790509Y-51962737D01*
X142709266Y-51987382D01*
X142634391Y-52027403D01*
X142568763Y-52081263D01*
X142514903Y-52146891D01*
X142474882Y-52221766D01*
X142450237Y-52303009D01*
X142441915Y-52387500D01*
X138545585Y-52387500D01*
X138537263Y-52303009D01*
X138512618Y-52221766D01*
X138472597Y-52146891D01*
X138418737Y-52081263D01*
X138353109Y-52027403D01*
X138278234Y-51987382D01*
X138196991Y-51962737D01*
X138175508Y-51960621D01*
X138112500Y-51954415D01*
X138091332Y-51956500D01*
X123846168Y-51956500D01*
X123825000Y-51954415D01*
X123761992Y-51960621D01*
X123740509Y-51962737D01*
X123659266Y-51987382D01*
X123584391Y-52027403D01*
X123518763Y-52081263D01*
X123464903Y-52146891D01*
X123424882Y-52221766D01*
X123400237Y-52303009D01*
X123391915Y-52387500D01*
X119495585Y-52387500D01*
X119487263Y-52303009D01*
X119462618Y-52221766D01*
X119422597Y-52146891D01*
X119368737Y-52081263D01*
X119303109Y-52027403D01*
X119228234Y-51987382D01*
X119146991Y-51962737D01*
X119083668Y-51956500D01*
X119062500Y-51954415D01*
X119041332Y-51956500D01*
X104796168Y-51956500D01*
X104775000Y-51954415D01*
X104753832Y-51956500D01*
X104690509Y-51962737D01*
X104609266Y-51987382D01*
X104534391Y-52027403D01*
X104468763Y-52081263D01*
X104414903Y-52146891D01*
X104374882Y-52221766D01*
X104350237Y-52303009D01*
X104341915Y-52387500D01*
X102824836Y-52387500D01*
X102824836Y-50437292D01*
X214886914Y-50437292D01*
X215170765Y-50465124D01*
G04 #@! TA.AperFunction,NonConductor*
D12*
G36*
X215170765Y-50465124D02*
G01*
X215423532Y-50541439D01*
X215656661Y-50665394D01*
X215861271Y-50832270D01*
X216029575Y-51035715D01*
X216155156Y-51267973D01*
X216233234Y-51520200D01*
X216262932Y-51802768D01*
X216262933Y-104344088D01*
X214743500Y-104344088D01*
X214743500Y-90508668D01*
X214745585Y-90487500D01*
X214737263Y-90403009D01*
X214712618Y-90321766D01*
X214672597Y-90246891D01*
X214618737Y-90181263D01*
X214553109Y-90127403D01*
X214478234Y-90087382D01*
X214396991Y-90062737D01*
X214333668Y-90056500D01*
X214312500Y-90054415D01*
X214291332Y-90056500D01*
X200046168Y-90056500D01*
X200025000Y-90054415D01*
X200003832Y-90056500D01*
X199940509Y-90062737D01*
X199859266Y-90087382D01*
X199784391Y-90127403D01*
X199718763Y-90181263D01*
X199664903Y-90246891D01*
X199624882Y-90321766D01*
X199600237Y-90403009D01*
X199591915Y-90487500D01*
X199594001Y-90508679D01*
X199594000Y-104753920D01*
X199591915Y-104775088D01*
X199600237Y-104859579D01*
X199624882Y-104940822D01*
X199664903Y-105015697D01*
X199718763Y-105081325D01*
X199784391Y-105135185D01*
X199859266Y-105175206D01*
X199940509Y-105199851D01*
X200003832Y-105206088D01*
X200004725Y-105206088D01*
X200025000Y-105208085D01*
X200045275Y-105206088D01*
X209714489Y-105206088D01*
X209714490Y-109106500D01*
X200046168Y-109106500D01*
X200025000Y-109104415D01*
X200003832Y-109106500D01*
X199940509Y-109112737D01*
X199859266Y-109137382D01*
X199784391Y-109177403D01*
X199718763Y-109231263D01*
X199664903Y-109296891D01*
X199624882Y-109371766D01*
X199600237Y-109453009D01*
X199591915Y-109537500D01*
X199594001Y-109558679D01*
X199594000Y-123803832D01*
X199591915Y-123825000D01*
X199600237Y-123909491D01*
X199624882Y-123990734D01*
X199664903Y-124065609D01*
X199718763Y-124131237D01*
X199784391Y-124185097D01*
X199859266Y-124225118D01*
X199940509Y-124249763D01*
X200025000Y-124258085D01*
X200046168Y-124256000D01*
X214291332Y-124256000D01*
X214312500Y-124258085D01*
X214333668Y-124256000D01*
X214396991Y-124249763D01*
X214478234Y-124225118D01*
X214553109Y-124185097D01*
X214618737Y-124131237D01*
X214672597Y-124065609D01*
X214712618Y-123990734D01*
X214737263Y-123909491D01*
X214745585Y-123825000D01*
X214743500Y-123803832D01*
X214743500Y-109968592D01*
X216262932Y-109968592D01*
X216262933Y-143449343D01*
X216235100Y-143733207D01*
X216158785Y-143985972D01*
X216034828Y-144219102D01*
X215867951Y-144423713D01*
X215664509Y-144592015D01*
X215432253Y-144717595D01*
X215180024Y-144795673D01*
X214897455Y-144825372D01*
X139781356Y-144825372D01*
X139781356Y-144077540D01*
X139783441Y-144056372D01*
X139775119Y-143971881D01*
X139750474Y-143890638D01*
X139710453Y-143815763D01*
X139656593Y-143750135D01*
X139590965Y-143696275D01*
X139516090Y-143656254D01*
X139434847Y-143631609D01*
X139371524Y-143625372D01*
X139350356Y-143623287D01*
X139329188Y-143625372D01*
X102824836Y-143625372D01*
X102824836Y-142875000D01*
X104341915Y-142875000D01*
X104350237Y-142959491D01*
X104374882Y-143040734D01*
X104414903Y-143115609D01*
X104430438Y-143134538D01*
X104468763Y-143181237D01*
X104534391Y-143235097D01*
X104609266Y-143275118D01*
X104690509Y-143299763D01*
X104775000Y-143308085D01*
X104796168Y-143306000D01*
X138091332Y-143306000D01*
X138112500Y-143308085D01*
X138133668Y-143306000D01*
X138196991Y-143299763D01*
X138278234Y-143275118D01*
X138353109Y-143235097D01*
X138418737Y-143181237D01*
X138472597Y-143115609D01*
X138512618Y-143040734D01*
X138537263Y-142959491D01*
X138545585Y-142875000D01*
X138543500Y-142853832D01*
X138543500Y-128609954D01*
X138545701Y-128587608D01*
X138545691Y-128587500D01*
X142441915Y-128587500D01*
X142444000Y-128608668D01*
X142444001Y-142853821D01*
X142441915Y-142875000D01*
X142450237Y-142959491D01*
X142474882Y-143040734D01*
X142514903Y-143115609D01*
X142568763Y-143181237D01*
X142634391Y-143235097D01*
X142709266Y-143275118D01*
X142790509Y-143299763D01*
X142853832Y-143306000D01*
X142875000Y-143308085D01*
X142896168Y-143306000D01*
X157141332Y-143306000D01*
X157162500Y-143308085D01*
X157183668Y-143306000D01*
X157246991Y-143299763D01*
X157328234Y-143275118D01*
X157403109Y-143235097D01*
X157468737Y-143181237D01*
X157522597Y-143115609D01*
X157562618Y-143040734D01*
X157587263Y-142959491D01*
X157595585Y-142875000D01*
X157593500Y-142853832D01*
X157593500Y-128608668D01*
X157595585Y-128587500D01*
X161491915Y-128587500D01*
X161494001Y-128608679D01*
X161494000Y-142853832D01*
X161491915Y-142875000D01*
X161500237Y-142959491D01*
X161524882Y-143040734D01*
X161564903Y-143115609D01*
X161580438Y-143134538D01*
X161618763Y-143181237D01*
X161684391Y-143235097D01*
X161759266Y-143275118D01*
X161840509Y-143299763D01*
X161925000Y-143308085D01*
X161946168Y-143306000D01*
X176191332Y-143306000D01*
X176212500Y-143308085D01*
X176233668Y-143306000D01*
X176296991Y-143299763D01*
X176378234Y-143275118D01*
X176453109Y-143235097D01*
X176518737Y-143181237D01*
X176572597Y-143115609D01*
X176612618Y-143040734D01*
X176637263Y-142959491D01*
X176645585Y-142875000D01*
X176643500Y-142853832D01*
X176643500Y-128608668D01*
X176645585Y-128587500D01*
X180541915Y-128587500D01*
X180544001Y-128608679D01*
X180544000Y-142853832D01*
X180541915Y-142875000D01*
X180550237Y-142959491D01*
X180574882Y-143040734D01*
X180614903Y-143115609D01*
X180630438Y-143134538D01*
X180668763Y-143181237D01*
X180734391Y-143235097D01*
X180809266Y-143275118D01*
X180890509Y-143299763D01*
X180975000Y-143308085D01*
X180996168Y-143306000D01*
X195241332Y-143306000D01*
X195262500Y-143308085D01*
X195283668Y-143306000D01*
X195346991Y-143299763D01*
X195428234Y-143275118D01*
X195503109Y-143235097D01*
X195568737Y-143181237D01*
X195622597Y-143115609D01*
X195662618Y-143040734D01*
X195687263Y-142959491D01*
X195695585Y-142875000D01*
X195693500Y-142853832D01*
X195693500Y-128608668D01*
X195695585Y-128587500D01*
X199591915Y-128587500D01*
X199594001Y-128608679D01*
X199594000Y-142853832D01*
X199591915Y-142875000D01*
X199600237Y-142959491D01*
X199624882Y-143040734D01*
X199664903Y-143115609D01*
X199680438Y-143134538D01*
X199718763Y-143181237D01*
X199784391Y-143235097D01*
X199859266Y-143275118D01*
X199940509Y-143299763D01*
X200025000Y-143308085D01*
X200046168Y-143306000D01*
X214291332Y-143306000D01*
X214312500Y-143308085D01*
X214333668Y-143306000D01*
X214396991Y-143299763D01*
X214478234Y-143275118D01*
X214553109Y-143235097D01*
X214618737Y-143181237D01*
X214672597Y-143115609D01*
X214712618Y-143040734D01*
X214737263Y-142959491D01*
X214745585Y-142875000D01*
X214743500Y-142853832D01*
X214743500Y-128608668D01*
X214745585Y-128587500D01*
X214737263Y-128503009D01*
X214712618Y-128421766D01*
X214672597Y-128346891D01*
X214618737Y-128281263D01*
X214553109Y-128227403D01*
X214478234Y-128187382D01*
X214396991Y-128162737D01*
X214333668Y-128156500D01*
X214312500Y-128154415D01*
X214291332Y-128156500D01*
X200046168Y-128156500D01*
X200025000Y-128154415D01*
X200003832Y-128156500D01*
X199940509Y-128162737D01*
X199859266Y-128187382D01*
X199784391Y-128227403D01*
X199718763Y-128281263D01*
X199664903Y-128346891D01*
X199624882Y-128421766D01*
X199600237Y-128503009D01*
X199591915Y-128587500D01*
X195695585Y-128587500D01*
X195687263Y-128503009D01*
X195662618Y-128421766D01*
X195622597Y-128346891D01*
X195568737Y-128281263D01*
X195503109Y-128227403D01*
X195428234Y-128187382D01*
X195346991Y-128162737D01*
X195283668Y-128156500D01*
X195262500Y-128154415D01*
X195241332Y-128156500D01*
X180996168Y-128156500D01*
X180975000Y-128154415D01*
X180953832Y-128156500D01*
X180890509Y-128162737D01*
X180809266Y-128187382D01*
X180734391Y-128227403D01*
X180668763Y-128281263D01*
X180614903Y-128346891D01*
X180574882Y-128421766D01*
X180550237Y-128503009D01*
X180541915Y-128587500D01*
X176645585Y-128587500D01*
X176637263Y-128503009D01*
X176612618Y-128421766D01*
X176572597Y-128346891D01*
X176518737Y-128281263D01*
X176453109Y-128227403D01*
X176378234Y-128187382D01*
X176296991Y-128162737D01*
X176233668Y-128156500D01*
X176212500Y-128154415D01*
X176191332Y-128156500D01*
X161946168Y-128156500D01*
X161925000Y-128154415D01*
X161903832Y-128156500D01*
X161840509Y-128162737D01*
X161759266Y-128187382D01*
X161684391Y-128227403D01*
X161618763Y-128281263D01*
X161564903Y-128346891D01*
X161524882Y-128421766D01*
X161500237Y-128503009D01*
X161491915Y-128587500D01*
X157595585Y-128587500D01*
X157587263Y-128503009D01*
X157562618Y-128421766D01*
X157522597Y-128346891D01*
X157468737Y-128281263D01*
X157403109Y-128227403D01*
X157328234Y-128187382D01*
X157246991Y-128162737D01*
X157183668Y-128156500D01*
X157162500Y-128154415D01*
X157141332Y-128156500D01*
X142896168Y-128156500D01*
X142875000Y-128154415D01*
X142853832Y-128156500D01*
X142790509Y-128162737D01*
X142709266Y-128187382D01*
X142634391Y-128227403D01*
X142568763Y-128281263D01*
X142514903Y-128346891D01*
X142474882Y-128421766D01*
X142450237Y-128503009D01*
X142441915Y-128587500D01*
X138545691Y-128587500D01*
X138537379Y-128503117D01*
X138512734Y-128421874D01*
X138472713Y-128346999D01*
X138418853Y-128281371D01*
X138418769Y-128281302D01*
X138418737Y-128281263D01*
X138353109Y-128227403D01*
X138278234Y-128187382D01*
X138196991Y-128162737D01*
X138112500Y-128154415D01*
X138090235Y-128156608D01*
X136162364Y-128156608D01*
X136162364Y-127418150D01*
X136164449Y-127396982D01*
X136156127Y-127312491D01*
X136131482Y-127231248D01*
X136091461Y-127156373D01*
X136037601Y-127090745D01*
X135971973Y-127036885D01*
X135897098Y-126996864D01*
X135815855Y-126972219D01*
X135752532Y-126965982D01*
X135731364Y-126963897D01*
X135710196Y-126965982D01*
X130990028Y-126965982D01*
X130968860Y-126963897D01*
X130947692Y-126965982D01*
X130884369Y-126972219D01*
X130803126Y-126996864D01*
X130728251Y-127036885D01*
X130662623Y-127090745D01*
X130608763Y-127156373D01*
X130568742Y-127231248D01*
X130544097Y-127312491D01*
X130535775Y-127396982D01*
X130537860Y-127418151D01*
X130537861Y-128156608D01*
X112349844Y-128156608D01*
X112349844Y-127418150D01*
X112351929Y-127396982D01*
X112343607Y-127312491D01*
X112318962Y-127231248D01*
X112278941Y-127156373D01*
X112225081Y-127090745D01*
X112159453Y-127036885D01*
X112084578Y-126996864D01*
X112003335Y-126972219D01*
X111940012Y-126965982D01*
X111918844Y-126963897D01*
X111897676Y-126965982D01*
X107177508Y-126965982D01*
X107156340Y-126963897D01*
X107135172Y-126965982D01*
X107071849Y-126972219D01*
X106990606Y-126996864D01*
X106915731Y-127036885D01*
X106850103Y-127090745D01*
X106796243Y-127156373D01*
X106756222Y-127231248D01*
X106731577Y-127312491D01*
X106723255Y-127396982D01*
X106725340Y-127418151D01*
X106725341Y-128156589D01*
X104796188Y-128156502D01*
X104775000Y-128154415D01*
X104713457Y-128160477D01*
X104690529Y-128162734D01*
X104690523Y-128162736D01*
X104690510Y-128162737D01*
X104638354Y-128178559D01*
X104609285Y-128187375D01*
X104609278Y-128187379D01*
X104609267Y-128187382D01*
X104561053Y-128213153D01*
X104534408Y-128227393D01*
X104534403Y-128227397D01*
X104534392Y-128227403D01*
X104496787Y-128258265D01*
X104468777Y-128281250D01*
X104468771Y-128281257D01*
X104468764Y-128281263D01*
X104445790Y-128309257D01*
X104414914Y-128346875D01*
X104414908Y-128346886D01*
X104414904Y-128346891D01*
X104400672Y-128373518D01*
X104374890Y-128421748D01*
X104374887Y-128421759D01*
X104374883Y-128421766D01*
X104366071Y-128450816D01*
X104350241Y-128502990D01*
X104350240Y-128503003D01*
X104350238Y-128503009D01*
X104347168Y-128534178D01*
X104341916Y-128587481D01*
X104344001Y-128608659D01*
X104344000Y-142853832D01*
X104341915Y-142875000D01*
X102824836Y-142875000D01*
X102824836Y-109537500D01*
X104341915Y-109537500D01*
X104344001Y-109558679D01*
X104344000Y-123803832D01*
X104341915Y-123825000D01*
X104350237Y-123909491D01*
X104374882Y-123990734D01*
X104414903Y-124065609D01*
X104468763Y-124131237D01*
X104534391Y-124185097D01*
X104609266Y-124225118D01*
X104690509Y-124249763D01*
X104775000Y-124258085D01*
X104796168Y-124256000D01*
X119041332Y-124256000D01*
X119062500Y-124258085D01*
X119083668Y-124256000D01*
X119146991Y-124249763D01*
X119228234Y-124225118D01*
X119303109Y-124185097D01*
X119368737Y-124131237D01*
X119422597Y-124065609D01*
X119462618Y-123990734D01*
X119487263Y-123909491D01*
X119495585Y-123825000D01*
X119493500Y-123803832D01*
X119493500Y-109558668D01*
X119495585Y-109537500D01*
X123391915Y-109537500D01*
X123394000Y-109558668D01*
X123394001Y-123803821D01*
X123391915Y-123825000D01*
X123400237Y-123909491D01*
X123424882Y-123990734D01*
X123464903Y-124065609D01*
X123518763Y-124131237D01*
X123584391Y-124185097D01*
X123659266Y-124225118D01*
X123740509Y-124249763D01*
X123803832Y-124256000D01*
X123825000Y-124258085D01*
X123846168Y-124256000D01*
X138091332Y-124256000D01*
X138112500Y-124258085D01*
X138133668Y-124256000D01*
X138196991Y-124249763D01*
X138278234Y-124225118D01*
X138353109Y-124185097D01*
X138418737Y-124131237D01*
X138472597Y-124065609D01*
X138512618Y-123990734D01*
X138537263Y-123909491D01*
X138545585Y-123825000D01*
X138543500Y-123803832D01*
X138543500Y-109558668D01*
X138545585Y-109537500D01*
X142441915Y-109537500D01*
X142444000Y-109558668D01*
X142444001Y-123803821D01*
X142441915Y-123825000D01*
X142450237Y-123909491D01*
X142474882Y-123990734D01*
X142514903Y-124065609D01*
X142568763Y-124131237D01*
X142634391Y-124185097D01*
X142709266Y-124225118D01*
X142790509Y-124249763D01*
X142853832Y-124256000D01*
X142875000Y-124258085D01*
X142896168Y-124256000D01*
X157141332Y-124256000D01*
X157162500Y-124258085D01*
X157183668Y-124256000D01*
X157246991Y-124249763D01*
X157328234Y-124225118D01*
X157403109Y-124185097D01*
X157468737Y-124131237D01*
X157522597Y-124065609D01*
X157562618Y-123990734D01*
X157587263Y-123909491D01*
X157595585Y-123825000D01*
X157593500Y-123803832D01*
X157593500Y-109558668D01*
X157595585Y-109537500D01*
X161491915Y-109537500D01*
X161494001Y-109558679D01*
X161494000Y-123803832D01*
X161491915Y-123825000D01*
X161500237Y-123909491D01*
X161524882Y-123990734D01*
X161564903Y-124065609D01*
X161618763Y-124131237D01*
X161684391Y-124185097D01*
X161759266Y-124225118D01*
X161840509Y-124249763D01*
X161925000Y-124258085D01*
X161946168Y-124256000D01*
X176191332Y-124256000D01*
X176212500Y-124258085D01*
X176233668Y-124256000D01*
X176296991Y-124249763D01*
X176378234Y-124225118D01*
X176453109Y-124185097D01*
X176518737Y-124131237D01*
X176572597Y-124065609D01*
X176612618Y-123990734D01*
X176637263Y-123909491D01*
X176645585Y-123825000D01*
X176643500Y-123803832D01*
X176643500Y-109558668D01*
X176645585Y-109537500D01*
X180541915Y-109537500D01*
X180544001Y-109558679D01*
X180544000Y-123803832D01*
X180541915Y-123825000D01*
X180550237Y-123909491D01*
X180574882Y-123990734D01*
X180614903Y-124065609D01*
X180668763Y-124131237D01*
X180734391Y-124185097D01*
X180809266Y-124225118D01*
X180890509Y-124249763D01*
X180975000Y-124258085D01*
X180996168Y-124256000D01*
X195241332Y-124256000D01*
X195262500Y-124258085D01*
X195283668Y-124256000D01*
X195346991Y-124249763D01*
X195428234Y-124225118D01*
X195503109Y-124185097D01*
X195568737Y-124131237D01*
X195622597Y-124065609D01*
X195662618Y-123990734D01*
X195687263Y-123909491D01*
X195695585Y-123825000D01*
X195693500Y-123803832D01*
X195693500Y-109558668D01*
X195695585Y-109537500D01*
X195687263Y-109453009D01*
X195662618Y-109371766D01*
X195622597Y-109296891D01*
X195568737Y-109231263D01*
X195503109Y-109177403D01*
X195428234Y-109137382D01*
X195346991Y-109112737D01*
X195283668Y-109106500D01*
X195262500Y-109104415D01*
X195241332Y-109106500D01*
X180996168Y-109106500D01*
X180975000Y-109104415D01*
X180953832Y-109106500D01*
X180890509Y-109112737D01*
X180809266Y-109137382D01*
X180734391Y-109177403D01*
X180668763Y-109231263D01*
X180614903Y-109296891D01*
X180574882Y-109371766D01*
X180550237Y-109453009D01*
X180541915Y-109537500D01*
X176645585Y-109537500D01*
X176637263Y-109453009D01*
X176612618Y-109371766D01*
X176572597Y-109296891D01*
X176518737Y-109231263D01*
X176453109Y-109177403D01*
X176378234Y-109137382D01*
X176296991Y-109112737D01*
X176233668Y-109106500D01*
X176212500Y-109104415D01*
X176191332Y-109106500D01*
X161946168Y-109106500D01*
X161925000Y-109104415D01*
X161903832Y-109106500D01*
X161840509Y-109112737D01*
X161759266Y-109137382D01*
X161684391Y-109177403D01*
X161618763Y-109231263D01*
X161564903Y-109296891D01*
X161524882Y-109371766D01*
X161500237Y-109453009D01*
X161491915Y-109537500D01*
X157595585Y-109537500D01*
X157587263Y-109453009D01*
X157562618Y-109371766D01*
X157522597Y-109296891D01*
X157468737Y-109231263D01*
X157403109Y-109177403D01*
X157328234Y-109137382D01*
X157246991Y-109112737D01*
X157183668Y-109106500D01*
X157162500Y-109104415D01*
X157141332Y-109106500D01*
X142896168Y-109106500D01*
X142875000Y-109104415D01*
X142853832Y-109106500D01*
X142790509Y-109112737D01*
X142709266Y-109137382D01*
X142634391Y-109177403D01*
X142568763Y-109231263D01*
X142514903Y-109296891D01*
X142474882Y-109371766D01*
X142450237Y-109453009D01*
X142441915Y-109537500D01*
X138545585Y-109537500D01*
X138537263Y-109453009D01*
X138512618Y-109371766D01*
X138472597Y-109296891D01*
X138418737Y-109231263D01*
X138353109Y-109177403D01*
X138278234Y-109137382D01*
X138196991Y-109112737D01*
X138133668Y-109106500D01*
X138112500Y-109104415D01*
X138091332Y-109106500D01*
X123846168Y-109106500D01*
X123825000Y-109104415D01*
X123803832Y-109106500D01*
X123740509Y-109112737D01*
X123659266Y-109137382D01*
X123584391Y-109177403D01*
X123518763Y-109231263D01*
X123464903Y-109296891D01*
X123424882Y-109371766D01*
X123400237Y-109453009D01*
X123391915Y-109537500D01*
X119495585Y-109537500D01*
X119487263Y-109453009D01*
X119462618Y-109371766D01*
X119422597Y-109296891D01*
X119368737Y-109231263D01*
X119303109Y-109177403D01*
X119228234Y-109137382D01*
X119146991Y-109112737D01*
X119083668Y-109106500D01*
X119062500Y-109104415D01*
X119041332Y-109106500D01*
X104796168Y-109106500D01*
X104775000Y-109104415D01*
X104753832Y-109106500D01*
X104690509Y-109112737D01*
X104609266Y-109137382D01*
X104534391Y-109177403D01*
X104468763Y-109231263D01*
X104414903Y-109296891D01*
X104374882Y-109371766D01*
X104350237Y-109453009D01*
X104341915Y-109537500D01*
X102824836Y-109537500D01*
X102824836Y-90487500D01*
X104341915Y-90487500D01*
X104344001Y-90508679D01*
X104344000Y-104753832D01*
X104341915Y-104775000D01*
X104350237Y-104859491D01*
X104374882Y-104940734D01*
X104414903Y-105015609D01*
X104468763Y-105081237D01*
X104534391Y-105135097D01*
X104609266Y-105175118D01*
X104690509Y-105199763D01*
X104775000Y-105208085D01*
X104796168Y-105206000D01*
X119041332Y-105206000D01*
X119062500Y-105208085D01*
X119083668Y-105206000D01*
X119146991Y-105199763D01*
X119228234Y-105175118D01*
X119303109Y-105135097D01*
X119368737Y-105081237D01*
X119422597Y-105015609D01*
X119462618Y-104940734D01*
X119487263Y-104859491D01*
X119495585Y-104775000D01*
X119493500Y-104753832D01*
X119493500Y-90508668D01*
X119495585Y-90487500D01*
X123391915Y-90487500D01*
X123394000Y-90508668D01*
X123394001Y-104753821D01*
X123391915Y-104775000D01*
X123400237Y-104859491D01*
X123424882Y-104940734D01*
X123464903Y-105015609D01*
X123518763Y-105081237D01*
X123584391Y-105135097D01*
X123659266Y-105175118D01*
X123740509Y-105199763D01*
X123803832Y-105206000D01*
X123825000Y-105208085D01*
X123846168Y-105206000D01*
X138091332Y-105206000D01*
X138112500Y-105208085D01*
X138133668Y-105206000D01*
X138196991Y-105199763D01*
X138278234Y-105175118D01*
X138353109Y-105135097D01*
X138418737Y-105081237D01*
X138472597Y-105015609D01*
X138512618Y-104940734D01*
X138537263Y-104859491D01*
X138545585Y-104775000D01*
X138543500Y-104753832D01*
X138543500Y-90508668D01*
X138545585Y-90487500D01*
X142441915Y-90487500D01*
X142444000Y-90508668D01*
X142444001Y-104753821D01*
X142441915Y-104775000D01*
X142450237Y-104859491D01*
X142474882Y-104940734D01*
X142514903Y-105015609D01*
X142568763Y-105081237D01*
X142634391Y-105135097D01*
X142709266Y-105175118D01*
X142790509Y-105199763D01*
X142853832Y-105206000D01*
X142875000Y-105208085D01*
X142896168Y-105206000D01*
X157141332Y-105206000D01*
X157162500Y-105208085D01*
X157183668Y-105206000D01*
X157246991Y-105199763D01*
X157328234Y-105175118D01*
X157403109Y-105135097D01*
X157468737Y-105081237D01*
X157522597Y-105015609D01*
X157562618Y-104940734D01*
X157587263Y-104859491D01*
X157595585Y-104775000D01*
X157593500Y-104753832D01*
X157593500Y-90508668D01*
X157595585Y-90487500D01*
X161491915Y-90487500D01*
X161494001Y-90508679D01*
X161494000Y-104753832D01*
X161491915Y-104775000D01*
X161500237Y-104859491D01*
X161524882Y-104940734D01*
X161564903Y-105015609D01*
X161618763Y-105081237D01*
X161684391Y-105135097D01*
X161759266Y-105175118D01*
X161840509Y-105199763D01*
X161925000Y-105208085D01*
X161946168Y-105206000D01*
X176191332Y-105206000D01*
X176212500Y-105208085D01*
X176233668Y-105206000D01*
X176296991Y-105199763D01*
X176378234Y-105175118D01*
X176453109Y-105135097D01*
X176518737Y-105081237D01*
X176572597Y-105015609D01*
X176612618Y-104940734D01*
X176637263Y-104859491D01*
X176645585Y-104775000D01*
X176643500Y-104753832D01*
X176643500Y-90508668D01*
X176645585Y-90487500D01*
X180541915Y-90487500D01*
X180544001Y-90508679D01*
X180544000Y-104753832D01*
X180541915Y-104775000D01*
X180550237Y-104859491D01*
X180574882Y-104940734D01*
X180614903Y-105015609D01*
X180668763Y-105081237D01*
X180734391Y-105135097D01*
X180809266Y-105175118D01*
X180890509Y-105199763D01*
X180975000Y-105208085D01*
X180996168Y-105206000D01*
X195241332Y-105206000D01*
X195262500Y-105208085D01*
X195283668Y-105206000D01*
X195346991Y-105199763D01*
X195428234Y-105175118D01*
X195503109Y-105135097D01*
X195568737Y-105081237D01*
X195622597Y-105015609D01*
X195662618Y-104940734D01*
X195687263Y-104859491D01*
X195695585Y-104775000D01*
X195693500Y-104753832D01*
X195693500Y-90508668D01*
X195695585Y-90487500D01*
X195687263Y-90403009D01*
X195662618Y-90321766D01*
X195622597Y-90246891D01*
X195568737Y-90181263D01*
X195503109Y-90127403D01*
X195428234Y-90087382D01*
X195346991Y-90062737D01*
X195283668Y-90056500D01*
X195262500Y-90054415D01*
X195241332Y-90056500D01*
X180996168Y-90056500D01*
X180975000Y-90054415D01*
X180953832Y-90056500D01*
X180890509Y-90062737D01*
X180809266Y-90087382D01*
X180734391Y-90127403D01*
X180668763Y-90181263D01*
X180614903Y-90246891D01*
X180574882Y-90321766D01*
X180550237Y-90403009D01*
X180541915Y-90487500D01*
X176645585Y-90487500D01*
X176637263Y-90403009D01*
X176612618Y-90321766D01*
X176572597Y-90246891D01*
X176518737Y-90181263D01*
X176453109Y-90127403D01*
X176378234Y-90087382D01*
X176296991Y-90062737D01*
X176233668Y-90056500D01*
X176212500Y-90054415D01*
X176191332Y-90056500D01*
X161946168Y-90056500D01*
X161925000Y-90054415D01*
X161903832Y-90056500D01*
X161840509Y-90062737D01*
X161759266Y-90087382D01*
X161684391Y-90127403D01*
X161618763Y-90181263D01*
X161564903Y-90246891D01*
X161524882Y-90321766D01*
X161500237Y-90403009D01*
X161491915Y-90487500D01*
X157595585Y-90487500D01*
X157587263Y-90403009D01*
X157562618Y-90321766D01*
X157522597Y-90246891D01*
X157468737Y-90181263D01*
X157403109Y-90127403D01*
X157328234Y-90087382D01*
X157246991Y-90062737D01*
X157183668Y-90056500D01*
X157162500Y-90054415D01*
X157141332Y-90056500D01*
X142896168Y-90056500D01*
X142875000Y-90054415D01*
X142853832Y-90056500D01*
X142790509Y-90062737D01*
X142709266Y-90087382D01*
X142634391Y-90127403D01*
X142568763Y-90181263D01*
X142514903Y-90246891D01*
X142474882Y-90321766D01*
X142450237Y-90403009D01*
X142441915Y-90487500D01*
X138545585Y-90487500D01*
X138537263Y-90403009D01*
X138512618Y-90321766D01*
X138472597Y-90246891D01*
X138418737Y-90181263D01*
X138353109Y-90127403D01*
X138278234Y-90087382D01*
X138196991Y-90062737D01*
X138133668Y-90056500D01*
X138112500Y-90054415D01*
X138091332Y-90056500D01*
X123846168Y-90056500D01*
X123825000Y-90054415D01*
X123803832Y-90056500D01*
X123740509Y-90062737D01*
X123659266Y-90087382D01*
X123584391Y-90127403D01*
X123518763Y-90181263D01*
X123464903Y-90246891D01*
X123424882Y-90321766D01*
X123400237Y-90403009D01*
X123391915Y-90487500D01*
X119495585Y-90487500D01*
X119487263Y-90403009D01*
X119462618Y-90321766D01*
X119422597Y-90246891D01*
X119368737Y-90181263D01*
X119303109Y-90127403D01*
X119228234Y-90087382D01*
X119146991Y-90062737D01*
X119083668Y-90056500D01*
X119062500Y-90054415D01*
X119041332Y-90056500D01*
X104796168Y-90056500D01*
X104775000Y-90054415D01*
X104753832Y-90056500D01*
X104690509Y-90062737D01*
X104609266Y-90087382D01*
X104534391Y-90127403D01*
X104468763Y-90181263D01*
X104414903Y-90246891D01*
X104374882Y-90321766D01*
X104350237Y-90403009D01*
X104341915Y-90487500D01*
X102824836Y-90487500D01*
X102824836Y-71437500D01*
X104341915Y-71437500D01*
X104344001Y-71458679D01*
X104344000Y-85703832D01*
X104341915Y-85725000D01*
X104350237Y-85809491D01*
X104374882Y-85890734D01*
X104414903Y-85965609D01*
X104468763Y-86031237D01*
X104534391Y-86085097D01*
X104609266Y-86125118D01*
X104690509Y-86149763D01*
X104775000Y-86158085D01*
X104796168Y-86156000D01*
X119041332Y-86156000D01*
X119062500Y-86158085D01*
X119083668Y-86156000D01*
X119146991Y-86149763D01*
X119228234Y-86125118D01*
X119303109Y-86085097D01*
X119368737Y-86031237D01*
X119422597Y-85965609D01*
X119462618Y-85890734D01*
X119487263Y-85809491D01*
X119495585Y-85725000D01*
X119493500Y-85703832D01*
X119493500Y-71458668D01*
X119495585Y-71437500D01*
X123391915Y-71437500D01*
X123394000Y-71458668D01*
X123394001Y-85703821D01*
X123391915Y-85725000D01*
X123400237Y-85809491D01*
X123424882Y-85890734D01*
X123464903Y-85965609D01*
X123518763Y-86031237D01*
X123584391Y-86085097D01*
X123659266Y-86125118D01*
X123740509Y-86149763D01*
X123803832Y-86156000D01*
X123825000Y-86158085D01*
X123846168Y-86156000D01*
X138091332Y-86156000D01*
X138112500Y-86158085D01*
X138133668Y-86156000D01*
X138196991Y-86149763D01*
X138278234Y-86125118D01*
X138353109Y-86085097D01*
X138418737Y-86031237D01*
X138472597Y-85965609D01*
X138512618Y-85890734D01*
X138537263Y-85809491D01*
X138545585Y-85725000D01*
X138543500Y-85703832D01*
X138543500Y-71458668D01*
X138545585Y-71437500D01*
X142441915Y-71437500D01*
X142444000Y-71458668D01*
X142444001Y-85703821D01*
X142441915Y-85725000D01*
X142450237Y-85809491D01*
X142474882Y-85890734D01*
X142514903Y-85965609D01*
X142568763Y-86031237D01*
X142634391Y-86085097D01*
X142709266Y-86125118D01*
X142790509Y-86149763D01*
X142853832Y-86156000D01*
X142875000Y-86158085D01*
X142896168Y-86156000D01*
X157141332Y-86156000D01*
X157162500Y-86158085D01*
X157183668Y-86156000D01*
X157246991Y-86149763D01*
X157328234Y-86125118D01*
X157403109Y-86085097D01*
X157468737Y-86031237D01*
X157522597Y-85965609D01*
X157562618Y-85890734D01*
X157587263Y-85809491D01*
X157595585Y-85725000D01*
X157593500Y-85703832D01*
X157593500Y-71458668D01*
X157595585Y-71437500D01*
X161491915Y-71437500D01*
X161494001Y-71458679D01*
X161494000Y-85703832D01*
X161491915Y-85725000D01*
X161500237Y-85809491D01*
X161524882Y-85890734D01*
X161564903Y-85965609D01*
X161618763Y-86031237D01*
X161684391Y-86085097D01*
X161759266Y-86125118D01*
X161840509Y-86149763D01*
X161925000Y-86158085D01*
X161946168Y-86156000D01*
X176191332Y-86156000D01*
X176212500Y-86158085D01*
X176233668Y-86156000D01*
X176296991Y-86149763D01*
X176378234Y-86125118D01*
X176453109Y-86085097D01*
X176518737Y-86031237D01*
X176572597Y-85965609D01*
X176612618Y-85890734D01*
X176637263Y-85809491D01*
X176645585Y-85725000D01*
X176643500Y-85703832D01*
X176643500Y-71458668D01*
X176645585Y-71437500D01*
X180541915Y-71437500D01*
X180544001Y-71458679D01*
X180544000Y-85703832D01*
X180541915Y-85725000D01*
X180550237Y-85809491D01*
X180574882Y-85890734D01*
X180614903Y-85965609D01*
X180668763Y-86031237D01*
X180734391Y-86085097D01*
X180809266Y-86125118D01*
X180890509Y-86149763D01*
X180975000Y-86158085D01*
X180996168Y-86156000D01*
X195241332Y-86156000D01*
X195262500Y-86158085D01*
X195283668Y-86156000D01*
X195346991Y-86149763D01*
X195428234Y-86125118D01*
X195503109Y-86085097D01*
X195568737Y-86031237D01*
X195622597Y-85965609D01*
X195662618Y-85890734D01*
X195687263Y-85809491D01*
X195695585Y-85725000D01*
X195693500Y-85703832D01*
X195693500Y-71458668D01*
X195695585Y-71437500D01*
X199591915Y-71437500D01*
X199594001Y-71458679D01*
X199594000Y-85703832D01*
X199591915Y-85725000D01*
X199600237Y-85809491D01*
X199624882Y-85890734D01*
X199664903Y-85965609D01*
X199718763Y-86031237D01*
X199784391Y-86085097D01*
X199859266Y-86125118D01*
X199940509Y-86149763D01*
X200025000Y-86158085D01*
X200046168Y-86156000D01*
X214291332Y-86156000D01*
X214312500Y-86158085D01*
X214333668Y-86156000D01*
X214396991Y-86149763D01*
X214478234Y-86125118D01*
X214553109Y-86085097D01*
X214618737Y-86031237D01*
X214672597Y-85965609D01*
X214712618Y-85890734D01*
X214737263Y-85809491D01*
X214745585Y-85725000D01*
X214743500Y-85703832D01*
X214743500Y-71458668D01*
X214745585Y-71437500D01*
X214737263Y-71353009D01*
X214712618Y-71271766D01*
X214672597Y-71196891D01*
X214618737Y-71131263D01*
X214553109Y-71077403D01*
X214478234Y-71037382D01*
X214396991Y-71012737D01*
X214333668Y-71006500D01*
X214312500Y-71004415D01*
X214291332Y-71006500D01*
X200046168Y-71006500D01*
X200025000Y-71004415D01*
X200003832Y-71006500D01*
X199940509Y-71012737D01*
X199859266Y-71037382D01*
X199784391Y-71077403D01*
X199718763Y-71131263D01*
X199664903Y-71196891D01*
X199624882Y-71271766D01*
X199600237Y-71353009D01*
X199591915Y-71437500D01*
X195695585Y-71437500D01*
X195687263Y-71353009D01*
X195662618Y-71271766D01*
X195622597Y-71196891D01*
X195568737Y-71131263D01*
X195503109Y-71077403D01*
X195428234Y-71037382D01*
X195346991Y-71012737D01*
X195283668Y-71006500D01*
X195262500Y-71004415D01*
X195241332Y-71006500D01*
X180996168Y-71006500D01*
X180975000Y-71004415D01*
X180953832Y-71006500D01*
X180890509Y-71012737D01*
X180809266Y-71037382D01*
X180734391Y-71077403D01*
X180668763Y-71131263D01*
X180614903Y-71196891D01*
X180574882Y-71271766D01*
X180550237Y-71353009D01*
X180541915Y-71437500D01*
X176645585Y-71437500D01*
X176637263Y-71353009D01*
X176612618Y-71271766D01*
X176572597Y-71196891D01*
X176518737Y-71131263D01*
X176453109Y-71077403D01*
X176378234Y-71037382D01*
X176296991Y-71012737D01*
X176233668Y-71006500D01*
X176212500Y-71004415D01*
X176191332Y-71006500D01*
X161946168Y-71006500D01*
X161925000Y-71004415D01*
X161903832Y-71006500D01*
X161840509Y-71012737D01*
X161759266Y-71037382D01*
X161684391Y-71077403D01*
X161618763Y-71131263D01*
X161564903Y-71196891D01*
X161524882Y-71271766D01*
X161500237Y-71353009D01*
X161491915Y-71437500D01*
X157595585Y-71437500D01*
X157587263Y-71353009D01*
X157562618Y-71271766D01*
X157522597Y-71196891D01*
X157468737Y-71131263D01*
X157403109Y-71077403D01*
X157328234Y-71037382D01*
X157246991Y-71012737D01*
X157183668Y-71006500D01*
X157162500Y-71004415D01*
X157141332Y-71006500D01*
X142896168Y-71006500D01*
X142875000Y-71004415D01*
X142853832Y-71006500D01*
X142790509Y-71012737D01*
X142709266Y-71037382D01*
X142634391Y-71077403D01*
X142568763Y-71131263D01*
X142514903Y-71196891D01*
X142474882Y-71271766D01*
X142450237Y-71353009D01*
X142441915Y-71437500D01*
X138545585Y-71437500D01*
X138537263Y-71353009D01*
X138512618Y-71271766D01*
X138472597Y-71196891D01*
X138418737Y-71131263D01*
X138353109Y-71077403D01*
X138278234Y-71037382D01*
X138196991Y-71012737D01*
X138133668Y-71006500D01*
X138112500Y-71004415D01*
X138091332Y-71006500D01*
X123846168Y-71006500D01*
X123825000Y-71004415D01*
X123803832Y-71006500D01*
X123740509Y-71012737D01*
X123659266Y-71037382D01*
X123584391Y-71077403D01*
X123518763Y-71131263D01*
X123464903Y-71196891D01*
X123424882Y-71271766D01*
X123400237Y-71353009D01*
X123391915Y-71437500D01*
X119495585Y-71437500D01*
X119487263Y-71353009D01*
X119462618Y-71271766D01*
X119422597Y-71196891D01*
X119368737Y-71131263D01*
X119303109Y-71077403D01*
X119228234Y-71037382D01*
X119146991Y-71012737D01*
X119083668Y-71006500D01*
X119062500Y-71004415D01*
X119041332Y-71006500D01*
X104796168Y-71006500D01*
X104775000Y-71004415D01*
X104753832Y-71006500D01*
X104690509Y-71012737D01*
X104609266Y-71037382D01*
X104534391Y-71077403D01*
X104468763Y-71131263D01*
X104414903Y-71196891D01*
X104374882Y-71271766D01*
X104350237Y-71353009D01*
X104341915Y-71437500D01*
X102824836Y-71437500D01*
X102824836Y-69032927D01*
X120819000Y-69032927D01*
X120819000Y-69167073D01*
X120845171Y-69298640D01*
X120896506Y-69422574D01*
X120971033Y-69534112D01*
X121065888Y-69628967D01*
X121177426Y-69703494D01*
X121301360Y-69754829D01*
X121432927Y-69781000D01*
X121567073Y-69781000D01*
X121698640Y-69754829D01*
X121822574Y-69703494D01*
X121934112Y-69628967D01*
X122028967Y-69534112D01*
X122103494Y-69422574D01*
X122154829Y-69298640D01*
X122181000Y-69167073D01*
X122181000Y-69032927D01*
X122154829Y-68901360D01*
X122103494Y-68777426D01*
X122028967Y-68665888D01*
X121934112Y-68571033D01*
X121822574Y-68496506D01*
X121698640Y-68445171D01*
X121567073Y-68419000D01*
X121432927Y-68419000D01*
X121301360Y-68445171D01*
X121177426Y-68496506D01*
X121065888Y-68571033D01*
X120971033Y-68665888D01*
X120896506Y-68777426D01*
X120845171Y-68901360D01*
X120819000Y-69032927D01*
X102824836Y-69032927D01*
X102824836Y-52387500D01*
X104341915Y-52387500D01*
X104344001Y-52408679D01*
X104344000Y-66653832D01*
X104341915Y-66675000D01*
X104350237Y-66759491D01*
X104374882Y-66840734D01*
X104414903Y-66915609D01*
X104468763Y-66981237D01*
X104534391Y-67035097D01*
X104609266Y-67075118D01*
X104690509Y-67099763D01*
X104775000Y-67108085D01*
X104796168Y-67106000D01*
X119041332Y-67106000D01*
X119062500Y-67108085D01*
X119083668Y-67106000D01*
X119146991Y-67099763D01*
X119228234Y-67075118D01*
X119303109Y-67035097D01*
X119368737Y-66981237D01*
X119422597Y-66915609D01*
X119462618Y-66840734D01*
X119487263Y-66759491D01*
X119495585Y-66675000D01*
X119493500Y-66653832D01*
X119493500Y-52408668D01*
X119495585Y-52387500D01*
X123391915Y-52387500D01*
X123394000Y-52408668D01*
X123394001Y-66653821D01*
X123391915Y-66675000D01*
X123400237Y-66759491D01*
X123424882Y-66840734D01*
X123464903Y-66915609D01*
X123518763Y-66981237D01*
X123584391Y-67035097D01*
X123659266Y-67075118D01*
X123740509Y-67099763D01*
X123803832Y-67106000D01*
X123825000Y-67108085D01*
X123846168Y-67106000D01*
X138091332Y-67106000D01*
X138112500Y-67108085D01*
X138133668Y-67106000D01*
X138196991Y-67099763D01*
X138278234Y-67075118D01*
X138353109Y-67035097D01*
X138418737Y-66981237D01*
X138472597Y-66915609D01*
X138512618Y-66840734D01*
X138537263Y-66759491D01*
X138545585Y-66675000D01*
X138543500Y-66653832D01*
X138543500Y-52408668D01*
X138545585Y-52387500D01*
X142441915Y-52387500D01*
X142444000Y-52408668D01*
X142444001Y-66653821D01*
X142441915Y-66675000D01*
X142450237Y-66759491D01*
X142474882Y-66840734D01*
X142514903Y-66915609D01*
X142568763Y-66981237D01*
X142634391Y-67035097D01*
X142709266Y-67075118D01*
X142790509Y-67099763D01*
X142853832Y-67106000D01*
X142875000Y-67108085D01*
X142896168Y-67106000D01*
X157141332Y-67106000D01*
X157162500Y-67108085D01*
X157183668Y-67106000D01*
X157246991Y-67099763D01*
X157328234Y-67075118D01*
X157403109Y-67035097D01*
X157468737Y-66981237D01*
X157522597Y-66915609D01*
X157562618Y-66840734D01*
X157587263Y-66759491D01*
X157595585Y-66675000D01*
X157593500Y-66653832D01*
X157593500Y-52408668D01*
X157595585Y-52387500D01*
X161491915Y-52387500D01*
X161494001Y-52408679D01*
X161494000Y-66653832D01*
X161491915Y-66675000D01*
X161500237Y-66759491D01*
X161524882Y-66840734D01*
X161564903Y-66915609D01*
X161618763Y-66981237D01*
X161684391Y-67035097D01*
X161759266Y-67075118D01*
X161840509Y-67099763D01*
X161925000Y-67108085D01*
X161946168Y-67106000D01*
X176191332Y-67106000D01*
X176212500Y-67108085D01*
X176233668Y-67106000D01*
X176296991Y-67099763D01*
X176378234Y-67075118D01*
X176453109Y-67035097D01*
X176518737Y-66981237D01*
X176572597Y-66915609D01*
X176612618Y-66840734D01*
X176637263Y-66759491D01*
X176645585Y-66675000D01*
X176643500Y-66653832D01*
X176643500Y-52408668D01*
X176645585Y-52387500D01*
X180541915Y-52387500D01*
X180544001Y-52408679D01*
X180544000Y-66653832D01*
X180541915Y-66675000D01*
X180550237Y-66759491D01*
X180574882Y-66840734D01*
X180614903Y-66915609D01*
X180668763Y-66981237D01*
X180734391Y-67035097D01*
X180809266Y-67075118D01*
X180890509Y-67099763D01*
X180975000Y-67108085D01*
X180996168Y-67106000D01*
X195241332Y-67106000D01*
X195262500Y-67108085D01*
X195283668Y-67106000D01*
X195346991Y-67099763D01*
X195428234Y-67075118D01*
X195503109Y-67035097D01*
X195568737Y-66981237D01*
X195622597Y-66915609D01*
X195662618Y-66840734D01*
X195687263Y-66759491D01*
X195695585Y-66675000D01*
X195693500Y-66653832D01*
X195693500Y-52408668D01*
X195695585Y-52387500D01*
X199591915Y-52387500D01*
X199594001Y-52408679D01*
X199594000Y-66653832D01*
X199591915Y-66675000D01*
X199600237Y-66759491D01*
X199624882Y-66840734D01*
X199664903Y-66915609D01*
X199718763Y-66981237D01*
X199784391Y-67035097D01*
X199859266Y-67075118D01*
X199940509Y-67099763D01*
X200025000Y-67108085D01*
X200046168Y-67106000D01*
X214291332Y-67106000D01*
X214312500Y-67108085D01*
X214333668Y-67106000D01*
X214396991Y-67099763D01*
X214478234Y-67075118D01*
X214553109Y-67035097D01*
X214618737Y-66981237D01*
X214672597Y-66915609D01*
X214712618Y-66840734D01*
X214737263Y-66759491D01*
X214745585Y-66675000D01*
X214743500Y-66653832D01*
X214743500Y-52408668D01*
X214745585Y-52387500D01*
X214737263Y-52303009D01*
X214712618Y-52221766D01*
X214672597Y-52146891D01*
X214618737Y-52081263D01*
X214553109Y-52027403D01*
X214478234Y-51987382D01*
X214396991Y-51962737D01*
X214333668Y-51956500D01*
X214312500Y-51954415D01*
X214291332Y-51956500D01*
X200046168Y-51956500D01*
X200025000Y-51954415D01*
X200003832Y-51956500D01*
X199940509Y-51962737D01*
X199859266Y-51987382D01*
X199784391Y-52027403D01*
X199718763Y-52081263D01*
X199664903Y-52146891D01*
X199624882Y-52221766D01*
X199600237Y-52303009D01*
X199591915Y-52387500D01*
X195695585Y-52387500D01*
X195687263Y-52303009D01*
X195662618Y-52221766D01*
X195622597Y-52146891D01*
X195568737Y-52081263D01*
X195503109Y-52027403D01*
X195428234Y-51987382D01*
X195346991Y-51962737D01*
X195283668Y-51956500D01*
X195262500Y-51954415D01*
X195241332Y-51956500D01*
X180996168Y-51956500D01*
X180975000Y-51954415D01*
X180953832Y-51956500D01*
X180890509Y-51962737D01*
X180809266Y-51987382D01*
X180734391Y-52027403D01*
X180668763Y-52081263D01*
X180614903Y-52146891D01*
X180574882Y-52221766D01*
X180550237Y-52303009D01*
X180541915Y-52387500D01*
X176645585Y-52387500D01*
X176637263Y-52303009D01*
X176612618Y-52221766D01*
X176572597Y-52146891D01*
X176518737Y-52081263D01*
X176453109Y-52027403D01*
X176378234Y-51987382D01*
X176296991Y-51962737D01*
X176233668Y-51956500D01*
X176212500Y-51954415D01*
X176191332Y-51956500D01*
X161946168Y-51956500D01*
X161925000Y-51954415D01*
X161903832Y-51956500D01*
X161840509Y-51962737D01*
X161759266Y-51987382D01*
X161684391Y-52027403D01*
X161618763Y-52081263D01*
X161564903Y-52146891D01*
X161524882Y-52221766D01*
X161500237Y-52303009D01*
X161491915Y-52387500D01*
X157595585Y-52387500D01*
X157587263Y-52303009D01*
X157562618Y-52221766D01*
X157522597Y-52146891D01*
X157468737Y-52081263D01*
X157403109Y-52027403D01*
X157328234Y-51987382D01*
X157246991Y-51962737D01*
X157225508Y-51960621D01*
X157162500Y-51954415D01*
X157141332Y-51956500D01*
X142896168Y-51956500D01*
X142875000Y-51954415D01*
X142811992Y-51960621D01*
X142790509Y-51962737D01*
X142709266Y-51987382D01*
X142634391Y-52027403D01*
X142568763Y-52081263D01*
X142514903Y-52146891D01*
X142474882Y-52221766D01*
X142450237Y-52303009D01*
X142441915Y-52387500D01*
X138545585Y-52387500D01*
X138537263Y-52303009D01*
X138512618Y-52221766D01*
X138472597Y-52146891D01*
X138418737Y-52081263D01*
X138353109Y-52027403D01*
X138278234Y-51987382D01*
X138196991Y-51962737D01*
X138175508Y-51960621D01*
X138112500Y-51954415D01*
X138091332Y-51956500D01*
X123846168Y-51956500D01*
X123825000Y-51954415D01*
X123761992Y-51960621D01*
X123740509Y-51962737D01*
X123659266Y-51987382D01*
X123584391Y-52027403D01*
X123518763Y-52081263D01*
X123464903Y-52146891D01*
X123424882Y-52221766D01*
X123400237Y-52303009D01*
X123391915Y-52387500D01*
X119495585Y-52387500D01*
X119487263Y-52303009D01*
X119462618Y-52221766D01*
X119422597Y-52146891D01*
X119368737Y-52081263D01*
X119303109Y-52027403D01*
X119228234Y-51987382D01*
X119146991Y-51962737D01*
X119083668Y-51956500D01*
X119062500Y-51954415D01*
X119041332Y-51956500D01*
X104796168Y-51956500D01*
X104775000Y-51954415D01*
X104753832Y-51956500D01*
X104690509Y-51962737D01*
X104609266Y-51987382D01*
X104534391Y-52027403D01*
X104468763Y-52081263D01*
X104414903Y-52146891D01*
X104374882Y-52221766D01*
X104350237Y-52303009D01*
X104341915Y-52387500D01*
X102824836Y-52387500D01*
X102824836Y-50437292D01*
X214886914Y-50437292D01*
X215170765Y-50465124D01*
G37*
G04 #@! TD.AperFunction*
M02*
